<?xml version="1.0" encoding="utf-8"?>
<!-- Generator: Adobe Illustrator 26.1.0, SVG Export Plug-In . SVG Version: 6.00 Build 0)  -->
<svg version="1.1" id="Layer_1" xmlns="http://www.w3.org/2000/svg" xmlns:xlink="http://www.w3.org/1999/xlink" x="0px" y="0px"
	 viewBox="0 0 576 512" enable-background="new 0 0 576 512" xml:space="preserve">
<path d="M498,60H78c-23.2,0-42,18.8-42,42V410c0,23.2,18.8,42,42,42H498c23.2,0,42-18.8,42-42V102C539.9,78.9,521.1,60,498,60z
	 M190,144c30.9,0,56,25.1,56,56s-25.1,56-56,56s-56-25.1-56-56S159.1,144,190,144z M288,351.2c0,9.3-8.7,16.8-19.6,16.8H111.6
	c-10.8,0-19.6-7.5-19.6-16.8v-16.8c0-27.8,26.3-50.4,58.8-50.4h4.4c10.8,4.5,22.5,7,34.8,7c12.3,0,24.1-2.5,34.8-7h4.4
	c32.5,0,58.8,22.6,58.8,50.4V351.2z M484,305c0,3.8-3.1,7-7,7H351c-3.8,0-7-3.1-7-7v-14c0-3.8,3.1-7,7-7h126c3.8,0,7,3.1,7,7V305z
	 M484,249c0,3.8-3.1,7-7,7H351c-3.8,0-7-3.1-7-7v-14c0-3.8,3.1-7,7-7h126c3.8,0,7,3.1,7,7V249z M484,193c0,3.8-3.1,7-7,7H351
	c-3.8,0-7-3.1-7-7v-14c0-3.8,3.1-7,7-7h126c3.8,0,7,3.1,7,7V193z"/>
</svg>
