<?xml version="1.0" encoding="utf-8"?>
<!-- Generator: Adobe Illustrator 26.1.0, SVG Export Plug-In . SVG Version: 6.00 Build 0)  -->
<svg version="1.1" id="svg3215" xmlns:svg="http://www.w3.org/2000/svg"
	 xmlns="http://www.w3.org/2000/svg" xmlns:xlink="http://www.w3.org/1999/xlink" x="0px" y="0px" viewBox="0 0 458.4 458.4"
	 enable-background="new 0 0 458.4 458.4" xml:space="preserve">
<g>
	<path d="M229.2,0C101.7,0,0,101.7,0,229.2c0,125.7,101.7,229.2,229.2,229.2c125.7,0,229.2-101.7,229.2-229.2
		C456.5,101.7,354.9,0,229.2,0z M229.2,425.1c-109,0-197.8-88.7-197.8-195.9c0-109,88.7-197.8,197.8-197.8
		c107.2,0,195.9,88.7,195.9,197.8C425.1,336.4,336.4,425.1,229.2,425.1z"/>
</g>
<g>
	<g>
		<g>
			<path d="M202.8,193.7c-2.6-0.8-4.6-1.4-6.6-2.1c-5-1.8-7.8-5.7-7.3-9.8c0.6-4.4,4.3-7.8,9.5-8.2c3.7-0.3,7.5-0.4,11.2-0.1
				c3.7,0.3,5.6-0.9,7.3-4.3c2.3-4.6,5.2-9,8.4-13c7-8.5,16.9-11.2,27.4-12.2c29.7-2.9,59.4-3.1,89.1,0.8
				c14.1,1.8,23.6,10.1,29.4,22.6c2.2,4.8,4.8,7.1,10.1,6.3c3-0.5,6.1-0.2,9.2,0c5.2,0.4,9,3.8,9.6,8.2c0.5,4.2-2.2,8-7.2,9.8
				c-2,0.7-4,1.3-6.6,2.1c12.6,10.5,13.3,25,13.6,39.2c0.5,20.6,0.2,41.1,0.2,61.7c0,5.3-2.5,7.8-7.9,7.9c-7.6,0.1-15.2,0.1-22.8,0
				c-5-0.1-7.6-2.7-7.7-7.7c0-2.8,0-5.6,0-8.6c-44.9,0-89.4,0-134.6,0c0,3.2,0.1,6.2,0,9.2c-0.1,4.4-2.6,7-7,7.1
				c-8.1,0.1-16.3,0.1-24.4,0c-4.1-0.1-6.9-2.8-6.9-6.8c0.3-25.6,0.6-51.2,1.5-76.8C190.8,209.1,194.5,200.3,202.8,193.7z
				 M219.8,191.3c50.1-3.6,99.5-3.6,149.9,0c-3.5-7.5-6.2-14.3-9.6-20.8c-4.6-8.7-11.7-13.7-21.8-14.9c-27.6-3.2-55.1-3.1-82.7-0.6
				c-8.6,0.8-17,2.4-22.8,9.9C226.8,172.7,223.8,181.8,219.8,191.3z M294.9,219.3c0,0.2,0,0.4,0,0.7c-4.3,0-8.5-0.2-12.8,0
				c-8.1,0.5-16.2,1-24.3,1.9c-6.6,0.8-8.1,3.4-6.6,9.9c0.5,2.3,1.4,4.6,1.8,6.9c1.1,5.7,4.8,7.8,10.1,8.5
				c19.3,2.2,38.6,2.3,57.9,0.6c13-1.2,13.6-1.8,16.8-14.3c2.2-8.4,0.4-11.2-8.2-11.8C318,220.7,306.4,220,294.9,219.3z
				 M294.5,274.3c8.5,0,17.1,0,25.6,0c4.3,0,5.3-1.1,5.4-5.5c0-1.3,0.1-2.7,0-4c-0.2-2.7-1.6-4.1-4.4-4.1c-17.7,0-35.5,0-53.2,0
				c-2.8,0-4.1,1.5-4.1,4.2c0,1.2,0,2.4,0,3.6c0,4.9,0.8,5.8,5.9,5.8C278,274.3,286.2,274.3,294.5,274.3z M347.7,243.2
				c9.8-0.9,6.1-0.6,27.8-2.8c5.2-0.5,9.9-3,11.7-8.4c1.8-5.4,0.9-10.8-1.6-15.9c-0.4-0.8-2.1-1.5-3-1.3c-7.4,1.6-14.9,3-22.1,5.2
				c-2.9,0.9-6.3,3.2-7.5,5.7C350.6,231,349.6,236.8,347.7,243.2z M241.4,243.3c-1.5-5.4-2.9-10.1-4-14.8c-1.1-4.8-4.1-7.6-8.8-8.7
				c-7.4-1.7-14.8-3.5-22.2-5.1c-0.8-0.2-2.2,0.2-2.6,0.9c-6.7,8.9-2.3,22.3,8.5,24.4C221.7,241.8,231.3,242.2,241.4,243.3z"/>
			<path d="M85.6,288.5c-9-4.9-14-3.5-18.7,5c-7.1-0.3-10.9-5.2-9.5-12.1c2.4-11.5,4.9-23,7.4-34.4c1.6-7.3,5.9-9.9,13.2-8.4
				c4,0.8,8.1,1.8,12.1,2.6c0.2,0.1,0.5-0.1,1.1-0.2c0.9-4,1.9-8.1,2.6-12.3c0.2-1-0.4-2.3-1.1-3.1c-2.5-2.8-2.8-6-1.8-9.4
				c2.7-8.9,5.5-17.8,8.2-26.7c1.3-4.2,4-7.2,7.8-9.2c7.1-3.7,14.1-7.5,21.3-11.2c5.4-2.8,11-3.6,16.2,0.4c5.1,3.9,6,9.2,5,15.4
				c-2.1,13-3.9,26.1-5.4,39.2c-0.3,2.3,1.1,5.5,2.8,7.3c3.7,4,8.1,7.3,12.3,10.9c3.9,3.3,5.8,7.4,6.1,12.5
				c0.7,11.7,1.7,23.4,2.6,35.1c0.6,7-3.2,12-9.4,12.4c-6,0.4-10.4-4-10.9-10.8c-0.8-10.7-1.5-21.3-2.5-31.9
				c-0.1-1.6-1.2-3.5-2.4-4.6c-6-5.4-12-10.6-18.2-15.7c-6.5-5.3-9-11.9-7.6-20.2c1.4-8.7,2.4-17.4,3.6-26.4
				c-3.6,0.7-5.6,2.3-6.5,5.7c-2,7.5-4.5,14.8-6.7,22.2c-1.1,3.6-3.1,6-6.8,7.2c-1.1,0.4-2.3,2-2.6,3.2
				C93.8,250.1,89.7,269.2,85.6,288.5z"/>
			<path d="M116.7,238.3c5.1,4.5,9.9,8.5,14.5,12.7c0.9,0.9,1.6,3,1.3,4.2c-4.1,13.2-8.3,26.4-12.7,39.6c-2,6-7.4,8.8-12.8,7.1
				c-5.5-1.8-8.2-7.1-6.5-13.2c0.5-1.8,1.1-3.6,1.7-5.3C107,268.5,111.8,253.5,116.7,238.3z"/>
			<path d="M127.4,145.7c0-9.1,7.1-16.3,16.1-16.3c9,0,16.2,7.2,16.2,16.3c0,9-7.2,16.3-16.2,16.4
				C134.8,162.1,127.4,154.7,127.4,145.7z"/>
			<path d="M153.3,190c9.2,7.1,18,13.7,26.5,20.5c3.2,2.6,3.5,7.7,1.1,10.9c-2.4,3.4-7.5,4.7-11.1,2.3c-6.1-4.3-12-8.9-17.8-13.5
				c-0.8-0.6-1.1-2.4-1-3.5C151.6,201.4,152.4,196.2,153.3,190z"/>
			<path d="M83.6,296.2c0,3.6-2.8,6.3-6.3,6.2c-3.4-0.1-5.9-2.7-5.9-6.2c0-3.5,2.5-6.1,5.9-6.2C80.8,289.8,83.6,292.6,83.6,296.2z"
				/>
		</g>
	</g>
</g>
</svg>
