<?xml version="1.0" encoding="utf-8"?>
<!-- Generator: Adobe Illustrator 26.1.0, SVG Export Plug-In . SVG Version: 6.00 Build 0)  -->
<svg version="1.1" id="Layer_1" xmlns="http://www.w3.org/2000/svg" xmlns:xlink="http://www.w3.org/1999/xlink" x="0px" y="0px"
	 viewBox="0 0 700 700" enable-background="new 0 0 700 700" xml:space="preserve">
<path d="M487.7,315c-45.2,0-51.4,45-51.4,45h95.9C532.2,360,532.8,315,487.7,315z"/>
<path d="M270,360h-85v78.1h80.8c12.2-0.3,35-3.8,35-38C300.8,359.5,270,360,270,360z"/>
<path d="M350,0C156.7,0,0,156.7,0,350s156.7,350,350,350s350-156.7,350-350S543.3,0,350,0z M423.8,215h120.5v35.9H423.8V215z
	 M362.8,403.8c0,89.1-92.8,86.3-92.8,86.3H118.1V197.8H270c46.3,0,82.7,25.5,82.7,77.8s-44.5,55.6-44.5,55.6
	C366.9,331.2,362.8,403.8,362.8,403.8L362.8,403.8z M588.1,398.9H436.7c0,54.2,51.4,50.8,51.4,50.8c48.6,0,46.9-31.4,46.9-31.4h51.4
	c0,83.4-100,77.7-100,77.7c-119.8,0-112.2-111.7-112.2-111.7S374.1,272,486.4,272C604.7,272.2,588.1,398.9,588.1,398.9L588.1,398.9z
	"/>
<path d="M290.6,280.2c0-30.3-20.6-30.3-20.6-30.3h-85V315h79.7C278.4,315,290.6,310.5,290.6,280.2z"/>
</svg>
