<?xml version="1.0" encoding="utf-8"?>
<!-- Generator: Adobe Illustrator 26.1.0, SVG Export Plug-In . SVG Version: 6.00 Build 0)  -->
<svg version="1.1" id="Layer_1" xmlns="http://www.w3.org/2000/svg" xmlns:xlink="http://www.w3.org/1999/xlink" x="0px" y="0px"
	 viewBox="0 0 533.6 533.1" enable-background="new 0 0 533.6 533.1" xml:space="preserve">
<path d="M317.6,322.2c-9,36.3-70,16.7-90,11.7l16-64.3C263.6,274.6,327,284.2,317.6,322.2z M265.6,181.6L251,239.9
	c16.7,4,67.7,21,76-12C335.3,193.6,282.3,185.6,265.6,181.6z M525.6,330.9C490,473.6,345.3,560.6,202.3,525.2
	C59.6,489.6-27.7,344.9,8,202.2C43.6,59.2,188.3-27.4,331.3,7.9C474,43.6,561.3,188.2,525.6,330.9z M179.3,311.2
	c-1.3,3.7-5,9-13.3,7c-1.3,0-21.3-5.3-21.3-5.3L130,346.2l38,9.3c7.3,2,14,3.7,21,5.7l-12,48.3l29,7.3l12-48c8,2.3,15.7,4,23.3,6
	l-12,47.7l29.3,7.3l12-48.3c50,9.3,87.7,5.7,103.3-39.7c12.7-36.3-0.7-57.3-27-71c19-4.3,33.3-17,37.3-43
	c5.3-35.3-21.7-54.7-58.7-67l12-48.3l-29.3-7.3l-11.7,46.7c-7.7-2-15.7-3.7-23.7-5.7l11.7-47l-29-7.3l-12,48
	c-6.3-1.3-12.7-3-18.7-4.3l-40.3-10.3l-7.7,31.3c0,0,21.3,5,21.3,5.3c11.7,3,13.7,10.7,13.7,17l-33,131.7L179.3,311.2z"/>
</svg>
