<?xml version="1.0" encoding="utf-8"?>
<!-- Generator: Adobe Illustrator 26.1.0, SVG Export Plug-In . SVG Version: 6.00 Build 0)  -->
<svg version="1.1" id="Layer_1" xmlns="http://www.w3.org/2000/svg" xmlns:xlink="http://www.w3.org/1999/xlink" x="0px" y="0px"
	 viewBox="0 0 800 800" enable-background="new 0 0 800 800" xml:space="preserve">
<path d="M400,788.9C185.6,788.9,11.1,614.5,11.1,400C11.1,185.6,185.6,11.1,400,11.1c214.5,0,388.9,174.5,388.9,388.9
	C788.9,614.5,614.5,788.9,400,788.9z M210.4,653.3c54.6,41.2,121.2,63.4,189.6,63.2c38,0,75.3-6.8,110.9-20.1
	c-14.7-80.2-35.9-159.2-63.4-236C308.7,505.5,237.1,606.7,210.4,653.3z M518.6,443.6c24.8,71.2,44.5,144.1,59.1,218
	c72.6-49.2,121.4-126.3,134.8-212.9c-38.3-7.1-77.1-10.8-116.1-11C570.5,437.7,544.4,439.7,518.6,443.6z M83.4,400
	c0,74.2,26.2,145.9,73.8,202.9c38.7-60.5,121.2-160.4,264.3-209.2c-6.6-15.3-13.4-30.5-20.6-45.5c-123.1,35.5-249.2,44.3-317.4,46.2
	L83.4,400z M598.9,365.6c37.5,0,76.7,3.4,116.8,10.1c-4.6-61.1-27-119.6-64.6-168.1c-41.7,47.6-102.3,87-180.5,117.3
	c7.4,15.9,14.8,32.8,22,50.2C526.6,368.8,562.3,365.6,598.9,365.6z M250,121.4c-77.9,41.9-134.6,114.5-156.6,200.1
	c60.6-2.6,168.8-11.1,273.5-39C319.1,197.7,274.5,146.3,250,121.4L250,121.4z M322.9,93c30,33.5,72.2,87.9,115.1,167
	c72.8-27.1,127.3-62.3,162.6-104.7C544,108.9,473.1,83.5,400,83.4C374.1,83.4,348.2,86.7,322.9,93L322.9,93z"/>
</svg>
