<?xml version="1.0" encoding="utf-8"?>
<!-- Generator: Adobe Illustrator 26.1.0, SVG Export Plug-In . SVG Version: 6.00 Build 0)  -->
<svg version="1.1" id="Layer_1" xmlns="http://www.w3.org/2000/svg" xmlns:xlink="http://www.w3.org/1999/xlink" x="0px" y="0px"
	 viewBox="0 0 24.7 24.7" enable-background="new 0 0 24.7 24.7" xml:space="preserve">
<g>
	<path d="M12.4,0C5.5,0,0,5.5,0,12.4c0,6.8,5.5,12.4,12.4,12.4c6.8,0,12.4-5.5,12.4-12.4C24.7,5.5,19.2,0,12.4,0z M12.4,23
		C6.5,23,1.7,18.2,1.7,12.4c0-5.9,4.8-10.7,10.7-10.7C18.2,1.7,23,6.5,23,12.4C23,18.2,18.2,23,12.4,23z"/>
	<path d="M12,11.3c0.3,0.2,0.5,0.2,0.8,0c1.4-0.9,2.8-1.7,4.2-2.6c0.4-0.3,0.9-0.6,1.3-0.8c0,0,0,0,0-0.1c-3.9,0-7.9,0-11.9,0
		c0.1,0.1,0.2,0.1,0.2,0.2C8.4,9,10.2,10.1,12,11.3z"/>
	<path d="M19.4,8.8C19,9,18.7,9.2,18.3,9.5c-1.8,1.1-3.7,2.3-5.5,3.4c-0.3,0.2-0.6,0.2-0.9,0c-1.5-0.9-3-1.9-4.5-2.8
		C6.7,9.7,6,9.2,5.3,8.8c0,0.2,0,0.3,0,0.5c0,2.1,0,4.2,0,6.2c0,1,0.5,1.5,1.5,1.5c3.8,0,7.5,0,11.3,0c0.9,0,1.4-0.5,1.4-1.4
		c0-2.1,0-4.3,0-6.4C19.4,9,19.4,8.9,19.4,8.8z"/>
</g>
</svg>
