<?xml version="1.0" encoding="utf-8"?>
<!-- Generator: Adobe Illustrator 26.1.0, SVG Export Plug-In . SVG Version: 6.00 Build 0)  -->
<svg version="1.1" id="Layer_1" xmlns="http://www.w3.org/2000/svg" xmlns:xlink="http://www.w3.org/1999/xlink" x="0px" y="0px"
	 viewBox="0 0 500 500" enable-background="new 0 0 500 500" xml:space="preserve">
<g>
	<path d="M250,0C111.9,0,0,111.9,0,250c0,138.1,111.9,250,250,250c138.1,0,250-111.9,250-250C500,111.9,388.1,0,250,0z M250,458.9
		c-115.2,0-208.9-93.7-208.9-208.9c0-115.2,93.7-208.9,208.9-208.9c115.2,0,208.9,93.7,208.9,208.9
		C458.9,365.2,365.2,458.9,250,458.9z"/>
</g>
<g>
	<path d="M168.4,136.4c8.1,0,15.7,0,23.6,0c0,6.8-0.1,13.5,0,20.2c0.2,10.7,10.3,18.1,20.5,15.1c6.8-2,11.2-8.2,11.3-15.8
		c0.1-6.4,0-12.8,0-19.4c7.8,0,15.5,0,23.5,0c0,2.5,0,5,0,7.5c0,4,0,7.9,0,11.9c0,9.4,6.8,16.4,15.9,16.5c9,0,15.9-7.1,16-16.4
		c0.1-6.4,0-12.8,0-19.4c7.8,0,15.5,0,23.5,0c0,3.5,0,6.9,0,10.4c0,3.1,0,6.1,0,9.2c0,9,6.9,16.1,15.6,16.2
		c9.1,0.1,16.1-6.9,16.2-16.2c0.1-6.3,0-12.6,0.1-19c0-0.2,0.1-0.3,0.1-0.5c16-3.1,26.5,7.6,26.5,20.3c0,39,0,78,0,117
		c0,1,0,2.1,0,3.7c1.4-1.3,2.4-2.2,3.4-3.1c7.8-7.8,15.6-15.6,23.4-23.5c3.9-3.9,8.9-4.1,12.8-0.2c3.7,3.7,7.5,7.4,11.2,11.2
		c4,4.1,3.9,8.7-0.1,12.8c-16.3,16.3-32.5,32.6-48.8,48.8c-1.3,1.3-1.9,2.5-1.8,4.4c0.1,9.8,0.1,19.7,0,29.5c0,12.5-8.6,21-21.1,21
		c-69.7,0-139.3,0-209,0c-12.9,0-21.3-8.4-21.3-21.3c0-66.2,0-132.5-0.1-198.7c0-8.8,3.1-15.7,11-20c4.9-2.6,10.1-2.2,15.7-2.1
		c0,6.7,0,13.1,0,19.6c0,3.9,1.1,7.5,3.6,10.5c4.4,5.3,11.3,7.3,17.6,5c6.4-2.3,10.5-8.1,10.6-15.2c0.1-5.6,0-11.2,0-16.9
		C168.4,138.5,168.4,137.5,168.4,136.4z M330.3,308.2c1-0.6,1.6-0.9,2.1-1.4c5-5,10.1-10,15-15.1c0.6-0.6,1-1.8,1-2.8
		c0.1-21.1,0-42.2,0-63.2c0-0.9-0.1-1.9-0.2-3c-1.1,0-2,0-2.9,0c-73.2,0-146.3,0-219.5-0.1c-2.6,0-3.4,0.6-3.4,3.3
		c0.1,43.4,0.1,86.8,0.1,130.2c0,7.1,2.6,9.7,9.7,9.7c68.9,0,137.7,0,206.6,0c0.9,0,1.8,0,2.6,0c3.3-0.3,6.5-2.6,6.7-5.8
		c0.3-6.9,0.1-13.8,0.1-21.2c-1.1,0.9-1.8,1.5-2.4,2.2c-3.2,3.1-6.3,6.4-9.5,9.5c-3.5,3.3-7.8,3.3-11.2,0c-2.1-2.1-4.2-4.2-6.3-6.3
		c-13.1-13.1-26.2-26.2-39.3-39.3c-4.3-4.4-4.2-8.8,0.1-13.2c3.6-3.7,7.3-7.4,11-11c3.9-3.8,8.5-3.7,12.4,0c4.1,4,8.1,8,12.1,12.1
		C320.1,297.7,325.2,302.9,330.3,308.2z"/>
	<path d="M162.5,137.1c0,6.2,0,12.5,0,18.7c0,6.2-4.1,10.6-10,10.7c-5.7,0.1-10-4.4-10.1-10.5c0-12.6,0-25.1,0-37.7
		c0-6.2,4.2-10.6,10-10.7c5.8-0.1,10,4.4,10.1,10.8c0,3.2,0,6.3,0,9.5C162.5,130.9,162.5,134,162.5,137.1z"/>
	<path d="M217.9,137c0,6.2,0,12.5,0,18.7c0,6.4-4.2,10.8-10.1,10.8c-5.7-0.1-9.9-4.5-9.9-10.7c0-12.5,0-24.9,0-37.4
		c0-6.3,4.1-10.7,9.8-10.8c5.9-0.1,10.1,4.4,10.2,10.7c0,3.2,0,6.3,0,9.5C217.9,130.8,217.9,133.9,217.9,137z"/>
	<path d="M273.2,137.2c0,6.2,0,12.5,0,18.7c0,6.1-4.3,10.6-10.1,10.6c-5.6,0-9.9-4.4-9.9-10.4c-0.1-12.6-0.1-25.1,0-37.7
		c0-6.5,4.2-10.9,10.1-10.8c5.8,0,9.9,4.6,9.9,11C273.2,124.7,273.2,131,273.2,137.2z"/>
	<path d="M308.6,137c0-6.2,0-12.5,0-18.7c0.1-6.4,4.2-10.8,10.1-10.8c5.8,0,9.9,4.6,9.9,11c0,12.6,0,25.3,0,37.9
		c0,5.2-3.5,9.1-8.5,9.9c-4.8,0.7-9.5-2.1-10.9-6.7c-0.4-1.3-0.5-2.8-0.5-4.1C308.6,149.3,308.6,143.2,308.6,137z"/>
	<path d="M170.7,266.7c-5.9,0-11.8,0-17.6,0c-4.6,0-6.6-2-6.6-6.6c0-6.8,0-13.7,0-20.5c0-4.4,2-6.5,6.4-6.5c11.9,0,23.9,0,35.8,0
		c4.3,0,6.4,2.2,6.4,6.6c0,6.8,0,13.5,0,20.3c0,4.7-2.1,6.7-6.7,6.8C182.4,266.7,176.6,266.7,170.7,266.7z"/>
	<path d="M235.5,266.7c-5.9,0-11.8,0-17.6,0c-4.6,0-6.6-2-6.6-6.6c0-6.8,0-13.7,0-20.5c0-4.4,2-6.5,6.5-6.5c11.9,0,23.7,0,35.6,0
		c4.5,0,6.6,2.1,6.7,6.6c0.1,6.8,0.1,13.7,0,20.5c0,4.4-2.2,6.5-6.5,6.5C247.4,266.7,241.4,266.7,235.5,266.7
		C235.5,266.7,235.5,266.7,235.5,266.7z"/>
	<path d="M300.4,266.7c-5.9,0-11.8,0-17.6,0c-4.7,0-6.7-2-6.7-6.8c0-6.8,0-13.7,0-20.5c0-4.3,2-6.3,6.3-6.3c12,0,24.1-0.1,36.1,0
		c4,0,6.2,2.2,6.2,6.2c0.1,7,0.1,14,0,21.1c0,4.2-2.2,6.3-6.4,6.3C312.3,266.7,306.4,266.7,300.4,266.7z"/>
	<path d="M235.6,277.3c5.9,0,11.8,0,17.6,0c4.6,0,6.7,2.1,6.7,6.8c0,6.7,0,13.3,0,20c0,4.7-2.1,6.8-6.8,6.8c-11.8,0-23.5,0-35.3,0
		c-4.6,0-6.6-2-6.6-6.6c0-6.8,0-13.7,0-20.5c0-4.4,2-6.5,6.4-6.5C223.6,277.3,229.6,277.3,235.6,277.3
		C235.6,277.3,235.6,277.3,235.6,277.3z"/>
	<path d="M235.7,321.6c5.8,0,11.6,0,17.4,0c4.8,0,6.8,2.1,6.9,6.9c0,6.7,0,13.3,0,20c0,4.5-2.1,6.6-6.6,6.7c-11.9,0-23.7,0-35.6,0
		c-4.4,0-6.5-2.1-6.5-6.4c0-6.8,0-13.7,0-20.5c0-4.7,2-6.6,6.8-6.7C223.9,321.6,229.8,321.6,235.7,321.6z"/>
	<path d="M170.7,311c-5.9,0-11.8,0-17.6,0c-4.7,0-6.7-2-6.7-6.8c0-6.8,0-13.7,0-20.5c0-4.1,2-6.3,6.1-6.3c12.1-0.1,24.2-0.1,36.3,0
		c4,0,6.2,2.2,6.2,6.2c0.1,7,0.1,14,0,21.1c0,4.1-2.2,6.3-6.4,6.3C182.7,311,176.7,311,170.7,311z"/>
	<path d="M170.7,355.3c-5.9,0-11.8,0-17.6,0c-4.7,0-6.7-2-6.7-6.8c0-6.8,0-13.7,0-20.5c0-4.1,2-6.2,6.1-6.3
		c12.2-0.1,24.4-0.1,36.6,0c3.7,0,5.9,2.3,5.9,5.9c0.1,7.1,0.1,14.2,0,21.3c0,4.1-2.2,6.3-6.4,6.3
		C182.7,355.3,176.7,355.3,170.7,355.3z"/>
</g>
</svg>
