<?xml version="1.0" encoding="utf-8"?>
<!-- Generator: Adobe Illustrator 26.1.0, SVG Export Plug-In . SVG Version: 6.00 Build 0)  -->
<svg version="1.1" id="Layer_1" xmlns="http://www.w3.org/2000/svg" xmlns:xlink="http://www.w3.org/1999/xlink" x="0px" y="0px"
	 viewBox="0 0 24.7 24.7" enable-background="new 0 0 24.7 24.7" xml:space="preserve">
<g>
	<g>
		<path d="M12.4,1.7C18.2,1.7,23,6.5,23,12.4S18.2,23,12.4,23C6.5,23,1.7,18.2,1.7,12.4S6.5,1.7,12.4,1.7 M12.4,0
			C5.5,0,0,5.5,0,12.4s5.5,12.4,12.4,12.4c6.8,0,12.4-5.5,12.4-12.4S19.2,0,12.4,0L12.4,0z"/>
		<path fill-rule="evenodd" clip-rule="evenodd" d="M14,7.8c0.4,0,0.9,0,1.3,0c0.1,0,0.1,0,0.2,0V5.4c-0.2,0-0.5-0.1-0.7-0.1
			c-0.5,0-0.9,0-1.4,0c-0.7,0-1.4,0.2-2,0.6c-0.7,0.5-1,1.2-1.2,2c-0.1,0.3-0.1,0.7-0.1,1c0,0.5,0,1,0,1.6v0.2H7.9v2.6h2.2v6.6h2.7
			v-6.6H15c0.1-0.9,0.2-1.7,0.3-2.6c-0.2,0-0.3,0-0.5,0c-0.6,0-2.1,0-2.1,0s0-1.3,0-1.9C12.9,8,13.3,7.8,14,7.8z"/>
	</g>
</g>
</svg>
