<?xml version="1.0" encoding="utf-8"?>
<!-- Generator: Adobe Illustrator 26.1.0, SVG Export Plug-In . SVG Version: 6.00 Build 0)  -->
<svg version="1.1" id="svg3215" xmlns:svg="http://www.w3.org/2000/svg"
	 xmlns="http://www.w3.org/2000/svg" xmlns:xlink="http://www.w3.org/1999/xlink" x="0px" y="0px" viewBox="0 0 458.4 458.4"
	 enable-background="new 0 0 458.4 458.4" xml:space="preserve">
<g>
	<path d="M229.2,0C101.7,0,0,101.7,0,229.2c0,125.7,101.7,229.2,229.2,229.2c125.7,0,229.2-101.7,229.2-229.2
		C456.5,101.7,354.9,0,229.2,0z M229.2,425.1c-109,0-197.8-88.7-197.8-195.9c0-109,88.7-197.8,197.8-197.8
		c107.2,0,195.9,88.7,195.9,197.8C425.1,336.4,336.4,425.1,229.2,425.1z"/>
</g>
<g>
	<path d="M132.7,317.5c-1,7.6-0.8,8.6,6,6.7c5.9-1.6,8.6,0.7,11,4.8c3.7,6.4,6.7,13.2,10.9,19.2c2.2,3.1,2.6,7,9.3,7.5
		c5.8-4.7,5.6-8.6,5.5-12.8c-0.2-6.6-3-13.2-4.5-19.8c-1.9-8.5,0.2-14.9,7.6-20.7c13.3-10.5,25.7-22.3,38.4-33.6
		c12.6-11.2,12.8-11.2,22.2,3.5c1.5,2.4,2.9,4.9,4.3,7.3c16.8,28.3,33.5,56.6,50.5,84.8c2.8,4.5,7,8.2,10.6,12.2
		c3.5-5,8.4-9.6,9.9-15.2c1.5-5.5,0.4-12.2-1.1-18c-9.9-36.7-19.6-73.5-30.6-109.8c-4.4-14.6-1.6-24.6,9.9-34.2
		c10.9-9,20.5-19.6,30.3-29.8c10.7-11,16.4-24.5,17.4-39.7c0.7-10.9-1.7-13.1-12.4-13.5c-16.5-0.6-29.6,6.8-40.9,17.8
		c-11.8,11.5-23.5,23.1-34.8,35.1c-6.6,7-13.1,8.9-22.7,6.1c-39.8-11.5-79.8-21.9-119.6-33.3c-10-2.9-17.6-0.4-25.3,5.3
		c-6,4.4-5.4,7.9,0.6,11.4c11.7,6.9,23.3,14,35,21c22.9,13.7,45.9,27,68.6,41.1c9.6,5.9,9.6,7.7,2.7,15.5
		c-11.6,13.2-23.9,25.8-35.3,39.1c-7.9,9.2-16.2,13-28.3,8.6c-6.7-2.5-14.4-3-21.7-3.1c-2.5,0-6.3,3.3-7.3,6c-0.6,1.6,2.7,5.6,5.2,7
		c7.3,4.3,15,8,22.6,11.8C131.7,308.4,136,311.1,132.7,317.5z"/>
</g>
</svg>
