<?xml version="1.0" encoding="utf-8"?>
<!-- Generator: Adobe Illustrator 26.1.0, SVG Export Plug-In . SVG Version: 6.00 Build 0)  -->
<svg version="1.1" id="Layer_1" xmlns="http://www.w3.org/2000/svg" xmlns:xlink="http://www.w3.org/1999/xlink" x="0px" y="0px"
	 viewBox="0 0 24.7 24.7" enable-background="new 0 0 24.7 24.7" xml:space="preserve">
<g>
	<path d="M14.4,17.5c0.6-0.1,1.1-0.2,1.6-0.4c2.3-0.6,3.5-2,3.7-4.3c0.2-1.5,0-2.8-1-4.1c-0.1-0.1-0.1-0.4-0.1-0.6
		c0-0.7,0-1.4-0.1-2.1c0-0.5-0.4-0.7-0.8-0.5c-0.7,0.3-1.4,0.6-2.1,0.9c-0.3,0.2-0.6,0.2-1,0.2c-1.7-0.4-3.3-0.3-5,0
		c-0.3,0.1-0.6,0-0.9-0.1C8.3,6.2,7.7,5.8,7,5.6C6.2,5.3,6,5.5,5.9,6.3c-0.1,0.6,0,1.3,0,1.9c0,0.2,0,0.4-0.1,0.6
		c-1,1.2-1.2,2.6-1,4.1c0.4,2.7,1.8,4,4.5,4.4c0.3,0,0.5,0.1,0.7,0.1c-0.2,0.5-0.4,1-0.6,1.5c-0.1,0.1-0.3,0.2-0.4,0.3
		c-1.2,0.4-2.3,0-3-1c-0.3-0.4-0.8-0.8-1.2-1.2C4.5,17,4,17,3.7,17c-0.1,0.1-0.1,0.2-0.2,0.3c0.2,0.1,0.3,0.2,0.5,0.3
		c0.6,0.4,1,0.9,1.3,1.5c0.7,1.7,2,2.1,3.6,1.9c0.5-0.1,0.6,0,0.6,0.5c0,0.4,0,0.7,0,1.1c0,0.9-0.4,1.2-1.3,0.9
		c-1.2-0.5-2.4-1.1-3.4-1.9C1.5,18.8,0,15.3,0.4,11.2c0.5-5,3.4-8.4,8.2-10C14.9-1,21.9,2.5,23.8,8.8c1.3,4.1,0.4,7.9-2.4,11.2
		c-1.3,1.5-3,2.6-4.9,3.3c-0.9,0.3-1.2,0.1-1.2-0.9c0-0.7,0-1.3,0-2C15.2,19.5,15.3,18.4,14.4,17.5z"/>
</g>
</svg>
