<?xml version="1.0" encoding="utf-8"?>
<!-- Generator: Adobe Illustrator 26.1.0, SVG Export Plug-In . SVG Version: 6.00 Build 0)  -->
<svg version="1.1" id="svg3215" xmlns:svg="http://www.w3.org/2000/svg"
	 xmlns="http://www.w3.org/2000/svg" xmlns:xlink="http://www.w3.org/1999/xlink" x="0px" y="0px" viewBox="0 0 458.4 458.4"
	 enable-background="new 0 0 458.4 458.4" xml:space="preserve">
<g>
	<path d="M229.2,0C101.7,0,0,101.7,0,229.2c0,125.7,101.7,229.2,229.2,229.2c125.7,0,229.2-101.7,229.2-229.2
		C456.5,101.7,354.9,0,229.2,0z M229.2,425.1c-109,0-197.8-88.7-197.8-195.9c0-109,88.7-197.8,197.8-197.8
		c107.2,0,195.9,88.7,195.9,197.8C425.1,336.4,336.4,425.1,229.2,425.1z"/>
</g>
<g>
	<g>
		<g>
			<path d="M286.4,290.8c7.7,5.5,10.2,13,9.5,22.3c-0.6,8.3-0.3,16.6-0.1,24.9c0.1,5.6-2.4,7.5-7.7,7.5c-35.7-0.1-71.4-0.1-107.1,0
				c-4.6,0-6.5-2.1-6.5-6.3c0-10.3-0.8-20.7,0.4-30.9c0.6-4.9,3.9-11,7.9-13.6c8.5-5.6,18.1-9.6,27.5-13.6c7.5-3.2,9.6-8.1,3.1-13.2
				c-13.2-10.4-10-41.8-1.4-52.6c12.3-15.5,37.4-14.4,47.7,2.5c9.3,15.2,7.5,37.5-4.1,51.1c-4.3,5-3.3,9.2,2.8,11.4
				c9.2,3.3,18.4,6.7,27.6,10.1L286.4,290.8z M235.1,337.4c15.1,0,30.1-0.1,45.2,0.1c5.4,0.1,8-2.2,8-7.5c0.3-30.8,3-30-26-40.3
				c-2.4-0.8-5-1-7.2-2.1c-3.5-1.8-9.2-3.7-9.6-6.3c-1.1-5.9-3-13,4-17.7c6.5-4.4,7.9-11.4,7.6-18.7c-0.1-1.8-2-5-3-5
				c-12.4,0.6-24.8-8.3-37.1-0.4c-1.9,1.2-4,3.5-4.3,5.6c-1.1,7.6,2.6,13.3,7.8,18.6c8.8,8.8,5.8,20.3-5.6,24.1
				c-6.9,2.3-13.6,5.2-20.3,8.1c-8.6,3.7-13.7,9.7-12.3,19.9c0.6,4.4,0.4,9,0,13.5c-0.5,6.3,2.1,8.4,8.3,8.3
				C205.4,337.2,220.3,337.4,235.1,337.4z M213.9,231.3c2.9-0.8,5.3-0.9,6.6-2c4.4-4,8-3.3,13.3-1c6.3,2.6,13.7,2.5,21,3.6
				c-0.2-11-6.8-18.2-16-19.3C225.7,211.1,217.3,216.8,213.9,231.3z"/>
			<path d="M291.6,133.7c0.6,31.4-25.6,58.6-57.1,59.2c-32.1,0.7-59.7-24.9-60.4-55.9c-0.8-34.2,24.8-61.5,58.2-62
				C264.5,74.5,290.9,100.7,291.6,133.7z M280.1,134.2c0-26.9-20.3-47.2-47-47.3c-27-0.1-47.8,20.6-47.7,47.6
				c0.1,26.4,21.1,47.2,47.5,47.1C259.3,181.5,280.1,160.7,280.1,134.2z"/>
			<path d="M135.1,346.2c-6.8,0-13.6-0.1-20.4,0c-5.2,0.1-8-2.3-8-7.6c0-10-0.1-20.1,0-30.1c0-7.1,3.9-12.1,9.9-14.9
				c8.4-3.9,17.1-7.2,25.8-10.4c7.1-2.6,7.9-5.6,2.5-11.1c-12.4-12.8-12.1-41.4,0.7-53.9c13.7-13.4,38.3-8.8,45.2,9.3
				c5.9,15.5,7.5,31.2-5.6,45.1c-2.4,2.6-2.5,8.4-2,12.5c0.6,4.9-0.3,5.4-5.2,7c-10,3.1-18.9,4-27.7-2.5
				c-11.1,4.4-22.3,8.6-33.2,13.4c-1.5,0.7-2.4,4.3-2.4,6.7c-0.3,7.5,0,15.1-0.2,22.6c-0.1,4.7,1.9,6.1,6.3,6.1
				c11.6-0.2,23.1-0.3,34.7,0.1c2.4,0.1,4.6,2.4,7,3.7c-2.4,1.3-4.7,3.7-7.1,3.9C148.7,346.5,141.9,346.2,135.1,346.2z M187.9,252.5
				c-1.3-7.2-9.7-13.1-16.6-11.9c-7.6,1.4-15.3,2.2-22.9,3.7c-1.8,0.4-4.9,3.1-4.6,4c1.7,6.1,4,12,6.5,17.9c1.7,4.1,5,7.8,5.8,12.1
				c1.1,5.4,4,8.7,8.8,8.4c4.6-0.3,8.8-2.6,9.6-8.8c0.6-4.1,3.2-8,5.3-11.7C182.3,261.5,185.2,257,187.9,252.5z M184.3,236.2
				c-1.8-12.6-9-18.2-20.8-17.6c-10.2,0.5-16.7,6.7-17.5,18.8c8.4-1.9,16.2-3.8,24-5.3c2.4-0.5,5.1-0.3,7.5,0.3
				C179.6,232.9,181.3,234.5,184.3,236.2z"/>
			<path d="M285.8,290.3c3.3-11.2-3.3-18.8-8.3-27.9c-10.4-18.7,1.2-46.5,19.6-51c18.4-4.5,33.7,6.9,35.8,27.5
				c1.3,12.3,1.1,24.6-9.5,34c-4.4,3.9-2.8,7.8,2.9,9.9c8.7,3.3,17.4,6.4,25.8,10.3c6.8,3.2,10.5,8.7,10.1,16.9
				c-0.5,9.5-0.3,19.1-0.1,28.6c0.1,5.1-2.2,7.4-7.2,7.4c-13.8,0-27.6,0.2-41.4-0.2c-2.2-0.1-4.3-2.4-6.5-3.7
				c2.3-1.3,4.5-3.8,6.8-3.8c11-0.4,22.1-0.4,33.1-0.1c5.7,0.2,7.8-2.3,7.8-7.5c0-3.5,0.1-7,0.1-10.5c0-18.1-1.2-19.7-18.5-26
				c-9.7-3.5-19.3-7.8-29,0.4c-1.4,1.2-5.1,0.2-7.6-0.4c-4.5-1-9-2.3-13.4-3.5C286.4,290.8,285.8,290.3,285.8,290.3z M326.8,252.1
				c-0.6-0.3-1.2-0.6-1.8-0.9c1-5.5-1.7-6.9-6.8-7.1c-5.9-0.3-12.1-0.8-17.7-2.7c-7.1-2.4-13.5,0.7-16.8,4.6
				c-2.3,2.7,0.6,10.1,1.8,15.3c0.5,1.9,3.1,3.3,4.2,5.2c2,3.6,4.5,7.2,5.1,11.1c0.8,5.9,4.4,9.1,9.1,9.1c5.2,0.1,8.9-3.1,9.4-9.5
				c0.3-3.5,2.9-6.9,4.8-10.2C320.9,261.9,323.9,257,326.8,252.1z M323.4,236.7c-1.3-12.4-8.6-18.5-20.2-18.1
				c-10.5,0.3-17.6,7-18,17.1c1.3-0.5,2.7-0.6,3.5-1.4c4.3-4,8.1-3.1,13.4-1C308.5,235.9,316,235.7,323.4,236.7z"/>
			<path d="M99,206.1c0-17.8-0.1-35.7,0-53.5c0.1-13.1,7.9-21.4,20.8-21.7c12.6-0.3,25.1-0.1,37.7-0.1c4.7,0,9,1.1,8.9,6.7
				c-0.1,5.7-4.7,6.6-9.2,6.6c-11.3,0.1-22.6,0-33.9,0.1c-9,0.1-10.9,1.8-10.9,10.5c-0.1,31.9,0.1,63.8-0.1,95.7
				c0,5.9,1.6,8.9,8.1,8.8c4.5-0.1,8.9,1.4,8.6,7.2c-0.3,6.1-5.1,5.9-9.4,6C99,273,99,273,99,252.8C99,237.2,99,221.6,99,206.1z"/>
			<path d="M369,207.4c0,17.8,0.1,35.7,0,53.5c-0.1,9.5-2,11.4-11.6,11.5c-3.3,0-6.8,0.8-9.7-0.3c-2.7-1-4.7-4.1-7-6.2
				c2-2.2,4-6.1,6.1-6.2c8.3-0.2,8.9-4.8,8.9-11.4c-0.2-30.6-0.1-61.3-0.1-91.9c0-10.7-1.5-12.1-12.3-12.1c-10.8,0-21.6,0-32.4,0
				c-5,0-10.5-0.4-10.4-6.9c0.1-5.9,5.3-6.5,10.1-6.5c11.6,0,23.1-0.1,34.7,0c15.3,0.1,23.6,8.3,23.8,23.9
				C369.1,172.2,369,189.8,369,207.4z"/>
			<path d="M228.9,160c-2.4-1.3-4.7-2-6.2-3.5c-6.5-6.3-13.2-12.4-19-19.3c-1.7-2.1-1.8-7.3-0.4-9.7c2.6-4.2,6.7-2.2,9.6,0.6
				c3.7,3.4,7.4,6.8,10.7,10.6c3.8,4.3,6.7,3.8,10.5-0.2c7.4-7.8,15.2-15.3,22.8-23c3.4-3.4,7.2-6.5,11.7-2.4
				c4.5,4.3,1.3,8.4-1.9,11.7c-10.2,10.4-20.5,20.8-30.9,31C234,157.6,231.4,158.6,228.9,160z"/>
		</g>
	</g>
</g>
</svg>
