<?xml version="1.0" encoding="utf-8"?>
<!-- Generator: Adobe Illustrator 26.1.0, SVG Export Plug-In . SVG Version: 6.00 Build 0)  -->
<svg version="1.1" id="svg3215" xmlns:svg="http://www.w3.org/2000/svg"
	 xmlns="http://www.w3.org/2000/svg" xmlns:xlink="http://www.w3.org/1999/xlink" x="0px" y="0px" viewBox="0 0 458.4 458.4"
	 enable-background="new 0 0 458.4 458.4" xml:space="preserve">
<g>
	<path d="M229.2,0C101.7,0,0,101.7,0,229.2c0,125.7,101.7,229.2,229.2,229.2c125.7,0,229.2-101.7,229.2-229.2
		C456.5,101.7,354.9,0,229.2,0z M229.2,425.1c-109,0-197.8-88.7-197.8-195.9c0-109,88.7-197.8,197.8-197.8
		c107.2,0,195.9,88.7,195.9,197.8C425.1,336.4,336.4,425.1,229.2,425.1z"/>
</g>
<g>
	<g>
		<path d="M105.6,237.4c0-25.3,0.5-50.7-0.2-76c-0.3-11.5,3.5-18,14.6-21.9c32.5-11.5,64.6-24.3,97.2-35.4c6.9-2.4,16-2,23,0.4
			c32.6,11.2,64.7,23.9,97.2,35.5c10.4,3.7,14.1,10.2,14,20.7c-0.2,50.6-0.3,101.3,0,151.9c0.1,12.7-4.7,17.6-17.5,20.1
			c-70.9,13.7-141.5,13.6-212.3-0.1c-12-2.3-16.6-6.9-16.3-19.1C106.1,288,105.6,262.7,105.6,237.4z M336.3,268.8
			c-40.9,6.3-43.9,3.7-48.1-37c-0.5-4.5-4.6-10.5-8.6-12.3c-13.4-6-16.7-2.4-16.4,18.8c0.2,14.7-0.6,28.3-18,32.7
			c-15.2,3.9-23.7-4.7-30.1-16.9c-0.3-0.5-2-0.3-3-0.4c-16,24.7-28.9,24.6-50.3-1.5c-7.2,20.5-22,23.1-39.8,16.4
			c-6.1,35.7-4.5,35.9,29,40.5c52.9,7.3,105.4,6.1,158.2-0.3c28.5-3.4,28.7-2.1,28-30C337.1,275.5,336.6,272.2,336.3,268.8z
			 M333.4,204.8c1.8-1.9,3.6-3.8,5.4-5.7c-4.7-4.3-8.7-10.4-14.2-12.6c-28.3-11.1-57-21.4-85.7-31.6c-4.6-1.7-10.6-3.4-14.8-1.9
			c-32,11.1-63.9,22.7-95.5,35.1c-3.9,1.5-5.8,8.4-8.6,12.8c1.5,1.1,3,2.3,4.5,3.4c29.6-10.8,59-22.3,89-31.9c9-2.9,20.4-3,29.4-0.1
			C273.3,182.1,303.2,193.8,333.4,204.8z"/>
	</g>
</g>
</svg>
