<?xml version="1.0" encoding="utf-8"?>
<!-- Generator: Adobe Illustrator 26.1.0, SVG Export Plug-In . SVG Version: 6.00 Build 0)  -->
<svg version="1.1" id="Layer_1" xmlns="http://www.w3.org/2000/svg" xmlns:xlink="http://www.w3.org/1999/xlink" x="0px" y="0px"
	 viewBox="0 0 500 500" enable-background="new 0 0 500 500" xml:space="preserve">
<path d="M245.2,261.9c-4.8,1-10.7,1.9-15.5,1.9c-5.8,0-9.7-4.8-7.7-9.7c0,0,27.1-113.3-31-127.8c-33.9-8.7-74.6,28.1-92.9,96.8
	c0,1-20.3,76.5,6.8,120.1c8.7,13.6,23.2,23.2,40.7,24.2c3.9,0,7.7,0,11.6,0l0,0c54.2-7.7,84.2-77.5,92.9-99.7
	C250,263.9,248.1,261,245.2,261.9z"/>
<path d="M253.9,237.7c4.8-1,10.7-1.9,15.5-1.9c5.8,0,9.7,4.8,7.7,9.7c0,0-27.1,113.3,31,127.8c33.9,8.7,74.6-28.1,92.9-96.8
	c0-1,20.3-76.5-6.8-120.1c-8.7-13.6-23.2-23.2-40.7-24.2c-3.9,0-5.8,0-7.7,0H342c-54.2,7.7-84.2,77.5-92.9,99.7
	C248.1,235.8,250,238.7,253.9,237.7z"/>
<g>
	<path d="M250,0C111.9,0,0,111.9,0,250s111.9,250,250,250s250-111.9,250-250S388.1,0,250,0z M250,458.9
		c-115.2,0-208.9-93.7-208.9-208.9S134.8,41.1,250,41.1S458.9,134.8,458.9,250S365.2,458.9,250,458.9z"/>
</g>
</svg>
