<?xml version="1.0" encoding="utf-8"?>
<!-- Generator: Adobe Illustrator 26.1.0, SVG Export Plug-In . SVG Version: 6.00 Build 0)  -->
<svg version="1.1" id="svg3215" xmlns:svg="http://www.w3.org/2000/svg"
	 xmlns="http://www.w3.org/2000/svg" xmlns:xlink="http://www.w3.org/1999/xlink" x="0px" y="0px" viewBox="0 0 458.4 458.4"
	 enable-background="new 0 0 458.4 458.4" xml:space="preserve">
<g>
	<path d="M229.2,0C101.7,0,0,101.7,0,229.2c0,125.7,101.7,229.2,229.2,229.2c125.7,0,229.2-101.7,229.2-229.2
		C456.5,101.7,354.9,0,229.2,0z M229.2,425.1c-109,0-197.8-88.7-197.8-195.9c0-109,88.7-197.8,197.8-197.8
		c107.2,0,195.9,88.7,195.9,197.8C425.1,336.4,336.4,425.1,229.2,425.1z"/>
</g>
<g>
	<g>
		<g>
			<g>
				<g>
					<path d="M156.6,333.4c30.7,0,60.7,0,91.5,0c-6.6-8.7-13-14.4-24.4-13.5c-14.9,1.1-30,1.1-44.9,0
						C167.6,319,161.9,324.5,156.6,333.4z M122.7,225.9c0-6.4,0.1-12.9-0.1-19.3c-0.1-1.9-0.7-4.8-2-5.5c-1.4-0.7-4.2,0.2-5.8,1.3
						c-2.1,1.3-3.9,3.3-5.4,5.4c-6.9,9.3-9.6,20.1-10.7,31.3c-1.2,12.3-0.8,12.5,11.7,12.5c1.9,0,3.9-0.1,5.8,0
						c4.6,0.3,6.7-1.6,6.5-6.3C122.6,238.8,122.7,232.3,122.7,225.9z M130.7,225.3c0,3-0.1,6,0,9c0.4,19.8-3.8,17,18.8,17.2
						c0.2,0,0.4,0,0.6,0c3.6,0,5.2-2.1,4.6-5.4c-1.9-9.8-3.5-19.8-6.6-29.3c-1.6-5-5.7-9.4-9.3-13.6c-1.2-1.5-4.2-2.2-6.2-1.9
						c-0.9,0.1-1.8,3.5-1.9,5.4C130.6,212.9,130.7,219.1,130.7,225.3z M96.9,208.5c-14.3,5.8-28.6,28.1-26.1,43
						c4.1,0,8.3-0.2,12.6,0c4.3,0.2,6.1-1.9,6.8-5.9C92.4,233.1,94.7,220.6,96.9,208.5z M155.1,207.6c2.5,10.8,5.2,21.2,7.2,31.8
						c2.4,12.9,2.1,12.8,15.4,12.2c4.4-0.2,5.5-1.8,4.6-6C178.9,228.7,169.7,216.1,155.1,207.6z M204.7,311.1
						c-4.1-8.1-18.9-10.5-27.5-6C184.6,315.2,194.7,308.9,204.7,311.1z M397.5,345.7c-98.7,0-224.8,0-323.5,0l-6.9-11.5
						c15.6-0.2,31.7-0.2,47.3-0.2c4.8,0.2,6.2-1.4,6.2-6.2c-0.5-20.6-0.5-41.5,0-62.4c0-5-1.8-6-6.4-6c-14,0.2-28.2,0.2-42.4,0
						c-3.4,0-7.1-0.9-10.6-1.4c0-3.9,0-7.6,0-11.5c4.1-17.7,12.6-32.1,27.5-42.9c26.2-18.8,66.1-14,87,10.6
						c9.2,10.6,14.2,22.5,15.6,36c0.7,7.8-0.9,9.2-8.5,9.2c-14.5,0.2-28.9,0.2-43.1,0c-5.5,0-7.8,1.6-7.8,7.3
						c0.2,20,0,39.9,0.2,59.9c0.2,2.5,1.8,6.7,3,6.7c2.8,0.5,6.2-0.7,8.5-2.3c3.4-2.5,6-6.2,7.8-8.3c-1.6-3.4-2.8-6-3.9-8.5
						c2.8-1.1,5.3-3,8-3.4c3.4-0.5,7.1,0,12.6,0c-7.6-8.5-13.5-15.6-20-22.5c-2.8-3.2-3.4-5.7,0.2-8.5c3.9-3.4,5.7-0.2,7.6,2.3
						c5.7,7.8,12.6,12.6,22.9,10.8c2.3-0.5,4.6,0.2,7.1-0.2c13.1-1.8,23.4,1.4,29.6,14.2c0.9,2.1,5,3.9,7.6,3.7
						c12.8-1.8,22.9,2.8,30.5,13.1c6.2,8.7,14.7,11.9,25.2,10.6c5.3-0.7,10.6-0.5,16.1-0.2c4.1,0.2,6.2-1.6,7.3-5.5
						c13.3-38.8,21.6-78.2,18.8-119.3c-0.7-10.1-3.4-19.7-5.3-30.5c-11.2,3.9-17.4,11.2-22.5,19.7c-9.6,16.7-11.9,35.3-14.2,53.9
						c-0.2,1.4-0.2,3-0.5,4.4c-0.2,0.5-0.7,0.7-1.4,1.8c-6.2-12.2-9.4-24.5-11-37.4c-1.4-13.3,1.8-25.5,7.8-38.5
						c-16.7,2.1-28,12.4-40.2,21.3c2.8-19.5,28-37.6,57.8-41.8c-4.4-4.1-15.4-7.3-26.8-6.9c-9.6,0.5-19,1.8-28.9,2.1
						c9.9-10.6,20.4-19.5,35.3-22c15.6-2.5,27.5,5.3,40.8,14.7c-0.2-9.9-2.1-17.9-5.5-25.5c-2.5-5.7-5.3-11.5-8-17.4
						c10.1,3.2,20.2,7.6,24.3,17.4c3.9,9.4,4.8,20,7.1,29.8c3.7-2.1,8-4.6,12.4-6.7c20.2-10.1,43.1-4.1,55.5,14.9
						c5,7.6,8.3,16.3,12.4,24.5c0,1.4,0,2.8,0,3.9c-3.2-2.3-6.2-4.6-9.2-7.1c-16.5-12.6-34.6-20.6-56-18.6c-3,0.2-6,1.1-8.7,1.6
						c16.5,8.3,32.1,16.1,41.5,32.3c8,14.2,5.5,41.1-5,49.8c-6-11.7-11.5-23.4-17.7-34.9c-8.5-15.8-19-27.5-26.2-28.9
						c16.5,49.1,10.1,98.4,0.9,148.2c2.8,0.2,4.8,0.5,6.9,0.5c10.1,0,56.2,0.2,66.3,0c0.5,0,0.9,0,1.1,0L397.5,345.7z"/>
					<path d="M161.4,141.4c0.1-11.5,8.6-20.2,19.8-20.1c11.6,0.1,20.4,8.8,20.4,20.4c0,11-9.5,20.3-20.7,20.2
						C169.9,161.8,161.3,152.7,161.4,141.4z"/>
					<path d="M186,112.2c-1.8,1.9-3.1,3.2-4.4,4.6c-1-1.7-2.9-3.3-2.8-5c0-1.6,2-3.2,3.1-4.8C183.1,108.6,184.3,110.1,186,112.2z"/>
					<path d="M210.8,146.1c-1.9-1.7-3.3-2.9-4.7-4.2c1.6-1,3.2-2.9,4.9-2.9c1.6,0,3.2,1.8,4.8,2.9
						C214.3,143.1,212.9,144.4,210.8,146.1z"/>
					<path d="M165.6,172.8c-1.7-1.9-3.2-3.1-3-3.4c1.3-2.5,3-4.7,4.6-7.1c0.9,0.7,2.7,1.8,2.5,2.1
						C168.6,167,167.2,169.5,165.6,172.8z"/>
					<path d="M161.9,154.9c-3.6,2.1-5.7,3.6-8.1,4.4c-0.6,0.2-2-1.5-3-2.3c2-1.6,3.9-3.4,6.1-4.6
						C157.6,152.1,159.1,153.4,161.9,154.9z"/>
					<path d="M195,162c1.5,2.6,3,5.2,4.3,7.9c0,0.1-2.6,1.7-2.7,1.6c-1.8-2.4-3.4-4.9-5.1-7.4C192.6,163.4,193.8,162.7,195,162z"/>
					<path d="M167.3,120.6c-1.2-2.7-2.4-5.5-3.6-8.2c0.9-0.4,2.5-1.3,2.6-1.1c1.7,2.4,3.3,4.9,4.9,7.5
						C169.8,119.4,168.5,120,167.3,120.6z"/>
					<path d="M197.7,110.6c1.2,2.2,2.4,3.6,2.1,4.1c-1.4,2.2-3.2,4.1-4.8,6.2c-0.7-1.1-2.1-2.6-1.8-3.3
						C194.1,115.4,195.7,113.5,197.7,110.6z"/>
					<path d="M152.1,144.8c-2.1-1.4-3.5-2.4-5-3.4c1.6-1,3.1-2.6,4.8-2.7c1.5-0.1,3.1,1.4,4.7,2.2
						C155.2,142.1,153.8,143.3,152.1,144.8z"/>
					<path d="M212.9,157.6c-2.4,1.4-3.7,2.7-4.2,2.5c-2.2-1.4-4.2-3.1-6.3-4.7c0.9-0.7,2.1-2.3,2.6-2.1
						C207.4,154.3,209.6,155.7,212.9,157.6z"/>
					<path d="M184.5,170.8c-1.3,1.8-2.4,3.2-3.4,4.5c-0.9-1.6-2.5-3.2-2.6-4.9c-0.1-1.4,1.7-2.8,2.6-4.2
						C182.1,167.6,183.1,169,184.5,170.8z"/>
					<path d="M154.3,121.7c2.3,2.1,4.2,3.9,6.2,5.6c-1,0.8-2.5,2.5-2.8,2.3c-2.1-1.4-4.1-3.1-5.9-4.8
						C151.7,124.8,153.1,123.2,154.3,121.7z"/>
					<path d="M213,126.5c-3.3,1.7-5.6,3-8,3.9c-0.4,0.2-1.5-1.4-2.3-2.2c2.1-1.5,4.2-3.2,6.5-4.4C209.6,123.6,210.9,125,213,126.5z"
						/>
				</g>
			</g>
		</g>
	</g>
</g>
</svg>
