<?xml version="1.0" encoding="utf-8"?>
<!-- Generator: Adobe Illustrator 26.1.0, SVG Export Plug-In . SVG Version: 6.00 Build 0)  -->
<svg version="1.1" id="Layer_1" xmlns="http://www.w3.org/2000/svg" xmlns:xlink="http://www.w3.org/1999/xlink" x="0px" y="0px"
	 viewBox="0 0 24.7 24.7" enable-background="new 0 0 24.7 24.7" xml:space="preserve">
<path fill="#010101" d="M12.4,1.6C18.2,1.6,23,6.4,23,12.3C23,18.2,18.2,23,12.4,23C6.5,23,1.7,18.2,1.7,12.3
	C1.7,6.4,6.5,1.6,12.4,1.6 M12.4-0.1C5.5-0.1,0,5.5,0,12.3s5.5,12.4,12.4,12.4c6.8,0,12.4-5.5,12.4-12.4S19.2-0.1,12.4-0.1L12.4-0.1
	z"/>
<g>
	<path fill="#010101" d="M18,13.9l-5.8-5.5l-5.5,5.5c0,0,0,1.7,0,3.7c0,2,3.7,1.9,3.7,1.9l0-3.6l4,0l0,3.6c4,0.1,3.6-1.8,3.6-1.8
		L18,13.9z"/>
	<path fill="#010101" d="M19.9,11.6c-1-1.1-6.5-6.1-6.5-6.1s-1.4-1.1-2.6,0c-1.2,1.1-5.8,5.5-5.8,5.5s-1.4,1.2,0.2,2.5l6.9-6.7
		l7.2,6.8C19.3,13.5,20.9,12.7,19.9,11.6z"/>
</g>
</svg>
