<?xml version="1.0" encoding="utf-8"?>
<!-- Generator: Adobe Illustrator 26.1.0, SVG Export Plug-In . SVG Version: 6.00 Build 0)  -->
<svg version="1.1" id="svg3215" xmlns:svg="http://www.w3.org/2000/svg"
	 xmlns="http://www.w3.org/2000/svg" xmlns:xlink="http://www.w3.org/1999/xlink" x="0px" y="0px" viewBox="0 0 458.4 458.4"
	 enable-background="new 0 0 458.4 458.4" xml:space="preserve">
<g>
	<path d="M229.2,0C101.7,0,0,101.7,0,229.2c0,125.7,101.7,229.2,229.2,229.2c125.7,0,229.2-101.7,229.2-229.2
		C456.5,101.7,354.9,0,229.2,0z M229.2,425.1c-109,0-197.8-88.7-197.8-195.9c0-109,88.7-197.8,197.8-197.8
		c107.2,0,195.9,88.7,195.9,197.8C425.1,336.4,336.4,425.1,229.2,425.1z"/>
</g>
<g>
	<g>
		<g>
			<path fill="#FFFFFF" d="M517.9,231.6c-0.4,0-0.7-0.1-0.9-0.2s-0.4-0.3-0.5-0.6c-0.1-0.2-0.2-0.6-0.2-0.9v-2h-0.7
				c-0.1,0-0.1,0-0.2-0.1s-0.1-0.1-0.1-0.2v-0.5c0-0.1,0-0.1,0.1-0.2c0,0,0.1-0.1,0.2-0.1h0.7v-1.5c0-0.1,0-0.1,0.1-0.2
				c0,0,0.1-0.1,0.2-0.1h0.7c0.1,0,0.1,0,0.2,0.1c0,0,0.1,0.1,0.1,0.2v1.5h1.1c0.1,0,0.1,0,0.2,0.1c0,0,0.1,0.1,0.1,0.2v0.5
				c0,0.1,0,0.1-0.1,0.2s-0.1,0.1-0.2,0.1h-1.1v2c0,0.2,0,0.4,0.1,0.6c0.1,0.1,0.2,0.2,0.5,0.2h0.6c0.1,0,0.1,0,0.2,0.1
				s0.1,0.1,0.1,0.2v0.6c0,0.1,0,0.1-0.1,0.2s-0.1,0.1-0.2,0.1H517.9z"/>
			<path fill="#FFFFFF" d="M519.8,231.6c-0.1,0-0.1,0-0.2-0.1c0,0-0.1-0.1-0.1-0.2v-4.2c0-0.1,0-0.1,0.1-0.2c0,0,0.1-0.1,0.2-0.1
				h0.7c0.1,0,0.1,0,0.2,0.1c0,0,0.1,0.1,0.1,0.2v0.4c0.1-0.2,0.3-0.3,0.5-0.4s0.5-0.2,0.8-0.2h0.4c0.1,0,0.1,0,0.2,0.1
				c0,0,0.1,0.1,0.1,0.2v0.7c0,0.1,0,0.1-0.1,0.2s-0.1,0.1-0.2,0.1h-0.7c-0.3,0-0.5,0.1-0.7,0.2c-0.2,0.2-0.2,0.4-0.2,0.7v2.5
				c0,0.1,0,0.1-0.1,0.2s-0.1,0.1-0.2,0.1H519.8z"/>
			<path fill="#FFFFFF" d="M524.7,231.7c-0.3,0-0.6-0.1-0.8-0.2c-0.3-0.1-0.5-0.3-0.6-0.5c-0.1-0.2-0.2-0.4-0.2-0.7
				c0-0.4,0.2-0.8,0.5-1c0.3-0.2,0.8-0.4,1.3-0.5l1.2-0.2v-0.2c0-0.3-0.1-0.4-0.2-0.6c-0.1-0.1-0.3-0.2-0.6-0.2
				c-0.2,0-0.4,0-0.5,0.1c-0.1,0.1-0.2,0.2-0.3,0.3c0,0.1-0.1,0.1-0.2,0.1h-0.7c-0.1,0-0.1,0-0.1-0.1s0-0.1,0-0.1
				c0-0.1,0-0.2,0.1-0.4c0.1-0.1,0.2-0.3,0.3-0.4c0.2-0.1,0.4-0.2,0.6-0.3c0.2-0.1,0.5-0.1,0.9-0.1c0.4,0,0.7,0,1,0.1
				c0.3,0.1,0.5,0.2,0.6,0.4s0.3,0.3,0.3,0.5c0.1,0.2,0.1,0.4,0.1,0.7v2.8c0,0.1,0,0.1-0.1,0.2s-0.1,0.1-0.2,0.1h-0.7
				c-0.1,0-0.1,0-0.2-0.1s-0.1-0.1-0.1-0.2v-0.4c-0.1,0.1-0.2,0.2-0.3,0.3c-0.1,0.1-0.3,0.2-0.5,0.2
				C525.2,231.7,525,231.7,524.7,231.7z M525.1,230.9c0.2,0,0.4,0,0.6-0.1c0.2-0.1,0.3-0.2,0.4-0.4c0.1-0.2,0.1-0.4,0.1-0.7v-0.2
				l-0.9,0.1c-0.4,0.1-0.6,0.1-0.8,0.3c-0.2,0.1-0.3,0.3-0.3,0.4c0,0.1,0,0.2,0.1,0.3c0.1,0.1,0.2,0.2,0.3,0.2
				C524.8,230.8,524.9,230.9,525.1,230.9z"/>
			<path fill="#FFFFFF" d="M528.8,231.6c-0.1,0-0.1,0-0.2-0.1s-0.1-0.1-0.1-0.2v-4.3c0-0.1,0-0.1,0.1-0.2c0,0,0.1-0.1,0.2-0.1h0.7
				c0.1,0,0.1,0,0.2,0.1c0,0,0.1,0.1,0.1,0.2v0.4c0.2-0.2,0.4-0.4,0.6-0.5c0.2-0.1,0.5-0.2,0.9-0.2c0.4,0,0.7,0.1,1,0.2
				c0.3,0.2,0.5,0.4,0.6,0.7c0.1,0.3,0.2,0.7,0.2,1.1v2.5c0,0.1,0,0.1-0.1,0.2c0,0-0.1,0.1-0.2,0.1H532c-0.1,0-0.1,0-0.2-0.1
				c0,0-0.1-0.1-0.1-0.2v-2.5c0-0.3-0.1-0.6-0.3-0.8c-0.2-0.2-0.4-0.3-0.7-0.3c-0.3,0-0.6,0.1-0.8,0.3c-0.2,0.2-0.3,0.5-0.3,0.8v2.5
				c0,0.1,0,0.1-0.1,0.2c0,0-0.1,0.1-0.2,0.1H528.8z"/>
			<path fill="#FFFFFF" d="M535.9,231.7c-0.4,0-0.7,0-0.9-0.1s-0.5-0.2-0.6-0.3c-0.2-0.1-0.3-0.3-0.4-0.4c-0.1-0.1-0.1-0.2-0.1-0.3
				c0-0.1,0-0.1,0.1-0.2s0.1-0.1,0.1-0.1h0.7c0,0,0,0,0.1,0c0,0,0,0,0.1,0.1c0.1,0.1,0.2,0.1,0.2,0.2c0.1,0.1,0.2,0.1,0.3,0.2
				c0.1,0.1,0.3,0.1,0.5,0.1c0.2,0,0.4,0,0.6-0.1c0.2-0.1,0.2-0.2,0.2-0.4c0-0.1,0-0.2-0.1-0.3c-0.1-0.1-0.2-0.1-0.4-0.2
				c-0.2-0.1-0.5-0.1-0.8-0.2c-0.3-0.1-0.6-0.2-0.8-0.3s-0.4-0.3-0.5-0.5c-0.1-0.2-0.2-0.4-0.2-0.6c0-0.2,0.1-0.5,0.2-0.7
				c0.1-0.2,0.4-0.4,0.6-0.5c0.3-0.1,0.6-0.2,1-0.2c0.3,0,0.6,0,0.8,0.1c0.2,0.1,0.4,0.2,0.6,0.3c0.2,0.1,0.3,0.2,0.4,0.4
				c0.1,0.1,0.1,0.2,0.1,0.3c0,0.1,0,0.1-0.1,0.2s-0.1,0.1-0.1,0.1H537c0,0-0.1,0-0.1,0c0,0,0,0-0.1,0c-0.1-0.1-0.1-0.1-0.2-0.2
				c-0.1-0.1-0.2-0.1-0.3-0.2c-0.1-0.1-0.3-0.1-0.4-0.1c-0.2,0-0.4,0-0.5,0.1c-0.1,0.1-0.2,0.2-0.2,0.4c0,0.1,0,0.2,0.1,0.3
				c0.1,0.1,0.2,0.1,0.3,0.2c0.2,0.1,0.4,0.1,0.8,0.2c0.4,0.1,0.7,0.2,1,0.3c0.2,0.1,0.4,0.3,0.5,0.5c0.1,0.2,0.1,0.4,0.1,0.6
				c0,0.3-0.1,0.5-0.2,0.7c-0.2,0.2-0.4,0.4-0.7,0.5S536.4,231.7,535.9,231.7z"/>
			<path fill="#FFFFFF" d="M539.7,231.6c-0.1,0-0.1,0-0.2-0.1c0,0-0.1-0.1-0.1-0.2v-3.5h-0.7c-0.1,0-0.1,0-0.2-0.1
				c0,0-0.1-0.1-0.1-0.2v-0.5c0-0.1,0-0.1,0.1-0.2c0,0,0.1-0.1,0.2-0.1h0.7v-0.4c0-0.4,0.1-0.7,0.2-0.9s0.3-0.4,0.6-0.5
				c0.3-0.1,0.6-0.2,1-0.2h0.6c0.1,0,0.1,0,0.2,0.1s0.1,0.1,0.1,0.2v0.5c0,0.1,0,0.1-0.1,0.2s-0.1,0.1-0.2,0.1h-0.6
				c-0.2,0-0.4,0.1-0.5,0.2c-0.1,0.1-0.1,0.3-0.1,0.5v0.3h1.1c0.1,0,0.1,0,0.2,0.1c0,0,0.1,0.1,0.1,0.2v0.5c0,0.1,0,0.1-0.1,0.2
				s-0.1,0.1-0.2,0.1h-1.1v3.5c0,0.1,0,0.1-0.1,0.2s-0.1,0.1-0.2,0.1H539.7z"/>
			<path fill="#FFFFFF" d="M544.7,231.7c-0.7,0-1.2-0.2-1.6-0.6c-0.4-0.4-0.6-0.9-0.6-1.6c0-0.1,0-0.1,0-0.2c0-0.1,0-0.2,0-0.2
				c0-0.5,0.1-0.8,0.3-1.2c0.2-0.3,0.4-0.6,0.8-0.8s0.7-0.3,1.1-0.3c0.5,0,0.9,0.1,1.2,0.3c0.3,0.2,0.6,0.5,0.7,0.8s0.3,0.8,0.3,1.2
				v0.2c0,0.1,0,0.1-0.1,0.2s-0.1,0.1-0.2,0.1h-3c0,0,0,0.1,0,0.1c0,0.2,0,0.4,0.1,0.6c0.1,0.2,0.2,0.3,0.3,0.4
				c0.1,0.1,0.3,0.2,0.5,0.2c0.2,0,0.3,0,0.4-0.1s0.2-0.1,0.3-0.2s0.1-0.1,0.2-0.2c0.1-0.1,0.1-0.1,0.1-0.1c0,0,0.1,0,0.1,0h0.8
				c0.1,0,0.1,0,0.1,0.1s0.1,0.1,0.1,0.1c0,0.1-0.1,0.2-0.1,0.4c-0.1,0.1-0.2,0.3-0.4,0.4c-0.2,0.1-0.4,0.2-0.7,0.3
				C545.4,231.7,545.1,231.7,544.7,231.7z M543.7,228.9h2v0c0-0.2,0-0.4-0.1-0.6s-0.2-0.3-0.3-0.4s-0.3-0.2-0.5-0.2
				s-0.4,0.1-0.5,0.2s-0.3,0.2-0.3,0.4C543.8,228.4,543.7,228.6,543.7,228.9L543.7,228.9z"/>
			<path fill="#FFFFFF" d="M548.1,231.6c-0.1,0-0.1,0-0.2-0.1c0,0-0.1-0.1-0.1-0.2v-4.2c0-0.1,0-0.1,0.1-0.2c0,0,0.1-0.1,0.2-0.1
				h0.7c0.1,0,0.1,0,0.2,0.1c0,0,0.1,0.1,0.1,0.2v0.4c0.1-0.2,0.3-0.3,0.5-0.4s0.5-0.2,0.8-0.2h0.4c0.1,0,0.1,0,0.2,0.1
				c0,0,0.1,0.1,0.1,0.2v0.7c0,0.1,0,0.1-0.1,0.2s-0.1,0.1-0.2,0.1H550c-0.3,0-0.5,0.1-0.7,0.2c-0.2,0.2-0.2,0.4-0.2,0.7v2.5
				c0,0.1,0,0.1-0.1,0.2s-0.1,0.1-0.2,0.1H548.1z"/>
			<path fill="#FFFFFF" d="M553.4,231.7c-0.4,0-0.7,0-0.9-0.1s-0.5-0.2-0.6-0.3c-0.2-0.1-0.3-0.3-0.4-0.4c-0.1-0.1-0.1-0.2-0.1-0.3
				c0-0.1,0-0.1,0.1-0.2s0.1-0.1,0.1-0.1h0.7c0,0,0,0,0.1,0c0,0,0,0,0.1,0.1c0.1,0.1,0.2,0.1,0.2,0.2c0.1,0.1,0.2,0.1,0.3,0.2
				c0.1,0.1,0.3,0.1,0.5,0.1c0.2,0,0.4,0,0.6-0.1c0.2-0.1,0.2-0.2,0.2-0.4c0-0.1,0-0.2-0.1-0.3c-0.1-0.1-0.2-0.1-0.4-0.2
				c-0.2-0.1-0.5-0.1-0.8-0.2c-0.3-0.1-0.6-0.2-0.8-0.3s-0.4-0.3-0.5-0.5c-0.1-0.2-0.2-0.4-0.2-0.6c0-0.2,0.1-0.5,0.2-0.7
				c0.1-0.2,0.4-0.4,0.6-0.5c0.3-0.1,0.6-0.2,1-0.2c0.3,0,0.6,0,0.8,0.1c0.2,0.1,0.4,0.2,0.6,0.3c0.2,0.1,0.3,0.2,0.4,0.4
				c0.1,0.1,0.1,0.2,0.1,0.3c0,0.1,0,0.1-0.1,0.2s-0.1,0.1-0.1,0.1h-0.7c0,0-0.1,0-0.1,0c0,0,0,0-0.1,0c-0.1-0.1-0.1-0.1-0.2-0.2
				c-0.1-0.1-0.2-0.1-0.3-0.2c-0.1-0.1-0.3-0.1-0.4-0.1c-0.2,0-0.4,0-0.5,0.1c-0.1,0.1-0.2,0.2-0.2,0.4c0,0.1,0,0.2,0.1,0.3
				c0.1,0.1,0.2,0.1,0.3,0.2c0.2,0.1,0.4,0.1,0.8,0.2c0.4,0.1,0.7,0.2,1,0.3c0.2,0.1,0.4,0.3,0.5,0.5c0.1,0.2,0.1,0.4,0.1,0.6
				c0,0.3-0.1,0.5-0.2,0.7c-0.2,0.2-0.4,0.4-0.7,0.5S553.9,231.7,553.4,231.7z"/>
		</g>
	</g>
	<g>
		<path fill="#DAB429" d="M804.9,158.8c0-7.9,6.4-14.2,14.3-14.1c7.8,0.1,14.1,6.5,14.1,14.3c0,7.8-6.4,14.1-14.2,14.1
			C811.2,173,804.8,166.7,804.9,158.8z M832.4,158.8c0-7.4-6-13.3-13.4-13.3c-7.4,0-13.3,6-13.3,13.4c0,7.4,6,13.3,13.4,13.3
			C826.5,172.2,832.4,166.2,832.4,158.8z"/>
		<g>
			<g>
				<path fill="#DAB429" d="M830.3,161.1c-0.1,0.3-0.3,0.5-0.7,0.5c-0.4,0-0.7-0.3-0.7-0.7c0-1.1-0.3-2.1-1-2.9
					c-0.9-1.2-2.1-1.8-3.6-1.9c-2.3,0-4.5,0-6.8,0c0,0,0,0-0.1,0c0,0.1,0,0.2,0,0.2c0,0.9,0,1.8,0,2.7c0,0.5-0.3,0.8-0.8,0.8
					c-0.1,0-0.3-0.1-0.4-0.2c-1.7-1.6-3.4-3.2-5-4.8c-0.3-0.3-0.3-0.7,0-1c1.7-1.6,3.3-3.2,5-4.8c0.2-0.2,0.5-0.3,0.8-0.2
					c0.3,0.1,0.4,0.4,0.4,0.7c0,0.9,0,1.8,0,2.6c0,0.1,0,0.2,0,0.3c0.1,0,0.2,0,0.3,0c2,0,3.9,0,5.9,0c2,0.1,3.6,0.9,5,2.4
					c1,1.1,1.6,2.5,1.8,4c0,0,0,0.1,0,0.1C830.3,159.7,830.3,160.4,830.3,161.1z"/>
				<path fill="#DAB429" d="M821.1,161.6c0-0.1,0-0.2,0-0.3c0-0.9,0-1.8,0-2.7c0-0.5,0.4-0.8,0.8-0.7c0.2,0,0.3,0.1,0.4,0.3
					c1.5,1.5,3.1,2.9,4.6,4.4c0.1,0.1,0.2,0.2,0.3,0.3c0.4,0.4,0.4,0.8,0,1.1c-1.1,1-2.1,2.1-3.2,3.1c-0.6,0.6-1.2,1.1-1.8,1.7
					c-0.4,0.3-0.8,0.3-1.1-0.1c-0.1-0.1-0.1-0.4-0.1-0.5c0-0.9,0-1.7,0-2.6c0-0.1,0-0.2,0-0.3c-0.1,0-0.2,0-0.3,0c-2,0-3.9,0-5.9,0
					c-2-0.1-3.6-0.9-5-2.4c-1.2-1.4-1.8-3-1.8-4.9c0-0.4,0-0.8,0-1.2c0-0.4,0.3-0.7,0.7-0.7c0.4,0,0.7,0.3,0.7,0.7
					c0.1,2.4,1.6,4.2,3.8,4.7c0.3,0.1,0.7,0.1,1,0.1c2.2,0,4.3,0,6.5,0C820.9,161.6,821,161.6,821.1,161.6z"/>
			</g>
		</g>
	</g>
</g>
<g>
	<g>
		<g>
			<path fill="#FFFFFF" d="M649.7,233.6c-0.4,0-0.8-0.1-1.1-0.2c-0.3-0.1-0.5-0.3-0.7-0.4c-0.2-0.2-0.3-0.3-0.3-0.5
				c-0.1-0.2-0.1-0.3-0.1-0.4c0-0.1,0-0.1,0.1-0.2c0,0,0.1-0.1,0.2-0.1h0.8c0.1,0,0.1,0,0.1,0s0.1,0.1,0.1,0.1
				c0,0.1,0.1,0.2,0.1,0.3s0.2,0.2,0.3,0.2c0.1,0.1,0.3,0.1,0.5,0.1c0.2,0,0.4,0,0.6-0.1c0.2-0.1,0.3-0.2,0.4-0.3
				c0.1-0.2,0.1-0.4,0.1-0.6V231c-0.1,0.2-0.3,0.3-0.6,0.4c-0.2,0.1-0.5,0.2-0.8,0.2c-0.3,0-0.6-0.1-0.8-0.2
				c-0.2-0.1-0.4-0.3-0.6-0.4s-0.3-0.4-0.4-0.7c-0.1-0.3-0.1-0.5-0.1-0.9c0-0.2,0-0.3,0-0.5c0-0.3,0.1-0.6,0.1-0.8
				c0.1-0.3,0.2-0.5,0.4-0.7c0.2-0.2,0.4-0.3,0.6-0.5c0.2-0.1,0.5-0.2,0.8-0.2c0.3,0,0.6,0.1,0.9,0.2c0.2,0.1,0.4,0.3,0.6,0.5v-0.4
				c0-0.1,0-0.1,0.1-0.2c0,0,0.1-0.1,0.2-0.1h0.7c0.1,0,0.1,0,0.2,0.1c0,0,0.1,0.1,0.1,0.2l0,4.3c0,0.4-0.1,0.8-0.2,1.1
				c-0.2,0.3-0.4,0.6-0.7,0.7C650.6,233.5,650.2,233.6,649.7,233.6z M649.6,230.7c0.2,0,0.4-0.1,0.6-0.2c0.1-0.1,0.3-0.2,0.3-0.4
				c0.1-0.2,0.1-0.4,0.1-0.5c0-0.1,0-0.2,0-0.3s0-0.2,0-0.3c0-0.2-0.1-0.4-0.1-0.5c-0.1-0.2-0.2-0.3-0.3-0.4
				c-0.2-0.1-0.3-0.2-0.6-0.2c-0.2,0-0.4,0.1-0.6,0.2s-0.3,0.3-0.3,0.4c-0.1,0.2-0.1,0.4-0.1,0.6c0,0.1,0,0.3,0,0.4
				c0,0.2,0.1,0.4,0.1,0.6c0.1,0.2,0.2,0.3,0.3,0.4S649.4,230.7,649.6,230.7z"/>
			<path fill="#FFFFFF" d="M653.3,231.6c-0.1,0-0.1,0-0.2-0.1c0,0-0.1-0.1-0.1-0.2v-4.2c0-0.1,0-0.1,0.1-0.2c0,0,0.1-0.1,0.2-0.1
				h0.7c0.1,0,0.1,0,0.2,0.1c0,0,0.1,0.1,0.1,0.2v0.4c0.1-0.2,0.3-0.3,0.5-0.4c0.2-0.1,0.5-0.2,0.8-0.2h0.4c0.1,0,0.1,0,0.2,0.1
				c0,0,0.1,0.1,0.1,0.2v0.7c0,0.1,0,0.1-0.1,0.2s-0.1,0.1-0.2,0.1h-0.7c-0.3,0-0.5,0.1-0.7,0.2c-0.2,0.2-0.2,0.4-0.2,0.7v2.5
				c0,0.1,0,0.1-0.1,0.2c0,0-0.1,0.1-0.2,0.1H653.3z"/>
			<path fill="#FFFFFF" d="M658.9,231.7c-0.5,0-0.9-0.1-1.2-0.3c-0.3-0.2-0.6-0.4-0.8-0.7c-0.2-0.3-0.3-0.7-0.3-1.1
				c0-0.1,0-0.2,0-0.4c0-0.2,0-0.3,0-0.4c0-0.4,0.1-0.8,0.3-1.1s0.4-0.5,0.8-0.7c0.3-0.2,0.7-0.3,1.2-0.3s0.9,0.1,1.2,0.3
				c0.3,0.2,0.6,0.4,0.8,0.7c0.2,0.3,0.3,0.7,0.3,1.1c0,0.1,0,0.2,0,0.4c0,0.2,0,0.3,0,0.4c0,0.4-0.1,0.8-0.3,1.1
				c-0.2,0.3-0.4,0.5-0.7,0.7C659.8,231.6,659.4,231.7,658.9,231.7z M658.9,230.8c0.3,0,0.6-0.1,0.7-0.3c0.2-0.2,0.3-0.5,0.3-0.9
				c0-0.1,0-0.2,0-0.4c0-0.1,0-0.3,0-0.4c0-0.4-0.1-0.7-0.3-0.9s-0.4-0.3-0.7-0.3c-0.3,0-0.6,0.1-0.7,0.3s-0.3,0.5-0.3,0.9
				c0,0.1,0,0.2,0,0.4c0,0.1,0,0.3,0,0.4c0,0.4,0.1,0.7,0.3,0.9C658.4,230.7,658.6,230.8,658.9,230.8z"/>
			<path fill="#FFFFFF" d="M663.9,231.7c-0.4,0-0.7-0.1-1-0.2c-0.3-0.2-0.5-0.4-0.6-0.7c-0.1-0.3-0.2-0.7-0.2-1.1v-2.5
				c0-0.1,0-0.1,0.1-0.2c0,0,0.1-0.1,0.2-0.1h0.8c0.1,0,0.1,0,0.2,0.1c0,0,0.1,0.1,0.1,0.2v2.5c0,0.7,0.3,1.1,1,1.1
				c0.3,0,0.6-0.1,0.7-0.3s0.3-0.5,0.3-0.8v-2.5c0-0.1,0-0.1,0.1-0.2c0,0,0.1-0.1,0.2-0.1h0.8c0.1,0,0.1,0,0.2,0.1
				c0,0,0.1,0.1,0.1,0.2v4.3c0,0.1,0,0.1-0.1,0.2c0,0-0.1,0.1-0.2,0.1h-0.7c-0.1,0-0.1,0-0.2-0.1s-0.1-0.1-0.1-0.2V231
				c-0.2,0.2-0.4,0.4-0.6,0.5C664.6,231.7,664.3,231.7,663.9,231.7z"/>
			<path fill="#FFFFFF" d="M668,233.3c-0.1,0-0.1,0-0.2-0.1s-0.1-0.1-0.1-0.2v-6c0-0.1,0-0.1,0.1-0.2c0,0,0.1-0.1,0.2-0.1h0.7
				c0.1,0,0.1,0,0.2,0.1c0,0,0.1,0.1,0.1,0.2v0.4c0.1-0.2,0.3-0.4,0.6-0.5c0.2-0.1,0.5-0.2,0.9-0.2c0.3,0,0.6,0.1,0.8,0.2
				c0.2,0.1,0.4,0.2,0.6,0.4s0.3,0.4,0.4,0.7c0.1,0.3,0.1,0.5,0.1,0.9c0,0.1,0,0.2,0,0.3c0,0.1,0,0.2,0,0.3c0,0.3-0.1,0.6-0.1,0.8
				c-0.1,0.3-0.2,0.5-0.4,0.7c-0.2,0.2-0.4,0.3-0.6,0.4c-0.2,0.1-0.5,0.2-0.8,0.2c-0.3,0-0.6-0.1-0.8-0.2s-0.4-0.3-0.6-0.5v2
				c0,0.1,0,0.1-0.1,0.2c0,0-0.1,0.1-0.2,0.1H668z M670.1,230.8c0.3,0,0.5-0.1,0.6-0.2s0.2-0.3,0.3-0.4s0.1-0.4,0.1-0.6
				c0-0.2,0-0.4,0-0.5c0-0.2,0-0.4-0.1-0.6c-0.1-0.2-0.2-0.3-0.3-0.4s-0.3-0.2-0.6-0.2c-0.2,0-0.4,0.1-0.6,0.2
				c-0.2,0.1-0.3,0.3-0.3,0.4c-0.1,0.2-0.1,0.4-0.1,0.5c0,0.1,0,0.2,0,0.3s0,0.2,0,0.4c0,0.2,0,0.4,0.1,0.5c0.1,0.2,0.2,0.3,0.3,0.4
				S669.8,230.8,670.1,230.8z"/>
			<path fill="#FFFFFF" d="M678,231.7c-0.3,0-0.6-0.1-0.9-0.2s-0.4-0.3-0.6-0.5v0.3c0,0.1,0,0.1-0.1,0.2s-0.1,0.1-0.2,0.1h-0.7
				c-0.1,0-0.1,0-0.2-0.1s-0.1-0.1-0.1-0.2v-6c0-0.1,0-0.1,0.1-0.2c0,0,0.1-0.1,0.2-0.1h0.8c0.1,0,0.1,0,0.2,0.1
				c0,0,0.1,0.1,0.1,0.2v2c0.2-0.2,0.3-0.3,0.6-0.4s0.5-0.2,0.8-0.2c0.3,0,0.6,0.1,0.8,0.2s0.4,0.3,0.6,0.5s0.3,0.4,0.4,0.7
				c0.1,0.3,0.1,0.5,0.1,0.8c0,0.1,0,0.2,0,0.3s0,0.2,0,0.3c0,0.3-0.1,0.6-0.1,0.9s-0.2,0.5-0.4,0.7c-0.2,0.2-0.4,0.3-0.6,0.4
				C678.6,231.7,678.3,231.7,678,231.7z M677.7,230.8c0.3,0,0.5-0.1,0.6-0.2s0.2-0.3,0.3-0.4c0.1-0.2,0.1-0.4,0.1-0.6
				c0-0.2,0-0.4,0-0.5c0-0.2,0-0.4-0.1-0.6c-0.1-0.2-0.2-0.3-0.3-0.4s-0.3-0.2-0.6-0.2c-0.2,0-0.4,0.1-0.6,0.2s-0.3,0.2-0.3,0.4
				c-0.1,0.2-0.1,0.3-0.1,0.5c0,0.1,0,0.2,0,0.3s0,0.2,0,0.3c0,0.2,0.1,0.4,0.1,0.5c0.1,0.2,0.2,0.3,0.3,0.4
				C677.2,230.7,677.4,230.8,677.7,230.8z"/>
			<path fill="#FFFFFF" d="M683,231.7c-0.5,0-0.9-0.1-1.2-0.3c-0.3-0.2-0.6-0.4-0.7-0.7c-0.2-0.3-0.3-0.7-0.3-1.1c0-0.1,0-0.2,0-0.4
				c0-0.2,0-0.3,0-0.4c0-0.4,0.1-0.8,0.3-1.1c0.2-0.3,0.4-0.5,0.8-0.7c0.3-0.2,0.7-0.3,1.2-0.3c0.5,0,0.9,0.1,1.2,0.3
				c0.3,0.2,0.6,0.4,0.8,0.7s0.3,0.7,0.3,1.1c0,0.1,0,0.2,0,0.4c0,0.2,0,0.3,0,0.4c0,0.4-0.1,0.8-0.3,1.1c-0.2,0.3-0.4,0.5-0.7,0.7
				C683.9,231.6,683.5,231.7,683,231.7z M683,230.8c0.3,0,0.6-0.1,0.7-0.3c0.2-0.2,0.3-0.5,0.3-0.9c0-0.1,0-0.2,0-0.4
				c0-0.1,0-0.3,0-0.4c0-0.4-0.1-0.7-0.3-0.9s-0.4-0.3-0.7-0.3c-0.3,0-0.6,0.1-0.7,0.3s-0.3,0.5-0.3,0.9c0,0.1,0,0.2,0,0.4
				c0,0.1,0,0.3,0,0.4c0,0.4,0.1,0.7,0.3,0.9C682.4,230.7,682.7,230.8,683,230.8z"/>
			<path fill="#FFFFFF" d="M688.3,231.7c-0.5,0-0.9-0.1-1.2-0.3c-0.3-0.2-0.6-0.4-0.7-0.7s-0.3-0.7-0.3-1.1c0-0.1,0-0.2,0-0.4
				c0-0.2,0-0.3,0-0.4c0-0.4,0.1-0.8,0.3-1.1c0.2-0.3,0.4-0.5,0.8-0.7c0.3-0.2,0.7-0.3,1.2-0.3c0.5,0,0.9,0.1,1.2,0.3
				c0.3,0.2,0.6,0.4,0.8,0.7c0.2,0.3,0.3,0.7,0.3,1.1c0,0.1,0,0.2,0,0.4c0,0.2,0,0.3,0,0.4c0,0.4-0.1,0.8-0.3,1.1s-0.4,0.5-0.7,0.7
				C689.2,231.6,688.8,231.7,688.3,231.7z M688.3,230.8c0.3,0,0.6-0.1,0.7-0.3c0.2-0.2,0.3-0.5,0.3-0.9c0-0.1,0-0.2,0-0.4
				c0-0.1,0-0.3,0-0.4c0-0.4-0.1-0.7-0.3-0.9c-0.2-0.2-0.4-0.3-0.7-0.3s-0.6,0.1-0.7,0.3c-0.2,0.2-0.3,0.5-0.3,0.9
				c0,0.1,0,0.2,0,0.4c0,0.1,0,0.3,0,0.4c0,0.4,0.1,0.7,0.3,0.9C687.8,230.7,688,230.8,688.3,230.8z"/>
			<path fill="#FFFFFF" d="M691.8,231.6c-0.1,0-0.1,0-0.2-0.1c0,0-0.1-0.1-0.1-0.2v-6c0-0.1,0-0.1,0.1-0.2c0,0,0.1-0.1,0.2-0.1h0.7
				c0.1,0,0.1,0,0.2,0.1c0,0,0.1,0.1,0.1,0.2v3.1l1.5-1.4c0.1,0,0.1-0.1,0.1-0.1c0,0,0.1,0,0.2,0h0.8c0.1,0,0.1,0,0.1,0.1
				s0.1,0.1,0.1,0.1c0,0,0,0.1,0,0.1c0,0,0,0.1-0.1,0.1l-1.9,1.7l2.1,2.2c0.1,0.1,0.1,0.1,0.1,0.2c0,0.1,0,0.1-0.1,0.1
				s-0.1,0.1-0.1,0.1h-0.9c-0.1,0-0.2,0-0.2,0c0,0-0.1-0.1-0.1-0.1l-1.7-1.8v1.8c0,0.1,0,0.1-0.1,0.2s-0.1,0.1-0.2,0.1H691.8z"/>
			<path fill="#FFFFFF" d="M696.8,226.2c-0.1,0-0.1,0-0.2-0.1s-0.1-0.1-0.1-0.2v-0.6c0-0.1,0-0.1,0.1-0.2s0.1-0.1,0.2-0.1h0.8
				c0.1,0,0.1,0,0.2,0.1c0,0,0.1,0.1,0.1,0.2v0.6c0,0.1,0,0.1-0.1,0.2c0,0-0.1,0.1-0.2,0.1H696.8z M696.8,231.6
				c-0.1,0-0.1,0-0.2-0.1c0,0-0.1-0.1-0.1-0.2v-4.3c0-0.1,0-0.1,0.1-0.2c0,0,0.1-0.1,0.2-0.1h0.7c0.1,0,0.1,0,0.2,0.1
				c0,0,0.1,0.1,0.1,0.2v4.3c0,0.1,0,0.1-0.1,0.2s-0.1,0.1-0.2,0.1H696.8z"/>
			<path fill="#FFFFFF" d="M699.2,231.6c-0.1,0-0.1,0-0.2-0.1c0,0-0.1-0.1-0.1-0.2v-4.3c0-0.1,0-0.1,0.1-0.2c0,0,0.1-0.1,0.2-0.1
				h0.7c0.1,0,0.1,0,0.2,0.1c0,0,0.1,0.1,0.1,0.2v0.4c0.2-0.2,0.4-0.4,0.6-0.5c0.2-0.1,0.5-0.2,0.9-0.2c0.4,0,0.7,0.1,1,0.2
				c0.3,0.2,0.5,0.4,0.6,0.7s0.2,0.7,0.2,1.1v2.5c0,0.1,0,0.1-0.1,0.2c0,0-0.1,0.1-0.2,0.1h-0.8c-0.1,0-0.1,0-0.2-0.1
				s-0.1-0.1-0.1-0.2v-2.5c0-0.3-0.1-0.6-0.3-0.8c-0.2-0.2-0.4-0.3-0.7-0.3c-0.3,0-0.6,0.1-0.7,0.3c-0.2,0.2-0.3,0.5-0.3,0.8v2.5
				c0,0.1,0,0.1-0.1,0.2s-0.1,0.1-0.2,0.1H699.2z"/>
			<path fill="#FFFFFF" d="M706.7,233.6c-0.4,0-0.8-0.1-1.1-0.2s-0.5-0.3-0.7-0.4c-0.2-0.2-0.3-0.3-0.3-0.5
				c-0.1-0.2-0.1-0.3-0.1-0.4c0-0.1,0-0.1,0.1-0.2c0,0,0.1-0.1,0.2-0.1h0.8c0.1,0,0.1,0,0.1,0c0,0,0.1,0.1,0.1,0.1
				c0,0.1,0.1,0.2,0.1,0.3c0.1,0.1,0.2,0.2,0.3,0.2c0.1,0.1,0.3,0.1,0.5,0.1c0.2,0,0.4,0,0.6-0.1c0.2-0.1,0.3-0.2,0.4-0.3
				c0.1-0.2,0.1-0.4,0.1-0.6V231c-0.1,0.2-0.3,0.3-0.6,0.4s-0.5,0.2-0.8,0.2c-0.3,0-0.6-0.1-0.8-0.2c-0.2-0.1-0.4-0.3-0.6-0.4
				c-0.2-0.2-0.3-0.4-0.4-0.7s-0.1-0.5-0.1-0.9c0-0.2,0-0.3,0-0.5c0-0.3,0.1-0.6,0.1-0.8c0.1-0.3,0.2-0.5,0.4-0.7
				c0.2-0.2,0.4-0.3,0.6-0.5c0.2-0.1,0.5-0.2,0.8-0.2c0.3,0,0.6,0.1,0.9,0.2c0.2,0.1,0.4,0.3,0.6,0.5v-0.4c0-0.1,0-0.1,0.1-0.2
				c0,0,0.1-0.1,0.2-0.1h0.7c0.1,0,0.1,0,0.2,0.1c0,0,0.1,0.1,0.1,0.2l0,4.3c0,0.4-0.1,0.8-0.2,1.1s-0.4,0.6-0.7,0.7
				C707.6,233.5,707.2,233.6,706.7,233.6z M706.7,230.7c0.2,0,0.4-0.1,0.6-0.2s0.3-0.2,0.3-0.4c0.1-0.2,0.1-0.4,0.1-0.5
				c0-0.1,0-0.2,0-0.3s0-0.2,0-0.3c0-0.2-0.1-0.4-0.1-0.5c-0.1-0.2-0.2-0.3-0.3-0.4s-0.3-0.2-0.6-0.2s-0.4,0.1-0.6,0.2
				s-0.3,0.3-0.3,0.4c-0.1,0.2-0.1,0.4-0.1,0.6c0,0.1,0,0.3,0,0.4c0,0.2,0,0.4,0.1,0.6c0.1,0.2,0.2,0.3,0.3,0.4
				S706.4,230.7,706.7,230.7z"/>
		</g>
	</g>
	<g>
		<g>
			<path d="M286.4,290.8c7.7,5.5,10.2,13,9.5,22.3c-0.6,8.3-0.3,16.6-0.1,24.9c0.1,5.6-2.4,7.5-7.7,7.5c-35.7-0.1-71.4-0.1-107.1,0
				c-4.6,0-6.5-2.1-6.5-6.3c0-10.3-0.8-20.7,0.4-30.9c0.6-4.9,3.9-11,7.9-13.6c8.5-5.6,18.1-9.6,27.5-13.6c7.5-3.2,9.6-8.1,3.1-13.2
				c-13.2-10.4-10-41.8-1.4-52.6c12.3-15.5,37.4-14.4,47.7,2.5c9.3,15.2,7.5,37.5-4.1,51.1c-4.3,5-3.3,9.2,2.8,11.4
				c9.2,3.3,18.4,6.7,27.6,10.1L286.4,290.8z M235.1,337.4c15.1,0,30.1-0.1,45.2,0.1c5.4,0.1,8-2.2,8-7.5c0.3-30.8,3-30-26-40.3
				c-2.4-0.8-5-1-7.2-2.1c-3.5-1.8-9.2-3.7-9.6-6.3c-1.1-5.9-3-13,4-17.7c6.5-4.4,7.9-11.4,7.6-18.7c-0.1-1.8-2-5-3-5
				c-12.4,0.6-24.8-8.3-37.1-0.4c-1.9,1.2-4,3.5-4.3,5.6c-1.1,7.6,2.6,13.3,7.8,18.6c8.8,8.8,5.8,20.3-5.6,24.1
				c-6.9,2.3-13.6,5.2-20.3,8.1c-8.6,3.7-13.7,9.7-12.3,19.9c0.6,4.4,0.4,9,0,13.5c-0.5,6.3,2.1,8.4,8.3,8.3
				C205.4,337.2,220.3,337.4,235.1,337.4z M213.9,231.3c2.9-0.8,5.3-0.9,6.6-2c4.4-4,8-3.3,13.3-1c6.3,2.6,13.7,2.5,21,3.6
				c-0.2-11-6.8-18.2-16-19.3C225.7,211.1,217.3,216.8,213.9,231.3z"/>
			<path d="M291.6,133.7c0.6,31.4-25.6,58.6-57.1,59.2c-32.1,0.7-59.7-24.9-60.4-55.9c-0.8-34.2,24.8-61.5,58.2-62
				C264.5,74.5,290.9,100.7,291.6,133.7z M280.1,134.2c0-26.9-20.3-47.2-47-47.3c-27-0.1-47.8,20.6-47.7,47.6
				c0.1,26.4,21.1,47.2,47.5,47.1C259.3,181.5,280.1,160.7,280.1,134.2z"/>
			<path d="M135.1,346.2c-6.8,0-13.6-0.1-20.4,0c-5.2,0.1-8-2.3-8-7.6c0-10-0.1-20.1,0-30.1c0-7.1,3.9-12.1,9.9-14.9
				c8.4-3.9,17.1-7.2,25.8-10.4c7.1-2.6,7.9-5.6,2.5-11.1c-12.4-12.8-12.1-41.4,0.7-53.9c13.7-13.4,38.3-8.8,45.2,9.3
				c5.9,15.5,7.5,31.2-5.6,45.1c-2.4,2.6-2.5,8.4-2,12.5c0.6,4.9-0.3,5.4-5.2,7c-10,3.1-18.9,4-27.7-2.5
				c-11.1,4.4-22.3,8.6-33.2,13.4c-1.5,0.7-2.4,4.3-2.4,6.7c-0.3,7.5,0,15.1-0.2,22.6c-0.1,4.7,1.9,6.1,6.3,6.1
				c11.6-0.2,23.1-0.3,34.7,0.1c2.4,0.1,4.6,2.4,7,3.7c-2.4,1.3-4.7,3.7-7.1,3.9C148.7,346.5,141.9,346.2,135.1,346.2z M187.9,252.5
				c-1.3-7.2-9.7-13.1-16.6-11.9c-7.6,1.4-15.3,2.2-22.9,3.7c-1.8,0.4-4.9,3.1-4.6,4c1.7,6.1,4,12,6.5,17.9c1.7,4.1,5,7.8,5.8,12.1
				c1.1,5.4,4,8.7,8.8,8.4c4.6-0.3,8.8-2.6,9.6-8.8c0.6-4.1,3.2-8,5.3-11.7C182.3,261.5,185.2,257,187.9,252.5z M184.3,236.2
				c-1.8-12.6-9-18.2-20.8-17.6c-10.2,0.5-16.7,6.7-17.5,18.8c8.4-1.9,16.2-3.8,24-5.3c2.4-0.5,5.1-0.3,7.5,0.3
				C179.6,232.9,181.3,234.5,184.3,236.2z"/>
			<path d="M285.8,290.3c3.3-11.2-3.3-18.8-8.3-27.9c-10.4-18.7,1.2-46.5,19.6-51c18.4-4.5,33.7,6.9,35.8,27.5
				c1.3,12.3,1.1,24.6-9.5,34c-4.4,3.9-2.8,7.8,2.9,9.9c8.7,3.3,17.4,6.4,25.8,10.3c6.8,3.2,10.5,8.7,10.1,16.9
				c-0.5,9.5-0.3,19.1-0.1,28.6c0.1,5.1-2.2,7.4-7.2,7.4c-13.8,0-27.6,0.2-41.4-0.2c-2.2-0.1-4.3-2.4-6.5-3.7
				c2.3-1.3,4.5-3.8,6.8-3.8c11-0.4,22.1-0.4,33.1-0.1c5.7,0.2,7.8-2.3,7.8-7.5c0-3.5,0.1-7,0.1-10.5c0-18.1-1.2-19.7-18.5-26
				c-9.7-3.5-19.3-7.8-29,0.4c-1.4,1.2-5.1,0.2-7.6-0.4c-4.5-1-9-2.3-13.4-3.5C286.4,290.8,285.8,290.3,285.8,290.3z M326.8,252.1
				c-0.6-0.3-1.2-0.6-1.8-0.9c1-5.5-1.7-6.9-6.8-7.1c-5.9-0.3-12.1-0.8-17.7-2.7c-7.1-2.4-13.5,0.7-16.8,4.6
				c-2.3,2.7,0.6,10.1,1.8,15.3c0.5,1.9,3.1,3.3,4.2,5.2c2,3.6,4.5,7.2,5.1,11.1c0.8,5.9,4.4,9.1,9.1,9.1c5.2,0.1,8.9-3.1,9.4-9.5
				c0.3-3.5,2.9-6.9,4.8-10.2C320.9,261.9,323.9,257,326.8,252.1z M323.4,236.7c-1.3-12.4-8.6-18.5-20.2-18.1
				c-10.5,0.3-17.6,7-18,17.1c1.3-0.5,2.7-0.6,3.5-1.4c4.3-4,8.1-3.1,13.4-1C308.5,235.9,316,235.7,323.4,236.7z"/>
			<path d="M99,206.1c0-17.8-0.1-35.7,0-53.5c0.1-13.1,7.9-21.4,20.8-21.7c12.6-0.3,25.1-0.1,37.7-0.1c4.7,0,9,1.1,8.9,6.7
				c-0.1,5.7-4.7,6.6-9.2,6.6c-11.3,0.1-22.6,0-33.9,0.1c-9,0.1-10.9,1.8-10.9,10.5c-0.1,31.9,0.1,63.8-0.1,95.7
				c0,5.9,1.6,8.9,8.1,8.8c4.5-0.1,8.9,1.4,8.6,7.2c-0.3,6.1-5.1,5.9-9.4,6C99,273,99,273,99,252.8C99,237.2,99,221.6,99,206.1z"/>
			<path d="M369,207.4c0,17.8,0.1,35.7,0,53.5c-0.1,9.5-2,11.4-11.6,11.5c-3.3,0-6.8,0.8-9.7-0.3c-2.7-1-4.7-4.1-7-6.2
				c2-2.2,4-6.1,6.1-6.2c8.3-0.2,8.9-4.8,8.9-11.4c-0.2-30.6-0.1-61.3-0.1-91.9c0-10.7-1.5-12.1-12.3-12.1c-10.8,0-21.6,0-32.4,0
				c-5,0-10.5-0.4-10.4-6.9c0.1-5.9,5.3-6.5,10.1-6.5c11.6,0,23.1-0.1,34.7,0c15.3,0.1,23.6,8.3,23.8,23.9
				C369.1,172.2,369,189.8,369,207.4z"/>
			<path d="M228.9,160c-2.4-1.3-4.7-2-6.2-3.5c-6.5-6.3-13.2-12.4-19-19.3c-1.7-2.1-1.8-7.3-0.4-9.7c2.6-4.2,6.7-2.2,9.6,0.6
				c3.7,3.4,7.4,6.8,10.7,10.6c3.8,4.3,6.7,3.8,10.5-0.2c7.4-7.8,15.2-15.3,22.8-23c3.4-3.4,7.2-6.5,11.7-2.4
				c4.5,4.3,1.3,8.4-1.9,11.7c-10.2,10.4-20.5,20.8-30.9,31C234,157.6,231.4,158.6,228.9,160z"/>
		</g>
	</g>
</g>
<g>
	<g>
		<g>
			<path fill="#FFFFFF" d="M514.2,271.9c-0.1,0-0.1,0-0.2-0.1s-0.1-0.1-0.1-0.2v-0.6c0-0.1,0-0.1,0.1-0.2s0.1-0.1,0.2-0.1h0.8
				c0.1,0,0.1,0,0.2,0.1s0.1,0.1,0.1,0.2v0.6c0,0.1,0,0.1-0.1,0.2s-0.1,0.1-0.2,0.1H514.2z M514.2,277.4c-0.1,0-0.1,0-0.2-0.1
				c0,0-0.1-0.1-0.1-0.2v-4.3c0-0.1,0-0.1,0.1-0.2c0,0,0.1-0.1,0.2-0.1h0.7c0.1,0,0.1,0,0.2,0.1c0,0,0.1,0.1,0.1,0.2v4.3
				c0,0.1,0,0.1-0.1,0.2s-0.1,0.1-0.2,0.1H514.2z"/>
			<path fill="#FFFFFF" d="M516.6,277.4c-0.1,0-0.1,0-0.2-0.1c0,0-0.1-0.1-0.1-0.2v-4.3c0-0.1,0-0.1,0.1-0.2c0,0,0.1-0.1,0.2-0.1
				h0.7c0.1,0,0.1,0,0.2,0.1c0,0,0.1,0.1,0.1,0.2v0.4c0.2-0.2,0.4-0.4,0.6-0.5c0.2-0.1,0.5-0.2,0.9-0.2c0.4,0,0.7,0.1,1,0.2
				c0.3,0.2,0.5,0.4,0.6,0.7c0.1,0.3,0.2,0.7,0.2,1.1v2.5c0,0.1,0,0.1-0.1,0.2s-0.1,0.1-0.2,0.1h-0.8c-0.1,0-0.1,0-0.2-0.1
				c0,0-0.1-0.1-0.1-0.2v-2.5c0-0.3-0.1-0.6-0.3-0.8c-0.2-0.2-0.4-0.3-0.7-0.3c-0.3,0-0.6,0.1-0.7,0.3c-0.2,0.2-0.3,0.5-0.3,0.8v2.5
				c0,0.1,0,0.1-0.1,0.2c0,0-0.1,0.1-0.2,0.1H516.6z"/>
			<path fill="#FFFFFF" d="M524.1,277.4c-0.4,0-0.7-0.1-0.9-0.2s-0.4-0.3-0.5-0.6c-0.1-0.2-0.2-0.6-0.2-0.9v-2h-0.7
				c-0.1,0-0.1,0-0.2-0.1s-0.1-0.1-0.1-0.2v-0.5c0-0.1,0-0.1,0.1-0.2c0,0,0.1-0.1,0.2-0.1h0.7v-1.5c0-0.1,0-0.1,0.1-0.2
				c0,0,0.1-0.1,0.2-0.1h0.7c0.1,0,0.1,0,0.2,0.1c0,0,0.1,0.1,0.1,0.2v1.5h1.1c0.1,0,0.1,0,0.2,0.1c0,0,0.1,0.1,0.1,0.2v0.5
				c0,0.1,0,0.1-0.1,0.2s-0.1,0.1-0.2,0.1h-1.1v2c0,0.2,0,0.4,0.1,0.6c0.1,0.1,0.2,0.2,0.5,0.2h0.6c0.1,0,0.1,0,0.2,0.1
				s0.1,0.1,0.1,0.2v0.6c0,0.1,0,0.1-0.1,0.2s-0.1,0.1-0.2,0.1H524.1z"/>
			<path fill="#FFFFFF" d="M527.9,277.5c-0.7,0-1.2-0.2-1.6-0.6c-0.4-0.4-0.6-0.9-0.6-1.6c0-0.1,0-0.1,0-0.2c0-0.1,0-0.2,0-0.2
				c0-0.5,0.1-0.8,0.3-1.2c0.2-0.3,0.4-0.6,0.8-0.8c0.3-0.2,0.7-0.3,1.1-0.3c0.5,0,0.9,0.1,1.2,0.3s0.6,0.5,0.7,0.8
				c0.2,0.4,0.3,0.8,0.3,1.2v0.2c0,0.1,0,0.1-0.1,0.2c0,0-0.1,0.1-0.2,0.1h-3c0,0,0,0.1,0,0.1c0,0.2,0,0.4,0.1,0.6
				c0.1,0.2,0.2,0.3,0.3,0.4s0.3,0.2,0.5,0.2c0.2,0,0.3,0,0.4-0.1c0.1-0.1,0.2-0.1,0.3-0.2s0.1-0.1,0.2-0.2c0.1-0.1,0.1-0.1,0.1-0.1
				c0,0,0.1,0,0.1,0h0.8c0.1,0,0.1,0,0.1,0.1s0.1,0.1,0,0.1c0,0.1-0.1,0.2-0.1,0.4c-0.1,0.1-0.2,0.3-0.4,0.4
				c-0.2,0.1-0.4,0.2-0.7,0.3C528.5,277.5,528.2,277.5,527.9,277.5z M526.9,274.7h2v0c0-0.2,0-0.4-0.1-0.6s-0.2-0.3-0.3-0.4
				s-0.3-0.2-0.5-0.2c-0.2,0-0.4,0.1-0.5,0.2s-0.3,0.2-0.3,0.4S526.9,274.4,526.9,274.7L526.9,274.7z"/>
			<path fill="#FFFFFF" d="M531.3,277.4c-0.1,0-0.1,0-0.2-0.1c0,0-0.1-0.1-0.1-0.2v-4.2c0-0.1,0-0.1,0.1-0.2c0,0,0.1-0.1,0.2-0.1
				h0.7c0.1,0,0.1,0,0.2,0.1c0,0,0.1,0.1,0.1,0.2v0.4c0.1-0.2,0.3-0.3,0.5-0.4s0.5-0.2,0.8-0.2h0.4c0.1,0,0.1,0,0.2,0.1
				c0,0,0.1,0.1,0.1,0.2v0.7c0,0.1,0,0.1-0.1,0.2s-0.1,0.1-0.2,0.1h-0.7c-0.3,0-0.5,0.1-0.7,0.2c-0.2,0.2-0.2,0.4-0.2,0.7v2.5
				c0,0.1,0,0.1-0.1,0.2s-0.1,0.1-0.2,0.1H531.3z"/>
			<path fill="#FFFFFF" d="M535,277.4c-0.1,0-0.1,0-0.2-0.1c0,0-0.1-0.1-0.1-0.2v-4.3c0-0.1,0-0.1,0.1-0.2c0,0,0.1-0.1,0.2-0.1h0.7
				c0.1,0,0.1,0,0.2,0.1c0,0,0.1,0.1,0.1,0.2v0.4c0.2-0.2,0.4-0.4,0.6-0.5c0.2-0.1,0.5-0.2,0.9-0.2c0.4,0,0.7,0.1,1,0.2
				c0.3,0.2,0.5,0.4,0.6,0.7c0.1,0.3,0.2,0.7,0.2,1.1v2.5c0,0.1,0,0.1-0.1,0.2s-0.1,0.1-0.2,0.1h-0.8c-0.1,0-0.1,0-0.2-0.1
				c0,0-0.1-0.1-0.1-0.2v-2.5c0-0.3-0.1-0.6-0.3-0.8c-0.2-0.2-0.4-0.3-0.7-0.3c-0.3,0-0.6,0.1-0.7,0.3c-0.2,0.2-0.3,0.5-0.3,0.8v2.5
				c0,0.1,0,0.1-0.1,0.2c0,0-0.1,0.1-0.2,0.1H535z"/>
			<path fill="#FFFFFF" d="M541.8,277.5c-0.3,0-0.6-0.1-0.8-0.2c-0.3-0.1-0.5-0.3-0.6-0.5c-0.1-0.2-0.2-0.4-0.2-0.7
				c0-0.4,0.2-0.8,0.5-1c0.3-0.2,0.8-0.4,1.3-0.5l1.2-0.2v-0.2c0-0.3-0.1-0.4-0.2-0.6c-0.1-0.1-0.3-0.2-0.7-0.2
				c-0.2,0-0.4,0-0.5,0.1s-0.2,0.2-0.3,0.3c0,0.1-0.1,0.1-0.2,0.1h-0.7c-0.1,0-0.1,0-0.1-0.1s0-0.1,0-0.1c0-0.1,0-0.2,0.1-0.4
				c0.1-0.1,0.2-0.3,0.3-0.4c0.2-0.1,0.4-0.2,0.6-0.3s0.5-0.1,0.9-0.1c0.4,0,0.7,0,1,0.1c0.3,0.1,0.5,0.2,0.6,0.4
				c0.2,0.2,0.3,0.3,0.3,0.5c0.1,0.2,0.1,0.4,0.1,0.7v2.8c0,0.1,0,0.1-0.1,0.2c0,0-0.1,0.1-0.2,0.1h-0.7c-0.1,0-0.1,0-0.2-0.1
				s-0.1-0.1-0.1-0.2v-0.4c-0.1,0.1-0.2,0.2-0.3,0.3s-0.3,0.2-0.5,0.2C542.3,277.5,542.1,277.5,541.8,277.5z M542.1,276.6
				c0.2,0,0.4,0,0.6-0.1c0.2-0.1,0.3-0.2,0.4-0.4s0.1-0.4,0.1-0.7v-0.2l-0.9,0.1c-0.4,0.1-0.6,0.1-0.8,0.3s-0.3,0.3-0.3,0.4
				c0,0.1,0,0.2,0.1,0.3c0.1,0.1,0.2,0.2,0.3,0.2C541.9,276.6,542,276.6,542.1,276.6z"/>
			<path fill="#FFFFFF" d="M547.7,277.4c-0.4,0-0.7-0.1-0.9-0.2s-0.4-0.3-0.5-0.6c-0.1-0.2-0.2-0.6-0.2-0.9v-2h-0.7
				c-0.1,0-0.1,0-0.2-0.1s-0.1-0.1-0.1-0.2v-0.5c0-0.1,0-0.1,0.1-0.2c0,0,0.1-0.1,0.2-0.1h0.7v-1.5c0-0.1,0-0.1,0.1-0.2
				c0,0,0.1-0.1,0.2-0.1h0.7c0.1,0,0.1,0,0.2,0.1c0,0,0.1,0.1,0.1,0.2v1.5h1.1c0.1,0,0.1,0,0.2,0.1c0,0,0.1,0.1,0.1,0.2v0.5
				c0,0.1,0,0.1-0.1,0.2s-0.1,0.1-0.2,0.1h-1.1v2c0,0.2,0,0.4,0.1,0.6c0.1,0.1,0.2,0.2,0.5,0.2h0.6c0.1,0,0.1,0,0.2,0.1
				s0.1,0.1,0.1,0.2v0.6c0,0.1,0,0.1-0.1,0.2s-0.1,0.1-0.2,0.1H547.7z"/>
			<path fill="#FFFFFF" d="M549.7,271.9c-0.1,0-0.1,0-0.2-0.1s-0.1-0.1-0.1-0.2v-0.6c0-0.1,0-0.1,0.1-0.2s0.1-0.1,0.2-0.1h0.8
				c0.1,0,0.1,0,0.2,0.1c0,0,0.1,0.1,0.1,0.2v0.6c0,0.1,0,0.1-0.1,0.2c0,0-0.1,0.1-0.2,0.1H549.7z M549.7,277.4
				c-0.1,0-0.1,0-0.2-0.1s-0.1-0.1-0.1-0.2v-4.3c0-0.1,0-0.1,0.1-0.2c0,0,0.1-0.1,0.2-0.1h0.7c0.1,0,0.1,0,0.2,0.1
				c0,0,0.1,0.1,0.1,0.2v4.3c0,0.1,0,0.1-0.1,0.2s-0.1,0.1-0.2,0.1H549.7z"/>
			<path fill="#FFFFFF" d="M553.9,277.5c-0.5,0-0.9-0.1-1.2-0.3c-0.3-0.2-0.6-0.4-0.7-0.7s-0.3-0.7-0.3-1.1c0-0.1,0-0.2,0-0.4
				c0-0.2,0-0.3,0-0.4c0-0.4,0.1-0.8,0.3-1.1c0.2-0.3,0.4-0.5,0.8-0.7c0.3-0.2,0.7-0.3,1.2-0.3c0.5,0,0.9,0.1,1.2,0.3
				c0.3,0.2,0.6,0.4,0.8,0.7c0.2,0.3,0.3,0.7,0.3,1.1c0,0.1,0,0.2,0,0.4c0,0.2,0,0.3,0,0.4c0,0.4-0.1,0.8-0.3,1.1s-0.4,0.5-0.7,0.7
				C554.8,277.4,554.4,277.5,553.9,277.5z M553.9,276.6c0.3,0,0.6-0.1,0.7-0.3c0.2-0.2,0.3-0.5,0.3-0.9c0-0.1,0-0.2,0-0.4
				c0-0.1,0-0.3,0-0.4c0-0.4-0.1-0.7-0.3-0.9c-0.2-0.2-0.4-0.3-0.7-0.3s-0.6,0.1-0.7,0.3c-0.2,0.2-0.3,0.5-0.3,0.9
				c0,0.1,0,0.2,0,0.4c0,0.1,0,0.3,0,0.4c0,0.4,0.1,0.7,0.3,0.9C553.4,276.5,553.6,276.6,553.9,276.6z"/>
			<path fill="#FFFFFF" d="M557.4,277.4c-0.1,0-0.1,0-0.2-0.1c0,0-0.1-0.1-0.1-0.2v-4.3c0-0.1,0-0.1,0.1-0.2c0,0,0.1-0.1,0.2-0.1
				h0.7c0.1,0,0.1,0,0.2,0.1c0,0,0.1,0.1,0.1,0.2v0.4c0.2-0.2,0.4-0.4,0.6-0.5c0.2-0.1,0.5-0.2,0.9-0.2c0.4,0,0.7,0.1,1,0.2
				c0.3,0.2,0.5,0.4,0.6,0.7s0.2,0.7,0.2,1.1v2.5c0,0.1,0,0.1-0.1,0.2c0,0-0.1,0.1-0.2,0.1h-0.8c-0.1,0-0.1,0-0.2-0.1
				c0,0-0.1-0.1-0.1-0.2v-2.5c0-0.3-0.1-0.6-0.3-0.8c-0.2-0.2-0.4-0.3-0.7-0.3c-0.3,0-0.6,0.1-0.7,0.3c-0.2,0.2-0.3,0.5-0.3,0.8v2.5
				c0,0.1,0,0.1-0.1,0.2s-0.1,0.1-0.2,0.1H557.4z"/>
			<path fill="#FFFFFF" d="M564.2,277.5c-0.3,0-0.6-0.1-0.8-0.2s-0.5-0.3-0.6-0.5s-0.2-0.4-0.2-0.7c0-0.4,0.2-0.8,0.5-1
				c0.3-0.2,0.8-0.4,1.3-0.5l1.2-0.2v-0.2c0-0.3-0.1-0.4-0.2-0.6c-0.1-0.1-0.3-0.2-0.6-0.2c-0.2,0-0.4,0-0.5,0.1
				c-0.1,0.1-0.2,0.2-0.3,0.3c0,0.1-0.1,0.1-0.2,0.1H563c-0.1,0-0.1,0-0.1-0.1c0,0-0.1-0.1-0.1-0.1c0-0.1,0-0.2,0.1-0.4
				c0.1-0.1,0.2-0.3,0.3-0.4c0.2-0.1,0.4-0.2,0.6-0.3c0.2-0.1,0.5-0.1,0.9-0.1c0.4,0,0.7,0,1,0.1c0.3,0.1,0.5,0.2,0.6,0.4
				c0.2,0.2,0.3,0.3,0.3,0.5c0.1,0.2,0.1,0.4,0.1,0.7v2.8c0,0.1,0,0.1-0.1,0.2s-0.1,0.1-0.2,0.1h-0.7c-0.1,0-0.1,0-0.2-0.1
				s-0.1-0.1-0.1-0.2v-0.4c-0.1,0.1-0.2,0.2-0.3,0.3c-0.1,0.1-0.3,0.2-0.5,0.2C564.7,277.5,564.4,277.5,564.2,277.5z M564.5,276.6
				c0.2,0,0.4,0,0.6-0.1c0.2-0.1,0.3-0.2,0.4-0.4s0.1-0.4,0.1-0.7v-0.2l-0.9,0.1c-0.4,0.1-0.6,0.1-0.8,0.3c-0.2,0.1-0.3,0.3-0.3,0.4
				c0,0.1,0,0.2,0.1,0.3c0.1,0.1,0.2,0.2,0.3,0.2C564.2,276.6,564.4,276.6,564.5,276.6z"/>
			<path fill="#FFFFFF" d="M568.2,277.4c-0.1,0-0.1,0-0.2-0.1s-0.1-0.1-0.1-0.2v-6c0-0.1,0-0.1,0.1-0.2c0,0,0.1-0.1,0.2-0.1h0.7
				c0.1,0,0.1,0,0.2,0.1c0,0,0.1,0.1,0.1,0.2v6c0,0.1,0,0.1-0.1,0.2c0,0-0.1,0.1-0.2,0.1H568.2z"/>
			<path fill="#FFFFFF" d="M514.3,287.3c-0.3,0-0.5-0.1-0.8-0.2c-0.2-0.1-0.4-0.3-0.5-0.4c-0.1-0.2-0.3-0.4-0.3-0.7
				s-0.1-0.5-0.1-0.9c0-0.1,0-0.2,0-0.3s0-0.2,0-0.3c0-0.3,0.1-0.6,0.1-0.8c0.1-0.3,0.2-0.5,0.3-0.7c0.1-0.2,0.3-0.3,0.6-0.5
				s0.5-0.2,0.8-0.2c0.3,0,0.6,0.1,0.8,0.2c0.2,0.1,0.4,0.3,0.5,0.4v-2c0-0.1,0-0.1,0.1-0.2c0,0,0.1-0.1,0.1-0.1h0.7
				c0.1,0,0.1,0,0.1,0.1c0,0,0.1,0.1,0.1,0.2v6c0,0.1,0,0.1-0.1,0.2s-0.1,0.1-0.1,0.1h-0.7c-0.1,0-0.1,0-0.1-0.1
				c0,0-0.1-0.1-0.1-0.2v-0.3c-0.1,0.2-0.3,0.3-0.5,0.5C514.9,287.3,514.7,287.3,514.3,287.3z M514.7,286.4c0.2,0,0.4-0.1,0.6-0.2
				c0.1-0.1,0.2-0.3,0.3-0.4c0.1-0.2,0.1-0.4,0.1-0.5c0-0.1,0-0.2,0-0.3s0-0.2,0-0.3c0-0.2,0-0.4-0.1-0.5c-0.1-0.2-0.2-0.3-0.3-0.4
				c-0.1-0.1-0.3-0.2-0.5-0.2c-0.2,0-0.4,0.1-0.6,0.2s-0.2,0.3-0.3,0.4c-0.1,0.2-0.1,0.4-0.1,0.6c0,0.2,0,0.4,0,0.5
				c0,0.2,0,0.4,0.1,0.6s0.2,0.3,0.3,0.4S514.4,286.4,514.7,286.4z"/>
			<path fill="#FFFFFF" d="M518.1,287.2c-0.1,0-0.1,0-0.1-0.1s-0.1-0.1-0.1-0.2v-4.2c0-0.1,0-0.1,0.1-0.2c0,0,0.1-0.1,0.1-0.1h0.7
				c0.1,0,0.1,0,0.1,0.1c0,0,0.1,0.1,0.1,0.2v0.4c0.1-0.2,0.3-0.3,0.5-0.4c0.2-0.1,0.4-0.2,0.7-0.2h0.3c0.1,0,0.1,0,0.1,0.1
				c0,0,0.1,0.1,0.1,0.2v0.7c0,0.1,0,0.1-0.1,0.2s-0.1,0.1-0.1,0.1h-0.7c-0.3,0-0.5,0.1-0.6,0.2c-0.1,0.2-0.2,0.4-0.2,0.7v2.5
				c0,0.1,0,0.1-0.1,0.2s-0.1,0.1-0.2,0.1H518.1z"/>
			<path fill="#FFFFFF" d="M521.5,281.8c-0.1,0-0.1,0-0.1-0.1c0,0-0.1-0.1-0.1-0.2v-0.6c0-0.1,0-0.1,0.1-0.2c0,0,0.1-0.1,0.1-0.1
				h0.8c0.1,0,0.1,0,0.2,0.1s0.1,0.1,0.1,0.2v0.6c0,0.1,0,0.1-0.1,0.2s-0.1,0.1-0.2,0.1H521.5z M521.6,287.2c-0.1,0-0.1,0-0.1-0.1
				s-0.1-0.1-0.1-0.2v-4.3c0-0.1,0-0.1,0.1-0.2c0,0,0.1-0.1,0.1-0.1h0.7c0.1,0,0.1,0,0.1,0.1c0,0,0.1,0.1,0.1,0.2v4.3
				c0,0.1,0,0.1-0.1,0.2c0,0-0.1,0.1-0.1,0.1H521.6z"/>
			<path fill="#FFFFFF" d="M525.1,287.2c-0.1,0-0.2,0-0.2-0.1s-0.1-0.1-0.1-0.2l-1.6-4.2c0,0,0-0.1,0-0.1c0-0.1,0-0.1,0.1-0.1
				c0,0,0.1-0.1,0.1-0.1h0.7c0.1,0,0.1,0,0.2,0.1s0.1,0.1,0.1,0.1l1.1,3.2l1.1-3.2c0,0,0-0.1,0.1-0.1s0.1-0.1,0.2-0.1h0.7
				c0,0,0.1,0,0.1,0.1c0,0,0.1,0.1,0.1,0.1c0,0,0,0.1,0,0.1L526,287c0,0.1-0.1,0.1-0.1,0.2c0,0-0.1,0.1-0.2,0.1H525.1z"/>
			<path fill="#FFFFFF" d="M528.6,281.8c-0.1,0-0.1,0-0.1-0.1s-0.1-0.1-0.1-0.2v-0.6c0-0.1,0-0.1,0.1-0.2s0.1-0.1,0.1-0.1h0.8
				c0.1,0,0.1,0,0.2,0.1s0.1,0.1,0.1,0.2v0.6c0,0.1,0,0.1-0.1,0.2s-0.1,0.1-0.2,0.1H528.6z M528.6,287.2c-0.1,0-0.1,0-0.1-0.1
				s-0.1-0.1-0.1-0.2v-4.3c0-0.1,0-0.1,0.1-0.2c0,0,0.1-0.1,0.1-0.1h0.7c0.1,0,0.1,0,0.1,0.1c0,0,0.1,0.1,0.1,0.2v4.3
				c0,0.1,0,0.1-0.1,0.2s-0.1,0.1-0.1,0.1H528.6z"/>
			<path fill="#FFFFFF" d="M530.8,287.2c-0.1,0-0.1,0-0.1-0.1s-0.1-0.1-0.1-0.2v-4.3c0-0.1,0-0.1,0.1-0.2c0,0,0.1-0.1,0.1-0.1h0.7
				c0.1,0,0.1,0,0.1,0.1c0,0,0.1,0.1,0.1,0.2v0.4c0.1-0.2,0.3-0.4,0.6-0.5c0.2-0.1,0.5-0.2,0.8-0.2c0.3,0,0.6,0.1,0.9,0.2
				c0.3,0.2,0.4,0.4,0.6,0.7s0.2,0.7,0.2,1.1v2.5c0,0.1,0,0.1-0.1,0.2s-0.1,0.1-0.1,0.1h-0.7c-0.1,0-0.1,0-0.1-0.1s-0.1-0.1-0.1-0.2
				v-2.5c0-0.3-0.1-0.6-0.2-0.8c-0.2-0.2-0.4-0.3-0.7-0.3c-0.3,0-0.5,0.1-0.7,0.3c-0.2,0.2-0.3,0.5-0.3,0.8v2.5c0,0.1,0,0.1-0.1,0.2
				s-0.1,0.1-0.1,0.1H530.8z"/>
			<path fill="#FFFFFF" d="M537.8,289.2c-0.4,0-0.7-0.1-1-0.2c-0.3-0.1-0.5-0.3-0.6-0.4c-0.2-0.2-0.3-0.3-0.3-0.5
				c-0.1-0.2-0.1-0.3-0.1-0.4c0-0.1,0-0.1,0.1-0.2c0,0,0.1-0.1,0.1-0.1h0.7c0.1,0,0.1,0,0.1,0c0,0,0.1,0.1,0.1,0.1
				c0,0.1,0.1,0.2,0.1,0.3c0.1,0.1,0.1,0.2,0.3,0.2c0.1,0.1,0.3,0.1,0.5,0.1c0.2,0,0.4,0,0.5-0.1s0.3-0.2,0.3-0.3
				c0.1-0.2,0.1-0.4,0.1-0.6v-0.6c-0.1,0.2-0.3,0.3-0.5,0.4c-0.2,0.1-0.5,0.2-0.8,0.2c-0.3,0-0.6-0.1-0.8-0.2
				c-0.2-0.1-0.4-0.3-0.5-0.4s-0.3-0.4-0.3-0.7s-0.1-0.5-0.1-0.9c0-0.2,0-0.3,0-0.5c0-0.3,0.1-0.6,0.1-0.8c0.1-0.3,0.2-0.5,0.3-0.7
				s0.3-0.3,0.5-0.5c0.2-0.1,0.5-0.2,0.8-0.2c0.3,0,0.6,0.1,0.8,0.2c0.2,0.1,0.4,0.3,0.5,0.5v-0.4c0-0.1,0-0.1,0.1-0.2
				c0,0,0.1-0.1,0.1-0.1h0.7c0.1,0,0.1,0,0.1,0.1c0,0,0.1,0.1,0.1,0.2l0,4.3c0,0.4-0.1,0.8-0.2,1.1c-0.2,0.3-0.4,0.6-0.7,0.7
				C538.7,289.1,538.3,289.2,537.8,289.2z M537.8,286.3c0.2,0,0.4-0.1,0.6-0.2c0.1-0.1,0.2-0.2,0.3-0.4c0.1-0.2,0.1-0.4,0.1-0.5
				c0-0.1,0-0.2,0-0.3s0-0.2,0-0.3c0-0.2,0-0.4-0.1-0.5c-0.1-0.2-0.2-0.3-0.3-0.4c-0.1-0.1-0.3-0.2-0.6-0.2s-0.4,0.1-0.6,0.2
				c-0.1,0.1-0.2,0.3-0.3,0.4c-0.1,0.2-0.1,0.4-0.1,0.6c0,0.1,0,0.3,0,0.4c0,0.2,0,0.4,0.1,0.6c0.1,0.2,0.2,0.3,0.3,0.4
				C537.4,286.2,537.5,286.3,537.8,286.3z"/>
			<path fill="#FFFFFF" d="M543.1,287.2c-0.1,0-0.1,0-0.1-0.1s-0.1-0.1-0.1-0.2v-6c0-0.1,0-0.1,0.1-0.2c0,0,0.1-0.1,0.1-0.1h0.7
				c0.1,0,0.1,0,0.1,0.1c0,0,0.1,0.1,0.1,0.2v6c0,0.1,0,0.1-0.1,0.2s-0.1,0.1-0.1,0.1H543.1z"/>
			<path fill="#FFFFFF" d="M545.3,281.8c-0.1,0-0.1,0-0.1-0.1c0,0-0.1-0.1-0.1-0.2v-0.6c0-0.1,0-0.1,0.1-0.2c0,0,0.1-0.1,0.1-0.1
				h0.8c0.1,0,0.1,0,0.2,0.1s0.1,0.1,0.1,0.2v0.6c0,0.1,0,0.1-0.1,0.2s-0.1,0.1-0.2,0.1H545.3z M545.4,287.2c-0.1,0-0.1,0-0.1-0.1
				s-0.1-0.1-0.1-0.2v-4.3c0-0.1,0-0.1,0.1-0.2c0,0,0.1-0.1,0.1-0.1h0.7c0.1,0,0.1,0,0.1,0.1c0,0,0.1,0.1,0.1,0.2v4.3
				c0,0.1,0,0.1-0.1,0.2c0,0-0.1,0.1-0.1,0.1H545.4z"/>
			<path fill="#FFFFFF" d="M549.3,287.3c-0.4,0-0.8-0.1-1.1-0.2s-0.5-0.4-0.7-0.7c-0.2-0.3-0.3-0.7-0.3-1.1c0-0.1,0-0.2,0-0.4
				s0-0.3,0-0.4c0-0.4,0.1-0.8,0.3-1.1c0.2-0.3,0.4-0.5,0.7-0.7s0.7-0.2,1.1-0.2c0.4,0,0.7,0.1,0.9,0.2s0.5,0.2,0.6,0.4
				c0.2,0.2,0.3,0.3,0.4,0.5c0.1,0.2,0.1,0.3,0.1,0.5c0,0.1,0,0.1-0.1,0.2c0,0-0.1,0.1-0.1,0.1h-0.7c-0.1,0-0.1,0-0.1,0
				s-0.1-0.1-0.1-0.1c-0.1-0.2-0.2-0.4-0.3-0.5c-0.1-0.1-0.3-0.1-0.5-0.1c-0.3,0-0.5,0.1-0.7,0.3c-0.2,0.2-0.3,0.5-0.3,0.9
				c0,0.2,0,0.4,0,0.6c0,0.4,0.1,0.7,0.3,0.9c0.2,0.2,0.4,0.3,0.7,0.3c0.2,0,0.4,0,0.5-0.1c0.1-0.1,0.2-0.3,0.3-0.5
				c0-0.1,0.1-0.1,0.1-0.1s0.1,0,0.1,0h0.7c0.1,0,0.1,0,0.1,0.1c0,0,0.1,0.1,0.1,0.2c0,0.1,0,0.2-0.1,0.4c0,0.1-0.1,0.3-0.2,0.4
				c-0.1,0.1-0.2,0.3-0.4,0.4c-0.2,0.1-0.3,0.2-0.6,0.3C549.8,287.3,549.5,287.3,549.3,287.3z"/>
			<path fill="#FFFFFF" d="M554,287.3c-0.6,0-1.1-0.2-1.5-0.6s-0.6-0.9-0.6-1.6c0-0.1,0-0.1,0-0.2c0-0.1,0-0.2,0-0.2
				c0-0.5,0.1-0.8,0.3-1.2c0.2-0.3,0.4-0.6,0.7-0.8c0.3-0.2,0.7-0.3,1.1-0.3c0.5,0,0.8,0.1,1.1,0.3s0.5,0.5,0.7,0.8s0.2,0.8,0.2,1.2
				v0.2c0,0.1,0,0.1-0.1,0.2s-0.1,0.1-0.2,0.1h-2.8c0,0,0,0.1,0,0.1c0,0.2,0,0.4,0.1,0.6c0.1,0.2,0.2,0.3,0.3,0.4
				c0.1,0.1,0.3,0.2,0.5,0.2c0.2,0,0.3,0,0.4-0.1s0.2-0.1,0.3-0.2s0.1-0.1,0.1-0.2c0-0.1,0.1-0.1,0.1-0.1c0,0,0.1,0,0.1,0h0.7
				c0.1,0,0.1,0,0.1,0.1c0,0,0.1,0.1,0,0.1c0,0.1-0.1,0.2-0.1,0.4c-0.1,0.1-0.2,0.3-0.4,0.4c-0.2,0.1-0.4,0.2-0.6,0.3
				C554.6,287.3,554.4,287.3,554,287.3z M553.1,284.5h1.9v0c0-0.2,0-0.4-0.1-0.6c-0.1-0.2-0.2-0.3-0.3-0.4s-0.3-0.2-0.5-0.2
				c-0.2,0-0.4,0.1-0.5,0.2c-0.1,0.1-0.2,0.2-0.3,0.4S553.1,284.2,553.1,284.5L553.1,284.5z"/>
			<path fill="#FFFFFF" d="M557.2,287.2c-0.1,0-0.1,0-0.1-0.1s-0.1-0.1-0.1-0.2v-4.3c0-0.1,0-0.1,0.1-0.2c0,0,0.1-0.1,0.1-0.1h0.7
				c0.1,0,0.1,0,0.1,0.1c0,0,0.1,0.1,0.1,0.2v0.4c0.1-0.2,0.3-0.4,0.6-0.5c0.2-0.1,0.5-0.2,0.8-0.2c0.3,0,0.6,0.1,0.9,0.2
				c0.3,0.2,0.4,0.4,0.6,0.7c0.1,0.3,0.2,0.7,0.2,1.1v2.5c0,0.1,0,0.1-0.1,0.2s-0.1,0.1-0.1,0.1h-0.7c-0.1,0-0.1,0-0.1-0.1
				s-0.1-0.1-0.1-0.2v-2.5c0-0.3-0.1-0.6-0.2-0.8c-0.2-0.2-0.4-0.3-0.7-0.3c-0.3,0-0.5,0.1-0.7,0.3c-0.2,0.2-0.3,0.5-0.3,0.8v2.5
				c0,0.1,0,0.1-0.1,0.2s-0.1,0.1-0.1,0.1H557.2z"/>
			<path fill="#FFFFFF" d="M563.9,287.3c-0.3,0-0.6,0-0.9-0.1c-0.2-0.1-0.4-0.2-0.6-0.3c-0.2-0.1-0.3-0.3-0.3-0.4
				c-0.1-0.1-0.1-0.2-0.1-0.3c0-0.1,0-0.1,0.1-0.2s0.1-0.1,0.1-0.1h0.7c0,0,0,0,0.1,0c0,0,0,0,0.1,0.1c0.1,0.1,0.2,0.1,0.2,0.2
				c0.1,0.1,0.2,0.1,0.3,0.2c0.1,0.1,0.3,0.1,0.4,0.1c0.2,0,0.4,0,0.5-0.1c0.1-0.1,0.2-0.2,0.2-0.4c0-0.1,0-0.2-0.1-0.3
				s-0.2-0.1-0.4-0.2c-0.2-0.1-0.4-0.1-0.7-0.2c-0.3-0.1-0.6-0.2-0.8-0.3s-0.4-0.3-0.5-0.5c-0.1-0.2-0.2-0.4-0.2-0.6
				c0-0.2,0.1-0.5,0.2-0.7c0.1-0.2,0.3-0.4,0.6-0.5s0.6-0.2,1-0.2c0.3,0,0.6,0,0.8,0.1s0.4,0.2,0.6,0.3c0.1,0.1,0.3,0.2,0.3,0.4
				s0.1,0.2,0.1,0.3c0,0.1,0,0.1-0.1,0.2s-0.1,0.1-0.1,0.1h-0.6c0,0-0.1,0-0.1,0s0,0-0.1,0c-0.1-0.1-0.1-0.1-0.2-0.2
				c-0.1-0.1-0.2-0.1-0.3-0.2c-0.1-0.1-0.2-0.1-0.4-0.1c-0.2,0-0.4,0-0.5,0.1c-0.1,0.1-0.2,0.2-0.2,0.4c0,0.1,0,0.2,0.1,0.3
				c0.1,0.1,0.2,0.1,0.3,0.2c0.2,0.1,0.4,0.1,0.7,0.2c0.4,0.1,0.7,0.2,0.9,0.3c0.2,0.1,0.4,0.3,0.5,0.5c0.1,0.2,0.1,0.4,0.1,0.6
				c0,0.3-0.1,0.5-0.2,0.7s-0.4,0.4-0.7,0.5S564.3,287.3,563.9,287.3z"/>
			<path fill="#FFFFFF" d="M568.6,287.3c-0.6,0-1.1-0.2-1.5-0.6c-0.4-0.4-0.6-0.9-0.6-1.6c0-0.1,0-0.1,0-0.2c0-0.1,0-0.2,0-0.2
				c0-0.5,0.1-0.8,0.3-1.2c0.2-0.3,0.4-0.6,0.7-0.8c0.3-0.2,0.7-0.3,1.1-0.3c0.5,0,0.8,0.1,1.1,0.3c0.3,0.2,0.5,0.5,0.7,0.8
				c0.2,0.4,0.2,0.8,0.2,1.2v0.2c0,0.1,0,0.1-0.1,0.2s-0.1,0.1-0.2,0.1h-2.8c0,0,0,0.1,0,0.1c0,0.2,0,0.4,0.1,0.6
				c0.1,0.2,0.2,0.3,0.3,0.4s0.3,0.2,0.5,0.2c0.2,0,0.3,0,0.4-0.1c0.1-0.1,0.2-0.1,0.3-0.2c0.1-0.1,0.1-0.1,0.1-0.2
				c0.1-0.1,0.1-0.1,0.1-0.1c0,0,0.1,0,0.1,0h0.7c0.1,0,0.1,0,0.1,0.1c0,0,0.1,0.1,0,0.1c0,0.1-0.1,0.2-0.1,0.4
				c-0.1,0.1-0.2,0.3-0.4,0.4c-0.2,0.1-0.4,0.2-0.6,0.3C569.2,287.3,568.9,287.3,568.6,287.3z M567.7,284.5h1.9v0
				c0-0.2,0-0.4-0.1-0.6s-0.2-0.3-0.3-0.4c-0.1-0.1-0.3-0.2-0.5-0.2s-0.4,0.1-0.5,0.2c-0.1,0.1-0.2,0.2-0.3,0.4
				C567.7,284,567.7,284.2,567.7,284.5L567.7,284.5z"/>
		</g>
	</g>
	<g>
		<path fill="#DAB429" d="M804.1,206.3c0-7.9,6.4-14.2,14.3-14.1c7.8,0.1,14.1,6.5,14.1,14.3c0,7.8-6.4,14.1-14.2,14.1
			C810.4,220.6,804.1,214.2,804.1,206.3z M831.6,206.3c0-7.4-6-13.3-13.4-13.3c-7.4,0-13.3,6-13.3,13.4c0,7.4,6,13.3,13.4,13.3
			C825.7,219.7,831.6,213.8,831.6,206.3z"/>
		<g>
			<g>
				<path fill="#DAB429" d="M818.3,213.6c-2.5,0-5.1,0-7.6,0c-1,0-1.9-0.7-2.1-1.7c0-0.1,0-0.3,0-0.4c0-3.2,0-6.3,0-9.5
					c0-1,0.8-1.9,1.8-2.1c0.1,0,0.3,0,0.4,0c5.1,0,10.2,0,15.3,0c1,0,1.9,0.7,2.1,1.7c0,0.1,0,0.3,0,0.4c0,3.2,0,6.3,0,9.5
					c0,1-0.8,1.9-1.8,2.1c-0.1,0-0.3,0-0.4,0C823.4,213.6,820.9,213.6,818.3,213.6z M818.3,212.8c2.6,0,5.1,0,7.7,0
					c0.7,0,1.3-0.6,1.3-1.3c0-3.1,0-6.3,0-9.4c0-0.7-0.6-1.3-1.3-1.3c-5.1,0-10.2,0-15.4,0c-0.7,0-1.3,0.6-1.3,1.3
					c0,3.1,0,6.3,0,9.4c0,0.1,0,0.2,0,0.3c0.1,0.6,0.6,1,1.3,1C813.2,212.8,815.7,212.8,818.3,212.8z"/>
				<path fill="#DAB429" d="M814.5,211.1c-0.9,0-1.7,0-2.6,0c0,0.1,0,0.1,0,0.2c0,0.1-0.1,0.2-0.2,0.2c-0.1,0-0.3,0-0.4,0
					c-0.1,0-0.2-0.1-0.2-0.2c0-0.6,0-1.3,0-1.9c0-0.1,0.1-0.2,0.1-0.3c0.1-0.3,0.2-0.5,0.2-0.7c0.1-0.4,0.4-0.6,0.8-0.6
					c0.6,0,1.3,0,1.9,0c0.4,0,0.7,0.2,0.8,0.6c0.1,0.3,0.2,0.7,0.3,1c0,0,0,0.1,0,0.1c0,0.6,0,1.3,0,1.9c0,0.2-0.1,0.2-0.3,0.2
					c-0.1,0-0.2,0-0.4,0c-0.1,0-0.2-0.1-0.2-0.2C814.5,211.2,814.5,211.1,814.5,211.1z M812.2,208.5c-0.1,0.3-0.2,0.6-0.3,0.9
					c0.8,0,1.7,0,2.5,0c-0.1-0.3-0.2-0.5-0.3-0.8c0,0,0,0-0.1,0C813.5,208.5,812.8,208.5,812.2,208.5z M812.3,210.2
					c0-0.2-0.2-0.4-0.4-0.4c-0.2,0-0.4,0.2-0.4,0.4c0,0.2,0.2,0.4,0.4,0.4C812.1,210.6,812.3,210.4,812.3,210.2z M814.5,210.6
					c0.2,0,0.4-0.2,0.4-0.4c0-0.2-0.2-0.4-0.4-0.4c-0.2,0-0.4,0.2-0.4,0.4C814,210.4,814.2,210.6,814.5,210.6z"/>
				<path fill="#DAB429" d="M811,206.8c0-0.4,0.2-0.6,0.5-0.8c0.2-0.1,0.4-0.2,0.5-0.3c0.1-0.1,0.3-0.2,0.4-0.2
					c0.1-0.1,0.1-0.2,0.1-0.3c0,0,0-0.1,0-0.1c0-0.2,0-0.3-0.1-0.4c-0.1-0.1-0.1-0.2-0.1-0.4c0,0,0-0.1-0.1-0.1
					c-0.1-0.1-0.2-0.4-0.1-0.5c0-0.1,0-0.1,0-0.1c-0.2-0.4-0.1-0.9,0.3-1.2c0.3-0.2,0.6-0.3,0.9-0.3c0,0,0.1,0,0.1,0
					c0,0.1,0.1,0.2,0.3,0.2c0.3,0.1,0.4,0.3,0.5,0.6c0.1,0.2,0.1,0.5-0.1,0.7c0.1,0.2,0.1,0.5-0.1,0.6c0,0,0,0,0,0.1
					c0,0.2-0.1,0.4-0.2,0.5c0,0,0,0.1,0,0.1c0,0.1,0,0.3,0,0.4c0,0.1,0.1,0.2,0.2,0.3c0.2,0.1,0.3,0.2,0.5,0.3
					c0.2,0.1,0.5,0.2,0.6,0.4c0.2,0.2,0.3,0.4,0.3,0.6C813.9,206.8,812.5,206.8,811,206.8z"/>
				<path fill="#DAB429" d="M822.3,203.8c0.9,0,1.9,0,2.8,0c0.2,0,0.3,0.1,0.4,0.2c0.1,0.2,0.1,0.3-0.1,0.5
					c-0.1,0.1-0.2,0.2-0.4,0.2c-0.8,0-1.6,0-2.4,0c-1,0-2.1,0-3.1,0c-0.2,0-0.4-0.2-0.4-0.4c0-0.2,0.1-0.4,0.3-0.5c0,0,0.1,0,0.1,0
					C820.5,203.8,821.4,203.8,822.3,203.8z"/>
				<path fill="#DAB429" d="M822.3,207.2c0.9,0,1.9,0,2.8,0c0.2,0,0.3,0.1,0.4,0.2c0.1,0.2,0.1,0.3-0.1,0.5
					c-0.1,0.1-0.2,0.2-0.4,0.2c-0.8,0-1.6,0-2.3,0c-1.1,0-2.1,0-3.2,0c-0.2,0-0.4-0.2-0.4-0.4c0-0.2,0.1-0.4,0.3-0.5
					c0,0,0.1,0,0.1,0C820.5,207.2,821.4,207.2,822.3,207.2z"/>
				<path fill="#DAB429" d="M821.7,206.4c-0.7,0-1.4,0-2.1,0c-0.2,0-0.4-0.2-0.4-0.4c0-0.2,0.1-0.4,0.3-0.5c0,0,0.1,0,0.1,0
					c1.4,0,2.8,0,4.3,0c0.3,0,0.5,0.2,0.5,0.4c0,0.3-0.2,0.4-0.5,0.4C823.1,206.4,822.4,206.4,821.7,206.4z"/>
				<path fill="#DAB429" d="M821.7,208.9c0.7,0,1.4,0,2.2,0c0.2,0,0.3,0.1,0.4,0.2c0.1,0.2,0.1,0.3-0.1,0.5
					c-0.1,0.1-0.2,0.2-0.4,0.2c-1.4,0-2.7,0-4.1,0c-0.1,0-0.1,0-0.2,0c-0.2,0-0.4-0.2-0.4-0.4c0-0.2,0.2-0.4,0.4-0.4
					C820.3,208.9,821,208.9,821.7,208.9z"/>
				<path fill="#DAB429" d="M817.4,202.1c-0.2,0-0.4-0.2-0.4-0.4c0-0.2,0.2-0.4,0.4-0.4c0.2,0,0.4,0.2,0.4,0.4
					C817.9,201.9,817.7,202.1,817.4,202.1z"/>
				<path fill="#DAB429" d="M817.5,203.4c-0.2,0-0.4-0.2-0.4-0.4c0-0.2,0.2-0.4,0.4-0.4c0.2,0,0.4,0.2,0.4,0.4
					C817.9,203.2,817.7,203.4,817.5,203.4z"/>
				<path fill="#DAB429" d="M817.9,204.2c0,0.2-0.2,0.4-0.4,0.4c-0.2,0-0.4-0.2-0.4-0.4c0-0.2,0.2-0.4,0.4-0.4
					C817.7,203.8,817.9,204,817.9,204.2z"/>
				<path fill="#DAB429" d="M817.9,205.5c0,0.2-0.2,0.4-0.4,0.4c-0.2,0-0.4-0.2-0.4-0.4c0-0.2,0.2-0.4,0.4-0.4
					C817.7,205.1,817.9,205.3,817.9,205.5z"/>
				<path fill="#DAB429" d="M817.4,206.4c0.2,0,0.4,0.2,0.4,0.4c0,0.2-0.2,0.4-0.4,0.4c-0.2,0-0.4-0.2-0.4-0.4
					C817,206.6,817.2,206.4,817.4,206.4z"/>
				<path fill="#DAB429" d="M817.4,207.6c0.2,0,0.4,0.2,0.4,0.4c0,0.2-0.2,0.4-0.4,0.4c-0.2,0-0.4-0.2-0.4-0.4
					C817,207.8,817.2,207.6,817.4,207.6z"/>
				<path fill="#DAB429" d="M817,209.3c0-0.2,0.2-0.4,0.4-0.4c0.2,0,0.4,0.2,0.4,0.4c0,0.2-0.2,0.4-0.4,0.4
					C817.2,209.8,817,209.6,817,209.3z"/>
				<path fill="#DAB429" d="M817.4,211.1c-0.2,0-0.4-0.2-0.4-0.4c0-0.2,0.2-0.4,0.4-0.4s0.4,0.2,0.4,0.4
					C817.9,210.9,817.7,211.1,817.4,211.1z"/>
				<path fill="#DAB429" d="M817.4,211.5c0.2,0,0.4,0.2,0.4,0.4c0,0.2-0.2,0.4-0.4,0.4c-0.2,0-0.4-0.2-0.4-0.4
					C817,211.7,817.2,211.5,817.4,211.5z"/>
			</g>
		</g>
	</g>
</g>
</svg>
