<?xml version="1.0" encoding="utf-8"?>
<!-- Generator: Adobe Illustrator 26.1.0, SVG Export Plug-In . SVG Version: 6.00 Build 0)  -->
<svg version="1.1" id="Layer_1" xmlns="http://www.w3.org/2000/svg" xmlns:xlink="http://www.w3.org/1999/xlink" x="0px" y="0px"
	 viewBox="0 0 24.7 24.7" enable-background="new 0 0 24.7 24.7" xml:space="preserve">
<g>
	<path d="M12.4,1.7C18.2,1.7,23,6.5,23,12.4S18.2,23,12.4,23C6.5,23,1.7,18.2,1.7,12.4S6.5,1.7,12.4,1.7 M12.4,0C5.5,0,0,5.5,0,12.4
		s5.5,12.4,12.4,12.4s12.4-5.5,12.4-12.4S19.2,0,12.4,0L12.4,0z"/>
	<path d="M18.9,9.1c-0.1-0.9-0.4-1.6-1.1-2.2s-1.5-0.9-2.4-1C13.9,5.8,10.3,5.8,9,6C7.5,6.2,6.6,7.1,6.2,8.5
		C5.9,9.6,6,14.7,6.1,15.9c0.2,1.5,1.1,2.5,2.6,2.9c1,0.3,6.1,0.2,7.2,0c1.5-0.2,2.5-1.1,2.9-2.6C19.1,15,19,10.2,18.9,9.1z
		 M17.7,15.7c-0.2,1.1-0.9,1.9-2.1,2c-1.1,0.1-5.8,0.2-6.8-0.1c-0.9-0.3-1.5-0.9-1.6-1.8c-0.1-0.9-0.2-5.4,0-6.6
		c0.2-1.1,0.9-1.8,2.1-2c1.2-0.1,5.3-0.1,6.4,0c1.1,0.2,1.8,0.9,2,2.1C17.9,10.3,17.9,14.5,17.7,15.7z M12.5,9
		c-1.9,0-3.4,1.5-3.4,3.4s1.5,3.4,3.4,3.4s3.4-1.5,3.4-3.4C15.8,10.5,14.3,9,12.5,9z M12.5,14.6c-1.2,0-2.2-1-2.2-2.2s1-2.2,2.2-2.2
		s2.2,1,2.2,2.2C14.6,13.6,13.7,14.6,12.5,14.6z M16.8,8.9c0,0.4-0.4,0.8-0.8,0.8c-0.4,0-0.8-0.4-0.8-0.8c0-0.4,0.4-0.8,0.8-0.8
		C16.4,8.1,16.8,8.5,16.8,8.9z"/>
	<path d="M18.9,9.1c-0.1-0.9-0.4-1.6-1.1-2.2s-1.5-0.9-2.4-1C13.9,5.8,10.3,5.8,9,6C7.5,6.2,6.6,7.1,6.2,8.5
		C5.9,9.6,6,14.7,6.1,15.9c0.2,1.5,1.1,2.5,2.6,2.9c1,0.3,6.1,0.2,7.2,0c1.5-0.2,2.5-1.1,2.9-2.6C19.1,15,19,10.2,18.9,9.1z
		 M17.7,15.7c-0.2,1.1-0.9,1.9-2.1,2c-1.1,0.1-5.8,0.2-6.8-0.1c-0.9-0.3-1.5-0.9-1.6-1.8c-0.1-0.9-0.2-5.4,0-6.6
		c0.2-1.1,0.9-1.8,2.1-2c1.2-0.1,5.3-0.1,6.4,0c1.1,0.2,1.8,0.9,2,2.1C17.9,10.3,17.9,14.5,17.7,15.7z M12.5,9
		c-1.9,0-3.4,1.5-3.4,3.4s1.5,3.4,3.4,3.4s3.4-1.5,3.4-3.4C15.8,10.5,14.3,9,12.5,9z M12.5,14.6c-1.2,0-2.2-1-2.2-2.2s1-2.2,2.2-2.2
		s2.2,1,2.2,2.2C14.6,13.6,13.7,14.6,12.5,14.6z M16.8,8.9c0,0.4-0.4,0.8-0.8,0.8c-0.4,0-0.8-0.4-0.8-0.8c0-0.4,0.4-0.8,0.8-0.8
		C16.4,8.1,16.8,8.5,16.8,8.9z"/>
</g>
</svg>
