<?xml version="1.0" encoding="utf-8"?>
<!-- Generator: Adobe Illustrator 26.1.0, SVG Export Plug-In . SVG Version: 6.00 Build 0)  -->
<svg version="1.1" id="svg3215" xmlns:svg="http://www.w3.org/2000/svg"
	 xmlns="http://www.w3.org/2000/svg" xmlns:xlink="http://www.w3.org/1999/xlink" x="0px" y="0px" viewBox="0 0 458.4 458.4"
	 enable-background="new 0 0 458.4 458.4" xml:space="preserve">
<g>
	<path d="M229.2,0C101.7,0,0,101.7,0,229.2c0,125.7,101.7,229.2,229.2,229.2c125.7,0,229.2-101.7,229.2-229.2
		C456.5,101.7,354.9,0,229.2,0z M229.2,425.1c-109,0-197.8-88.7-197.8-195.9c0-109,88.7-197.8,197.8-197.8
		c107.2,0,195.9,88.7,195.9,197.8C425.1,336.4,336.4,425.1,229.2,425.1z"/>
</g>
<g>
	<g>
		<g>
			<g>
				<path d="M229.6,338.8c-38.2,0-76.4,0-114.7,0c-15.7,0-28.4-10-32-25.4c-0.5-2-0.7-4-0.7-6.1c0-47.4-0.1-94.8,0-142.2
					c0-15,11.6-28.5,26.4-30.9c2-0.3,4.1-0.5,6.1-0.5c76.6,0,153.2,0,229.7,0c15.6,0,28.4,10.3,31.8,25.5c0.4,1.9,0.7,4,0.7,5.9
					c0,47.3,0,94.7,0,142c0,15.1-11.6,28.6-26.6,31c-2,0.3-4,0.5-6,0.5C306.2,338.8,267.9,338.8,229.6,338.8z M229.5,326
					c38.4,0,76.9,0,115.3,0c10.9,0,19.4-8.5,19.4-19.4c0-46.9,0-93.8,0-140.7c0-10.9-8.5-19.4-19.4-19.4c-76.9,0-153.7,0-230.6,0
					c-10.7,0-19.2,8.5-19.2,19.2c0,47,0,94,0,141c0,1.3,0.1,2.7,0.4,4c2,9.2,9.6,15.3,19.1,15.3C152.9,326,191.2,326,229.5,326z"/>
				<path d="M172,300.4c-12.9,0-25.6,0-38.5,0c0,1,0,2.1,0,3.1c0,1.9-1.3,3.3-3.3,3.3c-2.1,0-4.2,0-6.3,0c-1.9,0-3.2-1.4-3.2-3.3
					c0-9.7-0.1-19.4,0.1-29.1c0-1.6,0.8-3.1,1.3-4.7c1.2-3.8,2.5-7.5,3.7-11.2c1.9-5.8,6.7-9.3,12.7-9.3c9.5,0,19,0,28.6,0
					c6.1,0,10.8,3.5,12.7,9.3c1.6,5,3.2,9.9,4.9,14.9c0.1,0.4,0.2,1,0.2,1.4c0,9.4,0,18.9,0,28.3c0,2.5-1.2,3.7-3.8,3.7
					c-1.9,0-3.7,0-5.6,0c-2.1,0-3.4-1.3-3.4-3.4C172,302.4,172,301.5,172,300.4z M138.1,261.9c-1.5,4.3-2.9,8.5-4.4,12.8
					c12.7,0,25.3,0,38,0c-1.4-4.1-2.8-8.1-4.2-12.1c-0.1-0.3-0.6-0.6-0.9-0.6C157.2,261.9,147.7,261.9,138.1,261.9z M139.9,287.5
					c0-3.5-2.9-6.3-6.4-6.4c-3.5,0-6.4,2.9-6.4,6.5c0,3.5,2.9,6.3,6.4,6.4C137,293.9,140,291,139.9,287.5z M172,293.9
					c3.5,0,6.4-2.9,6.4-6.3c0-3.5-2.9-6.5-6.4-6.5c-3.5,0-6.4,2.9-6.4,6.3C165.5,291,168.5,293.9,172,293.9z"/>
				<path d="M120.7,236.2c0.3-5.5,2.9-9.6,7.5-12.2c2.6-1.5,5.5-2.6,8.1-4c2-1.1,3.9-2.3,5.7-3.6c1.2-0.9,1.7-2.3,1.6-3.8
					c0-0.5,0-1,0-1.5c0.1-2.4,0-4.6-1.6-6.7c-1.2-1.5-1.5-3.7-2.2-5.6c-0.2-0.4-0.4-0.9-0.8-1.1c-2.1-1.3-3.2-5.6-1.8-7.6
					c0.5-0.8,0.4-1.4,0.2-2.2c-2.3-6.5-0.8-13.2,4.2-17.5c3.8-3.3,8.3-4.4,13.2-4.5c0.3,0,0.9,0.4,1,0.7c0.6,1.9,1.7,2.8,3.8,3.3
					c4.5,0.9,6.4,4.5,7.3,8.6c0.8,3.6,0.8,7.2-0.9,10.7c2.1,2.7,1.4,6.8-1.4,8.7c-0.3,0.2-0.5,0.6-0.5,0.9c-0.6,2.8-1.6,5.4-3.5,7.7
					c-0.3,0.3-0.4,0.8-0.4,1.2c0,1.9,0,3.8,0.1,5.7c0.1,1.8,1.1,3.1,2.5,3.9c2.5,1.4,5.1,2.7,7.7,3.9c3.4,1.5,6.9,2.9,9.7,5.5
					c2.8,2.6,4.1,5.8,4.4,9.6C163.4,236.2,142.2,236.2,120.7,236.2z"/>
				<path d="M290.1,191.4c14,0,27.9,0,41.9,0c2.7,0,4.8,1.2,6,3.7c1.1,2.4,0.8,4.7-0.8,6.8c-1.3,1.7-3.2,2.4-5.3,2.4
					c-12.2,0-24.4,0-36.6,0c-15.7,0-31.3,0-47,0c-3.4,0-6.2-2.4-6.5-5.5c-0.4-3.5,1.6-6.4,5-7.2c0.6-0.1,1.1-0.1,1.7-0.1
					C262.5,191.4,276.3,191.4,290.1,191.4z"/>
				<path d="M290.1,242.7c14,0,28,0,42,0c2.7,0,4.7,1.2,5.9,3.7c1.1,2.4,0.8,4.7-0.8,6.8c-1.3,1.7-3.2,2.4-5.3,2.4
					c-11.7,0-23.5,0-35.2,0c-16.1,0-32.2,0-48.3,0c-3.4,0-6.2-2.4-6.5-5.5c-0.4-3.5,1.6-6.4,5-7.2c0.6-0.1,1.1-0.1,1.7-0.1
					C262.5,242.7,276.3,242.7,290.1,242.7z"/>
				<path d="M280.6,229.8c-10.7,0-21.4,0-32.2,0c-3.3,0-6.1-2.3-6.5-5.4c-0.4-3.5,1.6-6.5,5-7.3c0.5-0.1,1.1-0.1,1.6-0.1
					c21.4,0,42.7,0,64.1,0c4,0,6.8,2.6,6.9,6.4c0,3.8-2.8,6.4-6.8,6.4C301.9,229.8,291.2,229.8,280.6,229.8z"/>
				<path d="M280.7,268.3c10.8,0,21.5,0,32.3,0c2.7,0,4.7,1.2,5.9,3.7c1.1,2.4,0.8,4.7-0.8,6.8c-1.4,1.7-3.2,2.4-5.4,2.4
					c-20.3,0-40.7,0-61,0c-1.1,0-2.2,0-3.3,0c-3.6,0-6.4-2.8-6.4-6.5c0-3.6,2.8-6.3,6.3-6.3C259,268.3,269.9,268.3,280.7,268.3z"/>
				<path d="M216.9,165.8c-3.5,0-6.4-2.9-6.4-6.3c0-3.5,2.9-6.5,6.4-6.5c3.5,0,6.4,2.9,6.4,6.4C223.2,162.9,220.3,165.7,216.9,165.8
					z"/>
				<path d="M216.9,185c-3.5,0-6.4-2.8-6.5-6.3c-0.1-3.5,2.8-6.5,6.3-6.5c3.5,0,6.5,2.9,6.5,6.4C223.2,182,220.4,184.9,216.9,185z"
					/>
				<path d="M223.2,197.8c0,3.5-2.9,6.4-6.4,6.4c-3.5,0-6.3-2.9-6.4-6.4c0-3.5,2.9-6.4,6.4-6.4C220.3,191.4,223.2,194.3,223.2,197.8
					z"/>
				<path d="M223.2,217c0,3.5-2.9,6.5-6.4,6.4c-3.5,0-6.4-2.9-6.4-6.4c0-3.5,2.9-6.4,6.4-6.4C220.3,210.6,223.2,213.5,223.2,217z"/>
				<path d="M216.9,229.8c3.5,0,6.4,3,6.4,6.5c0,3.5-3,6.3-6.4,6.3c-3.5,0-6.4-3-6.4-6.5C210.5,232.7,213.4,229.8,216.9,229.8z"/>
				<path d="M216.8,249.1c3.5,0,6.4,2.9,6.4,6.4c0,3.5-2.9,6.4-6.4,6.4c-3.5,0-6.4-2.9-6.4-6.4C210.4,252,213.3,249.1,216.8,249.1z"
					/>
				<path d="M210.4,274.5c0.1-3.5,3.1-6.3,6.6-6.2c3.4,0.1,6.2,3.1,6.2,6.6c-0.1,3.5-3.1,6.3-6.6,6.2
					C213.2,281,210.4,278,210.4,274.5z"/>
				<path d="M216.8,300.3c-3.5,0-6.4-2.9-6.4-6.3c0-3.5,2.9-6.5,6.4-6.5c3.5,0,6.4,2.9,6.4,6.5C223.2,297.5,220.3,300.3,216.8,300.3
					z"/>
				<path d="M216.8,306.8c3.5,0,6.4,2.9,6.4,6.4c0,3.5-2.9,6.4-6.4,6.4c-3.5,0-6.4-2.9-6.4-6.4C210.4,309.7,213.3,306.8,216.8,306.8
					z"/>
			</g>
		</g>
	</g>
</g>
</svg>
