<?xml version="1.0" encoding="utf-8"?>
<!-- Generator: Adobe Illustrator 26.1.0, SVG Export Plug-In . SVG Version: 6.00 Build 0)  -->
<svg version="1.1" id="Layer_1" xmlns="http://www.w3.org/2000/svg" xmlns:xlink="http://www.w3.org/1999/xlink" x="0px" y="0px"
	 viewBox="0 0 24.7 24.7" enable-background="new 0 0 24.7 24.7" xml:space="preserve">
<g>
	<path d="M21.7,13.9c-0.5-0.4-1-0.7-1.4-1c-0.1-0.1-0.1-0.2-0.1-0.3c0.2-1.4,0.2-2.8-0.3-4.2c-1.1,0-2.2,0-3.3,0
		c0.1,0.9,0.1,1.7,0.2,2.6c-0.7,0-1.3,0.2-1.8,0.7c-0.1-1.1-0.1-2.2-0.2-3.3c-2.3,0-4.5,0-6.7,0c-0.3,1.8-0.3,3.5,0,5.3c2,0,4,0,6,0
		c0,0.6,0,1.2,0,1.8c-1.9,0-3.8,0-5.7,0c0.1,0.3,0.1,0.5,0.2,0.7c0.3,1,0.7,1.9,1.3,2.7c0.2,0.3,0.5,0.6,0.8,0.8
		c0.4,0.3,0.9,0.3,1.4,0c0.4-0.3,0.7-0.6,0.9-0.9c0.4-0.6,0.6-1.2,0.9-1.8c0-0.1,0.1-0.1,0.1-0.2c0,1.5,0,3,0,4.5
		c-3.3,1-8.2,0.1-11.2-3.9C-0.2,13.3,0,7.8,3.4,4c3.2-3.7,8.8-4.6,13-2.2C21.1,4.2,23,9.4,21.7,13.9z M8.5,6.6c2,0,4,0,6,0V6.5
		c0-0.1-0.1-0.3-0.1-0.4C14,5,13.6,3.9,12.8,2.9c-0.9-1-1.8-1-2.7,0C9.3,4,8.8,5.3,8.5,6.6z M6.3,8.4c-1.1,0-2.2,0-3.3,0
		c-0.5,1.8-0.5,3.5,0,5.3c1.1,0,2.2,0,3.3,0C6.1,11.9,6.1,10.2,6.3,8.4z M19.1,6.6c-1-1.7-2.4-2.9-4.1-3.7C15,3,15,3,15,3
		c0.6,1.1,1,2.3,1.3,3.5c0,0.1,0.1,0.1,0.2,0.1C17.4,6.6,18.2,6.6,19.1,6.6z M3.8,6.6c1,0,1.9,0,2.8,0C6.9,5.3,7.3,4.1,7.9,3
		C6.2,3.7,4.8,4.9,3.8,6.6z M7.9,19.1c-0.6-1.2-1-2.4-1.3-3.6c-0.9,0-1.8,0-2.8,0C4.8,17.1,6.2,18.3,7.9,19.1z"/>
	<path d="M20.7,19.5c0.6,1.2,1.2,2.3,1.7,3.5c0.1,0.2,0.1,0.4,0.1,0.7c0,0.4-0.4,0.7-0.7,0.7c-0.4,0.1-0.7-0.1-0.9-0.5
		c-0.5-1-1-2-1.5-2.9c-0.1-0.2-0.2-0.3-0.3-0.6c-0.2,0.2-0.4,0.4-0.5,0.6c-0.4,0.4-0.7,0.8-1.1,1.2c-0.3,0.4-0.7,0.5-1.1,0.3
		c-0.4-0.1-0.6-0.5-0.6-0.9c0-2.6,0-5.2,0-7.8c0-0.4,0.2-0.7,0.5-0.8c0.3-0.2,0.6-0.1,0.9,0.1c2,1.4,3.9,2.8,5.9,4.2
		c0.1,0.1,0.2,0.1,0.3,0.2c0.3,0.2,0.4,0.5,0.3,0.9s-0.4,0.6-0.8,0.7c-0.8,0.1-1.5,0.3-2.3,0.4C20.8,19.4,20.7,19.4,20.7,19.5z"/>
</g>
</svg>
