<?xml version="1.0" encoding="utf-8"?>
<!-- Generator: Adobe Illustrator 26.1.0, SVG Export Plug-In . SVG Version: 6.00 Build 0)  -->
<svg version="1.1" id="Layer_1" xmlns="http://www.w3.org/2000/svg" xmlns:xlink="http://www.w3.org/1999/xlink" x="0px" y="0px"
	 viewBox="0 0 24.7 24.7" enable-background="new 0 0 24.7 24.7" xml:space="preserve">
<g>
	<path d="M12.4,1.7C18.2,1.7,23,6.5,23,12.4S18.2,23,12.4,23C6.5,23,1.7,18.2,1.7,12.4S6.5,1.7,12.4,1.7 M12.4,0C5.5,0,0,5.5,0,12.4
		s5.5,12.4,12.4,12.4c6.8,0,12.4-5.5,12.4-12.4S19.2,0,12.4,0L12.4,0z"/>
	<path d="M7.1,9.8h2.5v8.1H7.1V9.8z M8.3,5.8c0.8,0,1.5,0.7,1.5,1.5S9.1,8.8,8.3,8.8C7.5,8.7,6.9,8,6.9,7.2S7.5,5.8,8.3,5.8"/>
	<path d="M11.2,9.8h2.4v1.1l0,0c0.3-0.6,1.2-1.3,2.4-1.3c2.5,0,3,1.7,3,3.8v4.4h-2.5v-3.9c0-0.9,0-2.1-1.3-2.1s-1.5,1-1.5,2.1v4
		h-2.5V9.8z"/>
</g>
</svg>
