<?xml version="1.0" encoding="utf-8"?>
<!-- Generator: Adobe Illustrator 26.1.0, SVG Export Plug-In . SVG Version: 6.00 Build 0)  -->
<svg version="1.1" id="Layer_1" xmlns="http://www.w3.org/2000/svg" xmlns:xlink="http://www.w3.org/1999/xlink" x="0px" y="0px"
	 viewBox="0 0 24.7 24.7" enable-background="new 0 0 24.7 24.7" xml:space="preserve">
<g>
	<path fill="#010101" d="M12.5,3.8c-2,0-5.5,0.9-5.5,6C7,15.5,12.5,21,12.5,21S18,15.5,18,9.8C18,5.1,14.5,3.8,12.5,3.8z M12.5,12.2
		c-1.6,0-2.9-1.3-2.9-2.9c0-1.6,1.3-2.9,2.9-2.9s2.9,1.3,2.9,2.9C15.4,10.9,14.1,12.2,12.5,12.2z"/>
	<circle fill="#010101" cx="12.5" cy="9" r="1.3"/>
	<path fill="#010101" d="M12.5,0C5.7,0,0.2,5.5,0.2,12.4c0,6.9,5.5,12.4,12.4,12.4c6.8,0,12.4-5.5,12.4-12.4C25,5.5,19.3,0,12.5,0z
		 M12.5,23.1C6.6,23,1.8,18.2,1.8,12.4c0-5.9,4.8-10.7,10.7-10.7s10.7,4.8,10.7,10.7C23.2,18.3,18.4,23.1,12.5,23.1z"/>
</g>
</svg>
