<?xml version="1.0" encoding="utf-8"?>
<!-- Generator: Adobe Illustrator 26.1.0, SVG Export Plug-In . SVG Version: 6.00 Build 0)  -->
<svg version="1.1" id="Layer_1" xmlns="http://www.w3.org/2000/svg" xmlns:xlink="http://www.w3.org/1999/xlink" x="0px" y="0px"
	 viewBox="0 0 800 800" enable-background="new 0 0 800 800" xml:space="preserve">
<desc>Created with Sketch.</desc>
<g>
	<path d="M799.7,293.7C792.6,129.2,647.5,0,481.5,0H339.8C152.5,0,7.4,129.2,0.3,293.8c-6.9,158.9,109.4,293.7,261.9,315.5
		c21.4,3.1,39.9,17.3,50.5,36.1L400,800l87.3-154c10.6-18.8,29.1-32.1,50.5-35.2C690.3,589,806.6,452.6,799.7,293.7z M526.4,532
		c-45.2,6.5-86,34.7-108.8,75.2L400,638.2l-17.5-31c-22.9-40.5-63.6-68.5-108.8-74.9C158.3,515.9,75.2,412.9,80.2,297.2
		C85.5,174.9,197.1,79.4,339.8,79.4h148l-6.4,3.2c126.3,0,233.2,98,238.3,216.2C724.8,414.5,641.7,515.5,526.4,532z"/>
	<path d="M207.8,242.3c-44.2,0-80,35.5-80,79.4c0,43.9,35.8,79.4,80,79.4s80-35.5,80-79.4C287.8,277.8,252,242.3,207.8,242.3z"/>
	<path d="M407.8,242.3c-44.2,0-80,35.5-80,79.4c0,43.9,35.8,79.4,80,79.4s80-35.5,80-79.4C487.8,277.8,452,242.3,407.8,242.3z"/>
	<path d="M607.8,242.3c-44.2,0-80,35.5-80,79.4c0,43.9,35.8,79.4,80,79.4c44.2,0,80-35.5,80-79.4C687.8,277.8,652,242.3,607.8,242.3
		z"/>
</g>
</svg>
