<?xml version="1.0" encoding="utf-8"?>
<!-- Generator: Adobe Illustrator 26.1.0, SVG Export Plug-In . SVG Version: 6.00 Build 0)  -->
<svg version="1.1" id="Layer_1" xmlns="http://www.w3.org/2000/svg" xmlns:xlink="http://www.w3.org/1999/xlink" x="0px" y="0px"
	 viewBox="0 0 24.7 24.7" enable-background="new 0 0 24.7 24.7" xml:space="preserve">
<g>
	<path d="M12.4,0C5.5,0,0,5.5,0,12.4c0,6.9,5.5,12.4,12.4,12.4c6.8,0,12.4-5.5,12.4-12.4C24.8,5.5,19.2,0,12.4,0z M12.4,23
		C6.5,23,1.7,18.2,1.7,12.4c0-5.9,4.8-10.7,10.7-10.7C18.2,1.7,23,6.5,23,12.4C23,18.2,18.2,23,12.4,23z"/>
	<path d="M15.2,6.1H9.5c-0.8,0-1.4,0.6-1.4,1.4v9.9c0,0.8,0.6,1.4,1.4,1.4h5.7c0.8,0,1.4-0.6,1.4-1.4v-10C16.6,6.7,16,6.1,15.2,6.1z
		 M12.4,17.4c-0.4,0-0.8-0.3-0.8-0.8c0-0.4,0.3-0.8,0.8-0.8c0.4,0,0.8,0.3,0.8,0.8C13.1,17.1,12.8,17.4,12.4,17.4z M15.4,15.1H9.3
		V7.3h6.1V15.1z"/>
</g>
</svg>
