<?xml version="1.0" encoding="utf-8"?>
<!-- Generator: Adobe Illustrator 26.1.0, SVG Export Plug-In . SVG Version: 6.00 Build 0)  -->
<svg version="1.1" id="_x32_" xmlns="http://www.w3.org/2000/svg" xmlns:xlink="http://www.w3.org/1999/xlink" x="0px" y="0px"
	 viewBox="0 0 458.4 458.4" enable-background="new 0 0 458.4 458.4" xml:space="preserve">
<g>
	<path d="M297.7,290.6c-2.4-0.9-5-2.2-7.7-3.6l-44.7,61.8l-3.2-40.5h-23.7l-3.2,40.5L170.4,287c-2.8,1.6-5.4,2.8-7.7,3.6
		c-23.4,8.2-80.9,31.9-77.2,76.3c0.9,10.6,57.5,69.7,142.7,69.7c85.2,0,145.7-59.1,146.6-69.7C378.6,322.5,320.9,299.3,297.7,290.6z
		"/>
	<path d="M177.4,199c3.2,18.4,8.7,34.7,15.9,42.7c0,9.6,0,16.6,0,22.2c0,0.6-0.1,1.2-0.2,1.8l25.2,12.2v17.8h23.7v-17.8l25.2-12.2
		c-0.2-0.6-0.2-1.2-0.2-1.8c0-5.6,0-12.6,0-22.2c7.2-8,12.7-24.3,15.9-42.7c7.6-2.7,11.9-7,17.3-26c5.8-20.2-8.7-19.5-8.7-19.5
		c11.7-38.6-3.7-74.9-29.4-72.3c-17.7-31.1-77.2,7.1-95.8,4.4c0,10.6,4.4,18.6,4.4,18.6c-6.5,12.3-4,36.8-2.2,49.2
		c-1.1,0-14.1,0.1-8.6,19.5C165.5,192,169.8,196.3,177.4,199z"/>
</g>
<g>
	<g>
		<g>
			<path d="M229.2,0C101.7,0,0,101.7,0,229.2c0,125.7,101.7,229.2,229.2,229.2c125.7,0,229.2-101.7,229.2-229.2
				C456.5,101.7,354.9,0,229.2,0z M229.2,425.1c-109,0-197.8-88.7-197.8-195.9c0-109,88.7-197.8,197.8-197.8
				c107.2,0,195.9,88.7,195.9,197.8C425.1,336.4,336.4,425.1,229.2,425.1z"/>
		</g>
	</g>
</g>
</svg>
