<?xml version="1.0" encoding="utf-8"?>
<!-- Generator: Adobe Illustrator 26.1.0, SVG Export Plug-In . SVG Version: 6.00 Build 0)  -->
<svg version="1.1" id="Layer_1" xmlns="http://www.w3.org/2000/svg" xmlns:xlink="http://www.w3.org/1999/xlink" x="0px" y="0px"
	 viewBox="0 0 24.7 24.7" enable-background="new 0 0 24.7 24.7" xml:space="preserve">
<g>
	<path d="M12.4,1.7C18.2,1.7,23,6.5,23,12.4C23,18.2,18.2,23,12.4,23C6.5,23,1.7,18.2,1.7,12.4C1.7,6.5,6.5,1.7,12.4,1.7 M12.4,0
		C5.5,0,0,5.5,0,12.4s5.5,12.4,12.4,12.4c6.8,0,12.4-5.5,12.4-12.4S19.2,0,12.4,0L12.4,0z"/>
	<path fill-rule="evenodd" clip-rule="evenodd" d="M11.5,15.2v0.1c-0.5,2-0.6,2.5-1.1,3.4c-0.3,0.5-0.5,0.9-0.9,1.3l-0.1,0.1
		c-0.1,0-0.1-0.1-0.1-0.2c-0.1-0.6-0.1-1.2-0.1-1.9c0-0.8,0.1-1.1,1.2-5.5c0-0.1,0-0.1,0-0.2c-0.4-0.6-0.4-1.3-0.2-2
		c0.5-1.5,2.2-1.6,2.5-0.4c0.2,0.8-0.3,1.8-0.7,3.3c-0.3,1.2,1.1,2.1,2.4,1.2c1.1-0.8,1.6-2.8,1.5-4.2c-0.2-2.8-3.2-3.4-5.2-2.5
		C8.5,8.7,8,11.5,9,12.8c0.1,0.2,0.2,0.3,0.2,0.4C9.1,13.5,9.1,13.7,9,14c-0.1,0.2-0.2,0.3-0.4,0.2c-0.4-0.2-0.7-0.4-0.9-0.7
		c-0.9-1.1-1.1-3.2,0-4.9c1.3-2,3.6-2.8,5.7-2.5c2.5,0.3,4.2,2,4.5,4c0.1,0.9,0,3.1-1.2,4.7c-1.5,1.8-3.8,1.9-4.9,0.8
		C11.6,15.4,11.5,15.3,11.5,15.2z"/>
</g>
</svg>
