<?xml version="1.0" encoding="utf-8"?>
<!-- Generator: Adobe Illustrator 26.1.0, SVG Export Plug-In . SVG Version: 6.00 Build 0)  -->
<svg version="1.1" id="Layer_1" xmlns="http://www.w3.org/2000/svg" xmlns:xlink="http://www.w3.org/1999/xlink" x="0px" y="0px"
	 viewBox="0 0 24.7 24.7" enable-background="new 0 0 24.7 24.7" xml:space="preserve">
<g>
	<path fill="#010101" d="M12.4,0C5.5,0,0,5.5,0,12.4c0,6.9,5.5,12.4,12.4,12.4c6.8,0,12.4-5.5,12.4-12.4C24.8,5.5,19.2,0,12.4,0z
		 M12.4,23C6.5,23,1.7,18.2,1.7,12.4c0-5.9,4.8-10.7,10.7-10.7C18.2,1.7,23,6.5,23,12.4C23,18.2,18.2,23,12.4,23z"/>
	<path fill="#010101" d="M15.6,7.5H8.8c-2.3,0-4.2,2.1-4.2,4.6v0.1c0,2.5,1.9,4.6,4.2,4.6h3.5l2.2,3.2c0,0,0.1-2.2,0.1-3.2h1
		c2.3,0,4.2-2.1,4.2-4.6v-0.1C19.8,9.5,17.9,7.5,15.6,7.5z M9.5,13.2c-0.5,0-0.9-0.4-0.9-0.9s0.4-0.9,0.9-0.9s0.9,0.4,0.9,0.9
		C10.5,12.8,10,13.2,9.5,13.2z M12.2,13.2c-0.5,0-0.9-0.4-0.9-0.9s0.4-0.9,0.9-0.9s0.9,0.4,0.9,0.9S12.7,13.2,12.2,13.2z M14.9,13.2
		c-0.5,0-0.9-0.4-0.9-0.9s0.4-0.9,0.9-0.9s0.9,0.4,0.9,0.9S15.4,13.2,14.9,13.2z"/>
</g>
</svg>
