<?xml version="1.0" encoding="utf-8"?>
<!-- Generator: Adobe Illustrator 26.1.0, SVG Export Plug-In . SVG Version: 6.00 Build 0)  -->
<svg version="1.1" id="Layer_1" xmlns="http://www.w3.org/2000/svg" xmlns:xlink="http://www.w3.org/1999/xlink" x="0px" y="0px"
	 viewBox="0 0 24.7 24.7" enable-background="new 0 0 24.7 24.7" xml:space="preserve">
<g>
	<path d="M12.4,0C5.5,0,0,5.5,0,12.4c0,6.9,5.5,12.4,12.4,12.4c6.8,0,12.4-5.5,12.4-12.4C24.8,5.5,19.2,0,12.4,0z M12.4,23
		C6.5,23,1.7,18.2,1.7,12.4S6.5,1.7,12.4,1.7C18.2,1.7,23,6.5,23,12.4C23,18.3,18.2,23,12.4,23z"/>
	<path d="M18.5,15.1L18.5,15.1h-0.2c-0.1,0-0.5,0-1.1-0.5c-0.8-0.6-1.1-1.2-1.2-1.7c0.1-0.1,0.4-0.3,0.6-0.3c0.1,0,0.1,0,0.2-0.1
		c0.5-0.2,0.8-0.5,0.9-0.8c0-0.1,0-0.4-0.2-0.7c-0.2-0.2-0.5-0.3-0.7-0.3c-0.3,0-0.5,0.1-0.7,0.2V9.4c0.1-2.1-1.6-3.8-3.7-3.8h-0.1
		c-2.1,0-3.8,1.7-3.8,3.8v1.5c-0.2-0.1-0.5-0.2-0.7-0.2c-0.3,0-0.5,0.1-0.7,0.3c-0.3,0.3-0.3,0.6-0.2,0.7C7,12,7.3,12.3,7.8,12.5
		c0.1,0,0.1,0,0.2,0.1c0,0.1,0.3,0.2,0.4,0.4c-0.1,0.4-0.4,1-1.2,1.6c-0.6,0.5-1,0.5-1.1,0.5H6H5.9c-0.4,0-0.5,0.3-0.5,0.4
		c-0.1,0.5,0.1,1.1,1,1.3c0.3,0.1,0.5,0.1,0.6,0.1s0.1,0,0.2,0c0,0.1,0.1,0.2,0.1,0.3c0,0.2,0.2,0.6,0.7,0.6c0.1,0,0.2,0,0.3,0
		c0.2,0,0.6-0.1,0.9-0.1s0.4,0,0.4,0.1c0.1,0,0.3,0.2,0.4,0.3c0.5,0.4,1.2,0.9,2.2,1c1,0,1.7-0.6,2.2-1c0.2-0.1,0.3-0.3,0.4-0.3
		c0,0,0.1-0.1,0.4-0.1s0.7,0,0.9,0.1c0.2,0,0.3,0,0.3,0c0.5,0,0.6-0.4,0.7-0.6c0-0.1,0-0.2,0.1-0.3c0,0,0.1,0,0.2,0
		c0.1,0,0.3-0.1,0.6-0.1c1-0.2,1.2-0.8,1-1.3C19,15.4,18.9,15.1,18.5,15.1z M18,16.2c-0.8,0.2-1,0.1-1.1,0.5
		c-0.2,0.4-0.1,0.6-0.3,0.6c-0.1,0-0.7-0.1-1.3-0.1c-0.2,0-0.5,0-0.6,0.1c-0.5,0.2-1.3,1.2-2.4,1.2c-1.2-0.1-1.9-1-2.4-1.2
		c-0.2-0.1-0.4-0.1-0.6-0.1c-0.5,0-1.1,0.1-1.3,0.1s-0.1-0.2-0.3-0.6s-0.3-0.3-1.1-0.5c-0.8-0.2-0.7-0.6-0.7-0.7c0,0,0,0,0.1,0h0.1
		c0.2,0,0.7,0,1.4-0.6c0.8-0.6,1.3-1.4,1.4-2c0-0.5-0.7-0.7-1.1-0.9c-0.5-0.2-0.8-0.4-0.5-0.7c0.1-0.1,0.3-0.2,0.4-0.2
		c0.2,0,0.3,0.1,0.5,0.2c0.1,0.1,0.3,0.1,0.4,0.1c0.1,0,0.3,0,0.3,0c0-0.6,0-1.3,0-2c0-1.8,1.5-3.3,3.3-3.3h0.2
		c1.8,0,3.3,1.5,3.3,3.3c0,0.7,0,1.4,0,2c0.1,0,0.2,0,0.3,0s0.3,0,0.4-0.1c0.2-0.1,0.4-0.2,0.5-0.2c0.1,0,0.3,0.1,0.4,0.2
		c0.3,0.3,0,0.6-0.5,0.7c-0.4,0.2-1.1,0.3-1.1,0.9c0.2,0.7,0.6,1.4,1.4,2c0.7,0.5,1.2,0.6,1.4,0.6h0.1h0.1
		C18.7,15.6,18.8,16,18,16.2z"/>
</g>
</svg>
