<?xml version="1.0" encoding="utf-8"?>
<!-- Generator: Adobe Illustrator 26.1.0, SVG Export Plug-In . SVG Version: 6.00 Build 0)  -->
<svg version="1.1" id="Layer_1" xmlns="http://www.w3.org/2000/svg" xmlns:xlink="http://www.w3.org/1999/xlink" x="0px" y="0px"
	 viewBox="0 0 24.7 24.7" enable-background="new 0 0 24.7 24.7" xml:space="preserve">
<g>
	<path fill="#010101" d="M12.4,1.7C18.2,1.7,23,6.5,23,12.4C23,18.2,18.2,23,12.4,23C6.5,23,1.7,18.2,1.7,12.4
		C1.7,6.5,6.5,1.7,12.4,1.7 M12.4,0C5.5,0,0,5.5,0,12.4s5.5,12.4,12.4,12.4c6.8,0,12.4-5.5,12.4-12.4S19.2,0,12.4,0L12.4,0z"/>
	<g>
		<path fill="#010101" d="M12.2,15.7c0.3,0.4,0.7,0.4,1.3,0c0.4,1,2.3,4.5,2.3,4.5s-1.2,0.5-2.9-0.7c-1.1-0.8-3.3-3.1-4.7-6.5
			c-0.7-1.8-0.9-3.8-0.9-6c0-1.9,0.9-2.5,1.7-2.8l1.5,4.9c0,0-1.1,0.4-0.6,1.7C9.9,10.9,10.3,13.4,12.2,15.7z"/>
		<path fill="#010101" d="M9.6,4.1c0,0,1.3-0.5,2,0.9c0.7,1.3,1.2,3.4-0.5,4.1C10.7,7.8,9.6,4.1,9.6,4.1z"/>
		<path fill="#010101" d="M14.2,15.4l2.4,4.4c0,0,1.4-1,0.8-2c-0.5-1-1.2-2.2-1.2-2.2S15.6,14.6,14.2,15.4z"/>
	</g>
</g>
</svg>
