<?xml version="1.0" encoding="utf-8"?>
<!-- Generator: Adobe Illustrator 26.1.0, SVG Export Plug-In . SVG Version: 6.00 Build 0)  -->
<svg version="1.1" id="Layer_1" xmlns="http://www.w3.org/2000/svg" xmlns:xlink="http://www.w3.org/1999/xlink" x="0px" y="0px"
	 viewBox="0 0 24.7 24.7" enable-background="new 0 0 24.7 24.7" xml:space="preserve">
<g>
	<path fill="#010101" d="M12.4,1.7C18.2,1.7,23,6.5,23,12.4C23,18.2,18.2,23,12.4,23C6.5,23,1.7,18.2,1.7,12.4
		C1.7,6.5,6.5,1.7,12.4,1.7 M12.4,0C5.5,0,0,5.5,0,12.4s5.5,12.4,12.4,12.4c6.8,0,12.4-5.5,12.4-12.4S19.2,0,12.4,0L12.4,0z"/>
	<g>
		<path fill="#010101" d="M19.9,10.4c-0.6-3.8-4.1-3.9-4.1-3.9s-1.6,0-3.3,0c0,0,0,0,0,0c-1.7,0-3.3,0-3.3,0S5.7,6.6,5,10.4
			c-0.2,1.3,0.7,1.2,0.7,1.2h1.7c1,0,1-1.2,1-1.2c0.2-0.9,0.7-2,2.5-2h1.6h0H14c1.8,0,2.3,1.1,2.5,2c0,0,0,1.2,1,1.2h1.7
			C19.2,11.6,20.1,11.7,19.9,10.4z"/>
		<path fill="#010101" d="M17.6,14.7c-1.7-3-2.5-4.2-2.5-4.2H9.9l-2.7,4.6c0,0-1.9,3.2,2.1,3.2c4,0,7.4,0,7.4,0S19.2,17.7,17.6,14.7
			z M12.6,16.7c-1.3,0-2.3-1-2.3-2.3c0-1.3,1-2.3,2.3-2.3c1.3,0,2.3,1,2.3,2.3C14.9,15.7,13.8,16.7,12.6,16.7z"/>
	</g>
</g>
</svg>
