<?xml version="1.0" encoding="utf-8"?>
<!-- Generator: Adobe Illustrator 26.1.0, SVG Export Plug-In . SVG Version: 6.00 Build 0)  -->
<svg version="1.1" id="Layer_1" xmlns="http://www.w3.org/2000/svg" xmlns:xlink="http://www.w3.org/1999/xlink" x="0px" y="0px"
	 viewBox="0 0 24.7 24.7" enable-background="new 0 0 24.7 24.7" xml:space="preserve">
<g>
	<g>
		<path d="M12.4,1.7C18.2,1.7,23,6.5,23,12.4C23,18.2,18.2,23,12.4,23S1.7,18.2,1.7,12.4C1.7,6.5,6.5,1.7,12.4,1.7 M12.4,0
			C5.5,0,0,5.5,0,12.4s5.5,12.4,12.4,12.4c6.8,0,12.4-5.5,12.4-12.4S19.2,0,12.4,0L12.4,0z"/>
		<g>
			<path d="M12.4,16.2c0.4,0.4,0.8,0.3,1.2-0.3c0.6,0.9,3.2,3.9,3.2,3.9s-1.1,0.7-3-0.1c-1.3-0.5-4-2.3-6-5.3
				c-1-1.5-1.7-3.4-2.1-5.6C5.3,6.9,6,6.2,6.8,5.8l2.6,4.4c0,0-1,0.6-0.2,1.8C9.1,12,10,14.3,12.4,16.2z"/>
			<path d="M7.4,5.4c0,0,1.2-0.8,2.1,0.4c1,1.2,1.9,3.1,0.4,4.1C9.2,8.8,7.4,5.4,7.4,5.4z"/>
			<path d="M14.3,15.5l3.3,3.8c0,0,1.1-1.3,0.4-2.1c-0.7-0.9-1.6-1.9-1.6-1.9S15.5,14.4,14.3,15.5z"/>
		</g>
	</g>
	<g>
		<path d="M19.7,13.8l-1-0.1c0-0.1,0-0.3,0-0.4c0-3-1.9-5.8-4.7-6.8l0.4-0.9c3.2,1.2,5.4,4.3,5.4,7.8C19.7,13.5,19.7,13.7,19.7,13.8
			z"/>
	</g>
	<g>
		<path d="M18,13.6l-1-0.2c0,0,0,0,0-0.1c0-2.4-1.5-4.6-3.8-5.4L13.5,7c2.7,1,4.5,3.5,4.5,6.4C18,13.4,18,13.5,18,13.6z"/>
	</g>
</g>
</svg>
