<?xml version="1.0" encoding="utf-8"?>
<!-- Generator: Adobe Illustrator 26.1.0, SVG Export Plug-In . SVG Version: 6.00 Build 0)  -->
<svg version="1.1" id="svg3215" xmlns:svg="http://www.w3.org/2000/svg"
	 xmlns="http://www.w3.org/2000/svg" xmlns:xlink="http://www.w3.org/1999/xlink" x="0px" y="0px" viewBox="0 0 458.4 458.4"
	 enable-background="new 0 0 458.4 458.4" xml:space="preserve">
<g>
	<path d="M229.2,0C101.7,0,0,101.7,0,229.2c0,125.7,101.7,229.2,229.2,229.2c125.7,0,229.2-101.7,229.2-229.2
		C456.5,101.7,354.9,0,229.2,0z M229.2,425.1c-109,0-197.8-88.7-197.8-195.9c0-109,88.7-197.8,197.8-197.8
		c107.2,0,195.9,88.7,195.9,197.8C425.1,336.4,336.4,425.1,229.2,425.1z"/>
</g>
<g>
	<g>
		<g>
			<path fill="#FFFFFF" d="M558.1,233.7c-0.4,0-0.7-0.1-0.9-0.2c-0.2-0.1-0.4-0.3-0.5-0.6c-0.1-0.2-0.2-0.6-0.2-0.9v-2h-0.7
				c-0.1,0-0.1,0-0.2-0.1c0,0-0.1-0.1-0.1-0.2v-0.5c0-0.1,0-0.1,0.1-0.2c0,0,0.1-0.1,0.2-0.1h0.7v-1.5c0-0.1,0-0.1,0.1-0.2
				c0,0,0.1-0.1,0.2-0.1h0.7c0.1,0,0.1,0,0.2,0.1c0,0,0.1,0.1,0.1,0.2v1.5h1.1c0.1,0,0.1,0,0.2,0.1c0,0,0.1,0.1,0.1,0.2v0.5
				c0,0.1,0,0.1-0.1,0.2c0,0-0.1,0.1-0.2,0.1h-1.1v2c0,0.2,0,0.4,0.1,0.6c0.1,0.1,0.2,0.2,0.5,0.2h0.6c0.1,0,0.1,0,0.2,0.1
				c0,0,0.1,0.1,0.1,0.2v0.6c0,0.1,0,0.1-0.1,0.2c0,0-0.1,0.1-0.2,0.1H558.1z"/>
			<path fill="#FFFFFF" d="M560,233.7c-0.1,0-0.1,0-0.2-0.1c0,0-0.1-0.1-0.1-0.2v-4.2c0-0.1,0-0.1,0.1-0.2c0,0,0.1-0.1,0.2-0.1h0.7
				c0.1,0,0.1,0,0.2,0.1c0,0,0.1,0.1,0.1,0.2v0.4c0.1-0.2,0.3-0.3,0.5-0.4c0.2-0.1,0.5-0.2,0.8-0.2h0.4c0.1,0,0.1,0,0.2,0.1
				c0,0,0.1,0.1,0.1,0.2v0.7c0,0.1,0,0.1-0.1,0.2s-0.1,0.1-0.2,0.1H562c-0.3,0-0.5,0.1-0.7,0.2c-0.2,0.2-0.2,0.4-0.2,0.7v2.5
				c0,0.1,0,0.1-0.1,0.2c0,0-0.1,0.1-0.2,0.1H560z"/>
			<path fill="#FFFFFF" d="M564.9,233.8c-0.3,0-0.6-0.1-0.8-0.2c-0.3-0.1-0.5-0.3-0.6-0.5c-0.1-0.2-0.2-0.4-0.2-0.7
				c0-0.4,0.2-0.8,0.5-1c0.3-0.2,0.8-0.4,1.3-0.5l1.2-0.2v-0.2c0-0.3-0.1-0.4-0.2-0.6c-0.1-0.1-0.3-0.2-0.7-0.2
				c-0.2,0-0.4,0-0.5,0.1s-0.2,0.2-0.3,0.3c0,0.1-0.1,0.1-0.2,0.1h-0.7c-0.1,0-0.1,0-0.1-0.1s0-0.1,0-0.1c0-0.1,0-0.2,0.1-0.4
				c0.1-0.1,0.2-0.3,0.3-0.4c0.2-0.1,0.4-0.2,0.6-0.3s0.5-0.1,0.9-0.1c0.4,0,0.7,0,1,0.1c0.3,0.1,0.5,0.2,0.6,0.4
				c0.2,0.2,0.3,0.3,0.3,0.5c0.1,0.2,0.1,0.4,0.1,0.7v2.8c0,0.1,0,0.1-0.1,0.2c0,0-0.1,0.1-0.2,0.1h-0.7c-0.1,0-0.1,0-0.2-0.1
				s-0.1-0.1-0.1-0.2v-0.4c-0.1,0.1-0.2,0.2-0.3,0.3s-0.3,0.2-0.5,0.2C565.4,233.8,565.2,233.8,564.9,233.8z M565.3,233
				c0.2,0,0.4,0,0.6-0.1c0.2-0.1,0.3-0.2,0.4-0.4s0.1-0.4,0.1-0.7v-0.2l-0.9,0.1c-0.4,0.1-0.6,0.1-0.8,0.3s-0.3,0.3-0.3,0.4
				c0,0.1,0,0.2,0.1,0.3c0.1,0.1,0.2,0.2,0.3,0.2C565,233,565.1,233,565.3,233z"/>
			<path fill="#FFFFFF" d="M569,233.7c-0.1,0-0.1,0-0.2-0.1c0,0-0.1-0.1-0.1-0.2v-4.3c0-0.1,0-0.1,0.1-0.2c0,0,0.1-0.1,0.2-0.1h0.7
				c0.1,0,0.1,0,0.2,0.1c0,0,0.1,0.1,0.1,0.2v0.4c0.2-0.2,0.4-0.4,0.6-0.5c0.2-0.1,0.5-0.2,0.9-0.2c0.4,0,0.7,0.1,1,0.2
				c0.3,0.2,0.5,0.4,0.6,0.7s0.2,0.7,0.2,1.1v2.5c0,0.1,0,0.1-0.1,0.2c0,0-0.1,0.1-0.2,0.1h-0.8c-0.1,0-0.1,0-0.2-0.1
				s-0.1-0.1-0.1-0.2V231c0-0.3-0.1-0.6-0.3-0.8c-0.2-0.2-0.4-0.3-0.7-0.3c-0.3,0-0.6,0.1-0.7,0.3c-0.2,0.2-0.3,0.5-0.3,0.8v2.5
				c0,0.1,0,0.1-0.1,0.2s-0.1,0.1-0.2,0.1H569z"/>
			<path fill="#FFFFFF" d="M576.1,233.8c-0.4,0-0.7,0-0.9-0.1s-0.5-0.2-0.6-0.3c-0.2-0.1-0.3-0.3-0.4-0.4c-0.1-0.1-0.1-0.2-0.1-0.3
				c0-0.1,0-0.1,0.1-0.2c0,0,0.1-0.1,0.1-0.1h0.7c0,0,0,0,0.1,0s0,0,0.1,0.1c0.1,0.1,0.2,0.1,0.2,0.2c0.1,0.1,0.2,0.1,0.3,0.2
				c0.1,0.1,0.3,0.1,0.5,0.1c0.2,0,0.4,0,0.6-0.1c0.2-0.1,0.2-0.2,0.2-0.4c0-0.1,0-0.2-0.1-0.3s-0.2-0.1-0.4-0.2
				c-0.2-0.1-0.5-0.1-0.8-0.2c-0.3-0.1-0.6-0.2-0.8-0.3s-0.4-0.3-0.5-0.5c-0.1-0.2-0.2-0.4-0.2-0.6c0-0.2,0.1-0.5,0.2-0.7
				c0.1-0.2,0.4-0.4,0.6-0.5s0.6-0.2,1-0.2c0.3,0,0.6,0,0.8,0.1s0.4,0.2,0.6,0.3c0.2,0.1,0.3,0.2,0.4,0.4s0.1,0.2,0.1,0.3
				c0,0.1,0,0.1-0.1,0.2c0,0-0.1,0.1-0.1,0.1h-0.7c0,0-0.1,0-0.1,0s0,0-0.1,0c-0.1-0.1-0.1-0.1-0.2-0.2c-0.1-0.1-0.2-0.1-0.3-0.2
				c-0.1-0.1-0.3-0.1-0.4-0.1c-0.2,0-0.4,0-0.5,0.1c-0.1,0.1-0.2,0.2-0.2,0.4c0,0.1,0,0.2,0.1,0.3s0.2,0.1,0.3,0.2
				c0.2,0.1,0.4,0.1,0.8,0.2c0.4,0.1,0.7,0.2,1,0.3c0.2,0.1,0.4,0.3,0.5,0.5c0.1,0.2,0.1,0.4,0.1,0.6c0,0.3-0.1,0.5-0.2,0.7
				s-0.4,0.4-0.7,0.5C577,233.8,576.6,233.8,576.1,233.8z"/>
			<path fill="#FFFFFF" d="M579.9,233.7c-0.1,0-0.1,0-0.2-0.1s-0.1-0.1-0.1-0.2V230h-0.7c-0.1,0-0.1,0-0.2-0.1s-0.1-0.1-0.1-0.2
				v-0.5c0-0.1,0-0.1,0.1-0.2c0,0,0.1-0.1,0.2-0.1h0.7v-0.4c0-0.4,0.1-0.7,0.2-0.9c0.1-0.2,0.3-0.4,0.6-0.5c0.3-0.1,0.6-0.2,1-0.2
				h0.6c0.1,0,0.1,0,0.2,0.1s0.1,0.1,0.1,0.2v0.5c0,0.1,0,0.1-0.1,0.2s-0.1,0.1-0.2,0.1h-0.6c-0.2,0-0.4,0.1-0.5,0.2
				c-0.1,0.1-0.1,0.3-0.1,0.5v0.3h1.1c0.1,0,0.1,0,0.2,0.1c0,0,0.1,0.1,0.1,0.2v0.5c0,0.1,0,0.1-0.1,0.2S582,230,582,230h-1.1v3.5
				c0,0.1,0,0.1-0.1,0.2c0,0-0.1,0.1-0.2,0.1H579.9z"/>
			<path fill="#FFFFFF" d="M584.9,233.8c-0.7,0-1.2-0.2-1.6-0.6c-0.4-0.4-0.6-0.9-0.6-1.6c0-0.1,0-0.1,0-0.2c0-0.1,0-0.2,0-0.2
				c0-0.5,0.1-0.8,0.3-1.2c0.2-0.3,0.4-0.6,0.8-0.8c0.3-0.2,0.7-0.3,1.1-0.3c0.5,0,0.9,0.1,1.2,0.3s0.6,0.5,0.7,0.8
				c0.2,0.4,0.3,0.8,0.3,1.2v0.2c0,0.1,0,0.1-0.1,0.2c0,0-0.1,0.1-0.2,0.1h-3c0,0,0,0.1,0,0.1c0,0.2,0,0.4,0.1,0.6
				c0.1,0.2,0.2,0.3,0.3,0.4s0.3,0.2,0.5,0.2c0.2,0,0.3,0,0.4-0.1c0.1-0.1,0.2-0.1,0.3-0.2s0.1-0.1,0.2-0.2c0.1-0.1,0.1-0.1,0.1-0.1
				c0,0,0.1,0,0.1,0h0.8c0.1,0,0.1,0,0.1,0.1s0.1,0.1,0,0.1c0,0.1-0.1,0.2-0.1,0.4c-0.1,0.1-0.2,0.3-0.4,0.4
				c-0.2,0.1-0.4,0.2-0.7,0.3C585.6,233.8,585.3,233.8,584.9,233.8z M583.9,231h2v0c0-0.2,0-0.4-0.1-0.6s-0.2-0.3-0.3-0.4
				s-0.3-0.2-0.5-0.2c-0.2,0-0.4,0.1-0.5,0.2s-0.3,0.2-0.3,0.4S583.9,230.7,583.9,231L583.9,231z"/>
			<path fill="#FFFFFF" d="M588.3,233.7c-0.1,0-0.1,0-0.2-0.1c0,0-0.1-0.1-0.1-0.2v-4.2c0-0.1,0-0.1,0.1-0.2c0,0,0.1-0.1,0.2-0.1
				h0.7c0.1,0,0.1,0,0.2,0.1c0,0,0.1,0.1,0.1,0.2v0.4c0.1-0.2,0.3-0.3,0.5-0.4c0.2-0.1,0.5-0.2,0.8-0.2h0.4c0.1,0,0.1,0,0.2,0.1
				c0,0,0.1,0.1,0.1,0.2v0.7c0,0.1,0,0.1-0.1,0.2s-0.1,0.1-0.2,0.1h-0.7c-0.3,0-0.5,0.1-0.7,0.2c-0.2,0.2-0.2,0.4-0.2,0.7v2.5
				c0,0.1,0,0.1-0.1,0.2c0,0-0.1,0.1-0.2,0.1H588.3z"/>
			<path fill="#FFFFFF" d="M593.6,233.8c-0.4,0-0.7,0-0.9-0.1s-0.5-0.2-0.6-0.3c-0.2-0.1-0.3-0.3-0.4-0.4c-0.1-0.1-0.1-0.2-0.1-0.3
				c0-0.1,0-0.1,0.1-0.2c0,0,0.1-0.1,0.1-0.1h0.7c0,0,0,0,0.1,0s0,0,0.1,0.1c0.1,0.1,0.2,0.1,0.2,0.2c0.1,0.1,0.2,0.1,0.3,0.2
				c0.1,0.1,0.3,0.1,0.5,0.1c0.2,0,0.4,0,0.6-0.1c0.2-0.1,0.2-0.2,0.2-0.4c0-0.1,0-0.2-0.1-0.3s-0.2-0.1-0.4-0.2
				c-0.2-0.1-0.5-0.1-0.8-0.2c-0.3-0.1-0.6-0.2-0.8-0.3s-0.4-0.3-0.5-0.5c-0.1-0.2-0.2-0.4-0.2-0.6c0-0.2,0.1-0.5,0.2-0.7
				c0.1-0.2,0.4-0.4,0.6-0.5s0.6-0.2,1-0.2c0.3,0,0.6,0,0.8,0.1s0.4,0.2,0.6,0.3c0.2,0.1,0.3,0.2,0.4,0.4s0.1,0.2,0.1,0.3
				c0,0.1,0,0.1-0.1,0.2c0,0-0.1,0.1-0.1,0.1h-0.7c0,0-0.1,0-0.1,0s0,0-0.1,0c-0.1-0.1-0.1-0.1-0.2-0.2c-0.1-0.1-0.2-0.1-0.3-0.2
				c-0.1-0.1-0.3-0.1-0.4-0.1c-0.2,0-0.4,0-0.5,0.1c-0.1,0.1-0.2,0.2-0.2,0.4c0,0.1,0,0.2,0.1,0.3s0.2,0.1,0.3,0.2
				c0.2,0.1,0.4,0.1,0.8,0.2c0.4,0.1,0.7,0.2,1,0.3c0.2,0.1,0.4,0.3,0.5,0.5c0.1,0.2,0.1,0.4,0.1,0.6c0,0.3-0.1,0.5-0.2,0.7
				s-0.4,0.4-0.7,0.5C594.5,233.8,594.1,233.8,593.6,233.8z"/>
		</g>
	</g>
	<g>
		<g>
			<g>
				<path d="M379.2,256.5c-1.8,3.9-4.4,6.9-9.1,7c-5.4,0.1-9.5-3.9-9.6-9.5c-0.3-14.8-4.6-28.2-13.8-39.8
					c-12.5-15.9-29-24.9-49.2-25.3c-30.6-0.6-61.2-0.2-91.8-0.2c-0.2,0-0.4,0.1-0.9,0.2c0,1-0.1,2.1-0.1,3.2c0,12,0,24,0,36
					c0,7.1-4.7,11.4-11,10.2c-1.9-0.4-3.9-1.5-5.3-2.8c-22.7-21.5-45.3-43.1-67.9-64.7c-4.4-4.2-4.4-9.9,0.1-14.2
					C143,135,165.5,113.5,188.1,92c3.1-2.9,6.6-4.2,10.7-2.4c4.2,1.8,5.9,5.1,5.9,9.5c0,11.9,0,23.8,0,35.7c0,1.2,0,2.3,0,3.9
					c1.5,0,2.7,0,3.9,0c26.4,0.1,52.8-0.4,79.2,0.4c26.8,0.8,49.2,12.3,67,32.2c13.8,15.3,21.7,33.5,23.9,54
					c0.1,0.7,0.4,1.3,0.5,1.9C379.2,237,379.2,246.7,379.2,256.5z"/>
				<path d="M254.4,263.3c0-1.3,0-2.4,0-3.6c0-12-0.1-24,0-36c0.1-6.9,5-11.4,11.2-9.9c2.1,0.5,4.2,2,5.9,3.5
					c20.9,19.8,41.6,39.7,62.4,59.5c1.4,1.3,2.8,2.7,4.2,4c4.9,4.8,5,10.2,0,15c-14.5,13.9-29,27.7-43.6,41.6
					c-7.9,7.5-15.7,15.1-23.7,22.6c-4.9,4.6-11.4,4.3-14.6-0.8c-1.3-2-1.8-4.7-1.8-7.2c-0.2-11.7-0.1-23.4-0.1-35.1
					c0-1.1,0-2.1,0-3.6c-1.5,0-2.7,0-3.9,0c-26.5-0.1-53,0.5-79.5-0.4c-26.8-0.9-49.2-12.4-66.9-32.4
					c-16.6-18.7-24.5-40.8-24.2-65.8c0.1-5.6,0-11.1,0-16.7c0-5.5,4-9.5,9.3-9.5c5.3,0,9.2,4,9.4,9.5c0.9,31.8,21.2,56.9,52,63.8
					c4.4,1,9.1,1.5,13.6,1.5c29.2,0.1,58.5,0.1,87.7,0.1C252.6,263.5,253.3,263.4,254.4,263.3z"/>
			</g>
		</g>
	</g>
</g>
<g>
	<g>
		<g>
			<path fill="#FFFFFF" d="M554.4,274.1c-0.1,0-0.1,0-0.2-0.1s-0.1-0.1-0.1-0.2v-0.6c0-0.1,0-0.1,0.1-0.2s0.1-0.1,0.2-0.1h0.8
				c0.1,0,0.1,0,0.2,0.1c0,0,0.1,0.1,0.1,0.2v0.6c0,0.1,0,0.1-0.1,0.2c0,0-0.1,0.1-0.2,0.1H554.4z M554.4,279.5
				c-0.1,0-0.1,0-0.2-0.1s-0.1-0.1-0.1-0.2V275c0-0.1,0-0.1,0.1-0.2c0,0,0.1-0.1,0.2-0.1h0.7c0.1,0,0.1,0,0.2,0.1
				c0,0,0.1,0.1,0.1,0.2v4.3c0,0.1,0,0.1-0.1,0.2s-0.1,0.1-0.2,0.1H554.4z"/>
			<path fill="#FFFFFF" d="M556.8,279.5c-0.1,0-0.1,0-0.2-0.1c0,0-0.1-0.1-0.1-0.2V275c0-0.1,0-0.1,0.1-0.2c0,0,0.1-0.1,0.2-0.1h0.7
				c0.1,0,0.1,0,0.2,0.1c0,0,0.1,0.1,0.1,0.2v0.4c0.2-0.2,0.4-0.4,0.6-0.5c0.2-0.1,0.5-0.2,0.9-0.2c0.4,0,0.7,0.1,1,0.2
				c0.3,0.2,0.5,0.4,0.6,0.7s0.2,0.7,0.2,1.1v2.5c0,0.1,0,0.1-0.1,0.2c0,0-0.1,0.1-0.2,0.1H560c-0.1,0-0.1,0-0.2-0.1
				c0,0-0.1-0.1-0.1-0.2v-2.5c0-0.3-0.1-0.6-0.3-0.8c-0.2-0.2-0.4-0.3-0.7-0.3c-0.3,0-0.6,0.1-0.7,0.3c-0.2,0.2-0.3,0.5-0.3,0.8v2.5
				c0,0.1,0,0.1-0.1,0.2s-0.1,0.1-0.2,0.1H556.8z"/>
			<path fill="#FFFFFF" d="M564.3,279.5c-0.4,0-0.7-0.1-0.9-0.2c-0.2-0.1-0.4-0.3-0.5-0.6c-0.1-0.2-0.2-0.6-0.2-0.9v-2H562
				c-0.1,0-0.1,0-0.2-0.1c0,0-0.1-0.1-0.1-0.2V275c0-0.1,0-0.1,0.1-0.2c0,0,0.1-0.1,0.2-0.1h0.7v-1.5c0-0.1,0-0.1,0.1-0.2
				c0,0,0.1-0.1,0.2-0.1h0.7c0.1,0,0.1,0,0.2,0.1c0,0,0.1,0.1,0.1,0.2v1.5h1.1c0.1,0,0.1,0,0.2,0.1c0,0,0.1,0.1,0.1,0.2v0.5
				c0,0.1,0,0.1-0.1,0.2c0,0-0.1,0.1-0.2,0.1h-1.1v2c0,0.2,0,0.4,0.1,0.6c0.1,0.1,0.2,0.2,0.5,0.2h0.6c0.1,0,0.1,0,0.2,0.1
				c0,0,0.1,0.1,0.1,0.2v0.6c0,0.1,0,0.1-0.1,0.2c0,0-0.1,0.1-0.2,0.1H564.3z"/>
			<path fill="#FFFFFF" d="M568.1,279.6c-0.7,0-1.2-0.2-1.6-0.6s-0.6-0.9-0.6-1.6c0-0.1,0-0.1,0-0.2c0-0.1,0-0.2,0-0.2
				c0-0.5,0.1-0.8,0.3-1.2c0.2-0.3,0.4-0.6,0.8-0.8s0.7-0.3,1.1-0.3c0.5,0,0.9,0.1,1.2,0.3c0.3,0.2,0.6,0.5,0.7,0.8s0.3,0.8,0.3,1.2
				v0.2c0,0.1,0,0.1-0.1,0.2s-0.1,0.1-0.2,0.1h-3c0,0,0,0.1,0,0.1c0,0.2,0,0.4,0.1,0.6c0.1,0.2,0.2,0.3,0.3,0.4
				c0.1,0.1,0.3,0.2,0.5,0.2c0.2,0,0.3,0,0.4-0.1s0.2-0.1,0.3-0.2s0.1-0.1,0.2-0.2c0.1-0.1,0.1-0.1,0.1-0.1c0,0,0.1,0,0.1,0h0.8
				c0.1,0,0.1,0,0.1,0.1s0.1,0.1,0,0.1c0,0.1-0.1,0.2-0.1,0.4c-0.1,0.1-0.2,0.3-0.4,0.4c-0.2,0.1-0.4,0.2-0.7,0.3
				C568.7,279.6,568.4,279.6,568.1,279.6z M567.1,276.8h2v0c0-0.2,0-0.4-0.1-0.6s-0.2-0.3-0.3-0.4s-0.3-0.2-0.5-0.2
				s-0.4,0.1-0.5,0.2s-0.3,0.2-0.3,0.4C567.1,276.3,567.1,276.5,567.1,276.8L567.1,276.8z"/>
			<path fill="#FFFFFF" d="M571.5,279.5c-0.1,0-0.1,0-0.2-0.1c0,0-0.1-0.1-0.1-0.2v-4.2c0-0.1,0-0.1,0.1-0.2c0,0,0.1-0.1,0.2-0.1
				h0.7c0.1,0,0.1,0,0.2,0.1c0,0,0.1,0.1,0.1,0.2v0.4c0.1-0.2,0.3-0.3,0.5-0.4c0.2-0.1,0.5-0.2,0.8-0.2h0.4c0.1,0,0.1,0,0.2,0.1
				c0,0,0.1,0.1,0.1,0.2v0.7c0,0.1,0,0.1-0.1,0.2s-0.1,0.1-0.2,0.1h-0.7c-0.3,0-0.5,0.1-0.7,0.2c-0.2,0.2-0.2,0.4-0.2,0.7v2.5
				c0,0.1,0,0.1-0.1,0.2c0,0-0.1,0.1-0.2,0.1H571.5z"/>
			<path fill="#FFFFFF" d="M575.2,279.5c-0.1,0-0.1,0-0.2-0.1c0,0-0.1-0.1-0.1-0.2V275c0-0.1,0-0.1,0.1-0.2c0,0,0.1-0.1,0.2-0.1h0.7
				c0.1,0,0.1,0,0.2,0.1c0,0,0.1,0.1,0.1,0.2v0.4c0.2-0.2,0.4-0.4,0.6-0.5c0.2-0.1,0.5-0.2,0.9-0.2c0.4,0,0.7,0.1,1,0.2
				c0.3,0.2,0.5,0.4,0.6,0.7s0.2,0.7,0.2,1.1v2.5c0,0.1,0,0.1-0.1,0.2c0,0-0.1,0.1-0.2,0.1h-0.8c-0.1,0-0.1,0-0.2-0.1
				c0,0-0.1-0.1-0.1-0.2v-2.5c0-0.3-0.1-0.6-0.3-0.8c-0.2-0.2-0.4-0.3-0.7-0.3c-0.3,0-0.6,0.1-0.7,0.3c-0.2,0.2-0.3,0.5-0.3,0.8v2.5
				c0,0.1,0,0.1-0.1,0.2s-0.1,0.1-0.2,0.1H575.2z"/>
			<path fill="#FFFFFF" d="M582,279.6c-0.3,0-0.6-0.1-0.8-0.2s-0.5-0.3-0.6-0.5s-0.2-0.4-0.2-0.7c0-0.4,0.2-0.8,0.5-1
				c0.3-0.2,0.8-0.4,1.3-0.5l1.2-0.2v-0.2c0-0.3-0.1-0.4-0.2-0.6c-0.1-0.1-0.3-0.2-0.6-0.2c-0.2,0-0.4,0-0.5,0.1
				c-0.1,0.1-0.2,0.2-0.3,0.3c0,0.1-0.1,0.1-0.2,0.1h-0.7c-0.1,0-0.1,0-0.1-0.1c0,0-0.1-0.1-0.1-0.1c0-0.1,0-0.2,0.1-0.4
				c0.1-0.1,0.2-0.3,0.3-0.4c0.2-0.1,0.4-0.2,0.6-0.3c0.2-0.1,0.5-0.1,0.9-0.1c0.4,0,0.7,0,1,0.1c0.3,0.1,0.5,0.2,0.6,0.4
				c0.2,0.2,0.3,0.3,0.3,0.5c0.1,0.2,0.1,0.4,0.1,0.7v2.8c0,0.1,0,0.1-0.1,0.2s-0.1,0.1-0.2,0.1h-0.7c-0.1,0-0.1,0-0.2-0.1
				s-0.1-0.1-0.1-0.2V279c-0.1,0.1-0.2,0.2-0.3,0.3c-0.1,0.1-0.3,0.2-0.5,0.2C582.5,279.6,582.3,279.6,582,279.6z M582.3,278.8
				c0.2,0,0.4,0,0.6-0.1c0.2-0.1,0.3-0.2,0.4-0.4s0.1-0.4,0.1-0.7v-0.2l-0.9,0.1c-0.4,0.1-0.6,0.1-0.8,0.3c-0.2,0.1-0.3,0.3-0.3,0.4
				c0,0.1,0,0.2,0.1,0.3c0.1,0.1,0.2,0.2,0.3,0.2C582.1,278.7,582.2,278.8,582.3,278.8z"/>
			<path fill="#FFFFFF" d="M587.9,279.5c-0.4,0-0.7-0.1-0.9-0.2c-0.2-0.1-0.4-0.3-0.5-0.6c-0.1-0.2-0.2-0.6-0.2-0.9v-2h-0.7
				c-0.1,0-0.1,0-0.2-0.1c0,0-0.1-0.1-0.1-0.2V275c0-0.1,0-0.1,0.1-0.2c0,0,0.1-0.1,0.2-0.1h0.7v-1.5c0-0.1,0-0.1,0.1-0.2
				c0,0,0.1-0.1,0.2-0.1h0.7c0.1,0,0.1,0,0.2,0.1c0,0,0.1,0.1,0.1,0.2v1.5h1.1c0.1,0,0.1,0,0.2,0.1c0,0,0.1,0.1,0.1,0.2v0.5
				c0,0.1,0,0.1-0.1,0.2c0,0-0.1,0.1-0.2,0.1h-1.1v2c0,0.2,0,0.4,0.1,0.6c0.1,0.1,0.2,0.2,0.5,0.2h0.6c0.1,0,0.1,0,0.2,0.1
				c0,0,0.1,0.1,0.1,0.2v0.6c0,0.1,0,0.1-0.1,0.2c0,0-0.1,0.1-0.2,0.1H587.9z"/>
			<path fill="#FFFFFF" d="M589.9,274.1c-0.1,0-0.1,0-0.2-0.1s-0.1-0.1-0.1-0.2v-0.6c0-0.1,0-0.1,0.1-0.2s0.1-0.1,0.2-0.1h0.8
				c0.1,0,0.1,0,0.2,0.1s0.1,0.1,0.1,0.2v0.6c0,0.1,0,0.1-0.1,0.2s-0.1,0.1-0.2,0.1H589.9z M589.9,279.5c-0.1,0-0.1,0-0.2-0.1
				c0,0-0.1-0.1-0.1-0.2V275c0-0.1,0-0.1,0.1-0.2c0,0,0.1-0.1,0.2-0.1h0.7c0.1,0,0.1,0,0.2,0.1c0,0,0.1,0.1,0.1,0.2v4.3
				c0,0.1,0,0.1-0.1,0.2s-0.1,0.1-0.2,0.1H589.9z"/>
			<path fill="#FFFFFF" d="M594.1,279.6c-0.5,0-0.9-0.1-1.2-0.3c-0.3-0.2-0.6-0.4-0.7-0.7c-0.2-0.3-0.3-0.7-0.3-1.1
				c0-0.1,0-0.2,0-0.4c0-0.2,0-0.3,0-0.4c0-0.4,0.1-0.8,0.3-1.1c0.2-0.3,0.4-0.5,0.8-0.7c0.3-0.2,0.7-0.3,1.2-0.3
				c0.5,0,0.9,0.1,1.2,0.3c0.3,0.2,0.6,0.4,0.8,0.7s0.3,0.7,0.3,1.1c0,0.1,0,0.2,0,0.4c0,0.2,0,0.3,0,0.4c0,0.4-0.1,0.8-0.3,1.1
				c-0.2,0.3-0.4,0.5-0.7,0.7C595,279.5,594.6,279.6,594.1,279.6z M594.1,278.7c0.3,0,0.6-0.1,0.7-0.3c0.2-0.2,0.3-0.5,0.3-0.9
				c0-0.1,0-0.2,0-0.4c0-0.1,0-0.3,0-0.4c0-0.4-0.1-0.7-0.3-0.9s-0.4-0.3-0.7-0.3c-0.3,0-0.6,0.1-0.7,0.3s-0.3,0.5-0.3,0.9
				c0,0.1,0,0.2,0,0.4c0,0.1,0,0.3,0,0.4c0,0.4,0.1,0.7,0.3,0.9C593.6,278.6,593.8,278.7,594.1,278.7z"/>
			<path fill="#FFFFFF" d="M597.6,279.5c-0.1,0-0.1,0-0.2-0.1s-0.1-0.1-0.1-0.2V275c0-0.1,0-0.1,0.1-0.2c0,0,0.1-0.1,0.2-0.1h0.7
				c0.1,0,0.1,0,0.2,0.1c0,0,0.1,0.1,0.1,0.2v0.4c0.2-0.2,0.4-0.4,0.6-0.5c0.2-0.1,0.5-0.2,0.9-0.2c0.4,0,0.7,0.1,1,0.2
				c0.3,0.2,0.5,0.4,0.6,0.7c0.1,0.3,0.2,0.7,0.2,1.1v2.5c0,0.1,0,0.1-0.1,0.2c0,0-0.1,0.1-0.2,0.1h-0.8c-0.1,0-0.1,0-0.2-0.1
				c0,0-0.1-0.1-0.1-0.2v-2.5c0-0.3-0.1-0.6-0.3-0.8c-0.2-0.2-0.4-0.3-0.7-0.3c-0.3,0-0.6,0.1-0.8,0.3c-0.2,0.2-0.3,0.5-0.3,0.8v2.5
				c0,0.1,0,0.1-0.1,0.2c0,0-0.1,0.1-0.2,0.1H597.6z"/>
			<path fill="#FFFFFF" d="M604.4,279.6c-0.3,0-0.6-0.1-0.8-0.2c-0.3-0.1-0.5-0.3-0.6-0.5c-0.1-0.2-0.2-0.4-0.2-0.7
				c0-0.4,0.2-0.8,0.5-1c0.3-0.2,0.8-0.4,1.3-0.5l1.2-0.2v-0.2c0-0.3-0.1-0.4-0.2-0.6c-0.1-0.1-0.3-0.2-0.6-0.2
				c-0.2,0-0.4,0-0.5,0.1s-0.2,0.2-0.3,0.3c0,0.1-0.1,0.1-0.2,0.1h-0.7c-0.1,0-0.1,0-0.1-0.1c0,0,0-0.1,0-0.1c0-0.1,0-0.2,0.1-0.4
				c0.1-0.1,0.2-0.3,0.3-0.4c0.2-0.1,0.4-0.2,0.6-0.3s0.5-0.1,0.9-0.1c0.4,0,0.7,0,1,0.1c0.3,0.1,0.5,0.2,0.6,0.4s0.3,0.3,0.3,0.5
				c0.1,0.2,0.1,0.4,0.1,0.7v2.8c0,0.1,0,0.1-0.1,0.2c0,0-0.1,0.1-0.2,0.1h-0.7c-0.1,0-0.1,0-0.2-0.1s-0.1-0.1-0.1-0.2V279
				c-0.1,0.1-0.2,0.2-0.3,0.3s-0.3,0.2-0.5,0.2C604.9,279.6,604.6,279.6,604.4,279.6z M604.7,278.8c0.2,0,0.4,0,0.6-0.1
				c0.2-0.1,0.3-0.2,0.4-0.4c0.1-0.2,0.1-0.4,0.1-0.7v-0.2l-0.9,0.1c-0.4,0.1-0.6,0.1-0.8,0.3s-0.3,0.3-0.3,0.4c0,0.1,0,0.2,0.1,0.3
				c0.1,0.1,0.2,0.2,0.3,0.2C604.4,278.7,604.6,278.8,604.7,278.8z"/>
			<path fill="#FFFFFF" d="M608.4,279.5c-0.1,0-0.1,0-0.2-0.1c0,0-0.1-0.1-0.1-0.2v-6c0-0.1,0-0.1,0.1-0.2c0,0,0.1-0.1,0.2-0.1h0.7
				c0.1,0,0.1,0,0.2,0.1c0,0,0.1,0.1,0.1,0.2v6c0,0.1,0,0.1-0.1,0.2c0,0-0.1,0.1-0.2,0.1H608.4z"/>
			<path fill="#FFFFFF" d="M554.5,289.4c-0.3,0-0.5-0.1-0.8-0.2c-0.2-0.1-0.4-0.3-0.5-0.4c-0.1-0.2-0.3-0.4-0.3-0.7
				s-0.1-0.5-0.1-0.9c0-0.1,0-0.2,0-0.3s0-0.2,0-0.3c0-0.3,0.1-0.6,0.1-0.8c0.1-0.3,0.2-0.5,0.3-0.7c0.1-0.2,0.3-0.3,0.6-0.5
				s0.5-0.2,0.8-0.2c0.3,0,0.6,0.1,0.8,0.2c0.2,0.1,0.4,0.3,0.5,0.4v-2c0-0.1,0-0.1,0.1-0.2c0,0,0.1-0.1,0.1-0.1h0.7
				c0.1,0,0.1,0,0.1,0.1c0,0,0.1,0.1,0.1,0.2v6c0,0.1,0,0.1-0.1,0.2s-0.1,0.1-0.1,0.1h-0.7c-0.1,0-0.1,0-0.1-0.1
				c0,0-0.1-0.1-0.1-0.2v-0.3c-0.1,0.2-0.3,0.3-0.5,0.5S554.9,289.4,554.5,289.4z M554.9,288.5c0.2,0,0.4-0.1,0.6-0.2
				c0.1-0.1,0.2-0.3,0.3-0.4c0.1-0.2,0.1-0.4,0.1-0.5c0-0.1,0-0.2,0-0.3s0-0.2,0-0.3c0-0.2,0-0.4-0.1-0.5c-0.1-0.2-0.2-0.3-0.3-0.4
				s-0.3-0.2-0.5-0.2c-0.2,0-0.4,0.1-0.6,0.2c-0.1,0.1-0.2,0.3-0.3,0.4c-0.1,0.2-0.1,0.4-0.1,0.6c0,0.2,0,0.4,0,0.5
				c0,0.2,0,0.4,0.1,0.6c0.1,0.2,0.2,0.3,0.3,0.4C554.4,288.4,554.6,288.5,554.9,288.5z"/>
			<path fill="#FFFFFF" d="M558.3,289.4c-0.1,0-0.1,0-0.1-0.1s-0.1-0.1-0.1-0.2v-4.2c0-0.1,0-0.1,0.1-0.2c0,0,0.1-0.1,0.1-0.1h0.7
				c0.1,0,0.1,0,0.1,0.1c0,0,0.1,0.1,0.1,0.2v0.4c0.1-0.2,0.3-0.3,0.5-0.4c0.2-0.1,0.4-0.2,0.7-0.2h0.3c0.1,0,0.1,0,0.1,0.1
				c0,0,0.1,0.1,0.1,0.2v0.7c0,0.1,0,0.1-0.1,0.2c0,0-0.1,0.1-0.1,0.1h-0.7c-0.3,0-0.5,0.1-0.6,0.2c-0.1,0.2-0.2,0.4-0.2,0.7v2.5
				c0,0.1,0,0.1-0.1,0.2s-0.1,0.1-0.2,0.1H558.3z"/>
			<path fill="#FFFFFF" d="M561.7,283.9c-0.1,0-0.1,0-0.1-0.1c0,0-0.1-0.1-0.1-0.2V283c0-0.1,0-0.1,0.1-0.2c0,0,0.1-0.1,0.1-0.1h0.8
				c0.1,0,0.1,0,0.2,0.1s0.1,0.1,0.1,0.2v0.6c0,0.1,0,0.1-0.1,0.2s-0.1,0.1-0.2,0.1H561.7z M561.8,289.4c-0.1,0-0.1,0-0.1-0.1
				s-0.1-0.1-0.1-0.2v-4.3c0-0.1,0-0.1,0.1-0.2c0,0,0.1-0.1,0.1-0.1h0.7c0.1,0,0.1,0,0.1,0.1c0,0,0.1,0.1,0.1,0.2v4.3
				c0,0.1,0,0.1-0.1,0.2c0,0-0.1,0.1-0.1,0.1H561.8z"/>
			<path fill="#FFFFFF" d="M565.3,289.4c-0.1,0-0.2,0-0.2-0.1c0,0-0.1-0.1-0.1-0.2l-1.6-4.2c0,0,0-0.1,0-0.1c0-0.1,0-0.1,0.1-0.1
				c0,0,0.1-0.1,0.1-0.1h0.7c0.1,0,0.1,0,0.2,0.1c0,0,0.1,0.1,0.1,0.1l1.1,3.2l1.1-3.2c0,0,0-0.1,0.1-0.1s0.1-0.1,0.2-0.1h0.7
				c0,0,0.1,0,0.1,0.1c0,0,0.1,0.1,0.1,0.1c0,0,0,0.1,0,0.1l-1.6,4.2c0,0.1-0.1,0.1-0.1,0.2s-0.1,0.1-0.2,0.1H565.3z"/>
			<path fill="#FFFFFF" d="M568.8,283.9c-0.1,0-0.1,0-0.1-0.1c0,0-0.1-0.1-0.1-0.2V283c0-0.1,0-0.1,0.1-0.2c0,0,0.1-0.1,0.1-0.1h0.8
				c0.1,0,0.1,0,0.2,0.1s0.1,0.1,0.1,0.2v0.6c0,0.1,0,0.1-0.1,0.2s-0.1,0.1-0.2,0.1H568.8z M568.8,289.4c-0.1,0-0.1,0-0.1-0.1
				s-0.1-0.1-0.1-0.2v-4.3c0-0.1,0-0.1,0.1-0.2c0,0,0.1-0.1,0.1-0.1h0.7c0.1,0,0.1,0,0.1,0.1c0,0,0.1,0.1,0.1,0.2v4.3
				c0,0.1,0,0.1-0.1,0.2c0,0-0.1,0.1-0.1,0.1H568.8z"/>
			<path fill="#FFFFFF" d="M571,289.4c-0.1,0-0.1,0-0.1-0.1s-0.1-0.1-0.1-0.2v-4.3c0-0.1,0-0.1,0.1-0.2c0,0,0.1-0.1,0.1-0.1h0.7
				c0.1,0,0.1,0,0.1,0.1c0,0,0.1,0.1,0.1,0.2v0.4c0.1-0.2,0.3-0.4,0.6-0.5c0.2-0.1,0.5-0.2,0.8-0.2c0.3,0,0.6,0.1,0.9,0.2
				c0.3,0.2,0.4,0.4,0.6,0.7c0.1,0.3,0.2,0.7,0.2,1.1v2.5c0,0.1,0,0.1-0.1,0.2s-0.1,0.1-0.1,0.1H574c-0.1,0-0.1,0-0.1-0.1
				s-0.1-0.1-0.1-0.2v-2.5c0-0.3-0.1-0.6-0.2-0.8c-0.2-0.2-0.4-0.3-0.7-0.3c-0.3,0-0.5,0.1-0.7,0.3c-0.2,0.2-0.3,0.5-0.3,0.8v2.5
				c0,0.1,0,0.1-0.1,0.2s-0.1,0.1-0.1,0.1H571z"/>
			<path fill="#FFFFFF" d="M578,291.3c-0.4,0-0.7-0.1-1-0.2s-0.5-0.3-0.6-0.4c-0.2-0.2-0.3-0.3-0.3-0.5c-0.1-0.2-0.1-0.3-0.1-0.4
				c0-0.1,0-0.1,0.1-0.2c0,0,0.1-0.1,0.1-0.1h0.7c0.1,0,0.1,0,0.1,0s0.1,0.1,0.1,0.1c0,0.1,0.1,0.2,0.1,0.3c0.1,0.1,0.1,0.2,0.3,0.2
				c0.1,0.1,0.3,0.1,0.5,0.1c0.2,0,0.4,0,0.5-0.1c0.1-0.1,0.3-0.2,0.3-0.3c0.1-0.2,0.1-0.4,0.1-0.6v-0.6c-0.1,0.2-0.3,0.3-0.5,0.4
				c-0.2,0.1-0.5,0.2-0.8,0.2c-0.3,0-0.6-0.1-0.8-0.2c-0.2-0.1-0.4-0.3-0.5-0.4c-0.1-0.2-0.3-0.4-0.3-0.7c-0.1-0.3-0.1-0.5-0.1-0.9
				c0-0.2,0-0.3,0-0.5c0-0.3,0.1-0.6,0.1-0.8c0.1-0.3,0.2-0.5,0.3-0.7c0.1-0.2,0.3-0.3,0.5-0.5s0.5-0.2,0.8-0.2
				c0.3,0,0.6,0.1,0.8,0.2c0.2,0.1,0.4,0.3,0.5,0.5v-0.4c0-0.1,0-0.1,0.1-0.2c0,0,0.1-0.1,0.1-0.1h0.7c0.1,0,0.1,0,0.1,0.1
				c0,0,0.1,0.1,0.1,0.2l0,4.3c0,0.4-0.1,0.8-0.2,1.1c-0.2,0.3-0.4,0.6-0.7,0.7C578.9,291.3,578.5,291.3,578,291.3z M578,288.4
				c0.2,0,0.4-0.1,0.6-0.2c0.1-0.1,0.2-0.2,0.3-0.4c0.1-0.2,0.1-0.4,0.1-0.5c0-0.1,0-0.2,0-0.3s0-0.2,0-0.3c0-0.2-0.1-0.4-0.1-0.5
				c-0.1-0.2-0.2-0.3-0.3-0.4c-0.1-0.1-0.3-0.2-0.6-0.2c-0.2,0-0.4,0.1-0.6,0.2c-0.1,0.1-0.2,0.3-0.3,0.4c-0.1,0.2-0.1,0.4-0.1,0.6
				c0,0.1,0,0.3,0,0.4c0,0.2,0,0.4,0.1,0.6c0.1,0.2,0.2,0.3,0.3,0.4C577.6,288.3,577.7,288.4,578,288.4z"/>
			<path fill="#FFFFFF" d="M583.3,289.4c-0.1,0-0.1,0-0.1-0.1s-0.1-0.1-0.1-0.2v-6c0-0.1,0-0.1,0.1-0.2c0,0,0.1-0.1,0.1-0.1h0.7
				c0.1,0,0.1,0,0.1,0.1c0,0,0.1,0.1,0.1,0.2v6c0,0.1,0,0.1-0.1,0.2s-0.1,0.1-0.1,0.1H583.3z"/>
			<path fill="#FFFFFF" d="M585.5,283.9c-0.1,0-0.1,0-0.1-0.1c0,0-0.1-0.1-0.1-0.2V283c0-0.1,0-0.1,0.1-0.2c0,0,0.1-0.1,0.1-0.1h0.8
				c0.1,0,0.1,0,0.2,0.1s0.1,0.1,0.1,0.2v0.6c0,0.1,0,0.1-0.1,0.2s-0.1,0.1-0.2,0.1H585.5z M585.6,289.4c-0.1,0-0.1,0-0.1-0.1
				s-0.1-0.1-0.1-0.2v-4.3c0-0.1,0-0.1,0.1-0.2c0,0,0.1-0.1,0.1-0.1h0.7c0.1,0,0.1,0,0.1,0.1c0,0,0.1,0.1,0.1,0.2v4.3
				c0,0.1,0,0.1-0.1,0.2c0,0-0.1,0.1-0.1,0.1H585.6z"/>
			<path fill="#FFFFFF" d="M589.5,289.4c-0.4,0-0.8-0.1-1.1-0.2s-0.5-0.4-0.7-0.7c-0.2-0.3-0.3-0.7-0.3-1.1c0-0.1,0-0.2,0-0.4
				s0-0.3,0-0.4c0-0.4,0.1-0.8,0.3-1.1c0.2-0.3,0.4-0.5,0.7-0.7s0.7-0.2,1.1-0.2c0.4,0,0.7,0.1,0.9,0.2c0.3,0.1,0.5,0.2,0.6,0.4
				c0.2,0.2,0.3,0.3,0.4,0.5c0.1,0.2,0.1,0.3,0.1,0.5c0,0.1,0,0.1-0.1,0.2s-0.1,0.1-0.1,0.1h-0.7c-0.1,0-0.1,0-0.1,0
				c0,0-0.1-0.1-0.1-0.1c-0.1-0.2-0.2-0.4-0.3-0.5c-0.1-0.1-0.3-0.1-0.5-0.1c-0.3,0-0.5,0.1-0.7,0.3s-0.3,0.5-0.3,0.9
				c0,0.2,0,0.4,0,0.6c0,0.4,0.1,0.7,0.3,0.9c0.2,0.2,0.4,0.3,0.7,0.3c0.2,0,0.4,0,0.5-0.1c0.1-0.1,0.2-0.3,0.3-0.5
				c0-0.1,0.1-0.1,0.1-0.1c0,0,0.1,0,0.1,0h0.7c0.1,0,0.1,0,0.1,0.1s0.1,0.1,0.1,0.2c0,0.1,0,0.2-0.1,0.4c0,0.1-0.1,0.3-0.2,0.4
				c-0.1,0.1-0.2,0.3-0.4,0.4c-0.2,0.1-0.3,0.2-0.6,0.3C590,289.4,589.8,289.4,589.5,289.4z"/>
			<path fill="#FFFFFF" d="M594.2,289.4c-0.6,0-1.1-0.2-1.5-0.6c-0.4-0.4-0.6-0.9-0.6-1.6c0-0.1,0-0.1,0-0.2c0-0.1,0-0.2,0-0.2
				c0-0.5,0.1-0.8,0.3-1.2c0.2-0.3,0.4-0.6,0.7-0.8c0.3-0.2,0.7-0.3,1.1-0.3c0.5,0,0.8,0.1,1.1,0.3c0.3,0.2,0.5,0.5,0.7,0.8
				c0.2,0.4,0.2,0.8,0.2,1.2v0.2c0,0.1,0,0.1-0.1,0.2s-0.1,0.1-0.2,0.1h-2.8c0,0,0,0.1,0,0.1c0,0.2,0,0.4,0.1,0.6
				c0.1,0.2,0.2,0.3,0.3,0.4s0.3,0.2,0.5,0.2c0.2,0,0.3,0,0.4-0.1c0.1-0.1,0.2-0.1,0.3-0.2c0.1-0.1,0.1-0.1,0.1-0.2
				c0.1-0.1,0.1-0.1,0.1-0.1c0,0,0.1,0,0.1,0h0.7c0.1,0,0.1,0,0.1,0.1c0,0,0.1,0.1,0,0.1c0,0.1-0.1,0.2-0.1,0.4
				c-0.1,0.1-0.2,0.3-0.4,0.4c-0.2,0.1-0.4,0.2-0.6,0.3C594.8,289.4,594.6,289.4,594.2,289.4z M593.3,286.6h1.9v0
				c0-0.2,0-0.4-0.1-0.6s-0.2-0.3-0.3-0.4c-0.1-0.1-0.3-0.2-0.5-0.2s-0.4,0.1-0.5,0.2c-0.1,0.1-0.2,0.2-0.3,0.4
				C593.4,286.1,593.3,286.3,593.3,286.6L593.3,286.6z"/>
			<path fill="#FFFFFF" d="M597.4,289.4c-0.1,0-0.1,0-0.1-0.1s-0.1-0.1-0.1-0.2v-4.3c0-0.1,0-0.1,0.1-0.2c0,0,0.1-0.1,0.1-0.1h0.7
				c0.1,0,0.1,0,0.1,0.1c0,0,0.1,0.1,0.1,0.2v0.4c0.1-0.2,0.3-0.4,0.6-0.5c0.2-0.1,0.5-0.2,0.8-0.2c0.3,0,0.6,0.1,0.9,0.2
				c0.3,0.2,0.4,0.4,0.6,0.7c0.1,0.3,0.2,0.7,0.2,1.1v2.5c0,0.1,0,0.1-0.1,0.2s-0.1,0.1-0.1,0.1h-0.7c-0.1,0-0.1,0-0.1-0.1
				s-0.1-0.1-0.1-0.2v-2.5c0-0.3-0.1-0.6-0.2-0.8c-0.2-0.2-0.4-0.3-0.7-0.3c-0.3,0-0.5,0.1-0.7,0.3c-0.2,0.2-0.3,0.5-0.3,0.8v2.5
				c0,0.1,0,0.1-0.1,0.2s-0.1,0.1-0.1,0.1H597.4z"/>
			<path fill="#FFFFFF" d="M604.1,289.4c-0.3,0-0.6,0-0.9-0.1c-0.2-0.1-0.4-0.2-0.6-0.3c-0.2-0.1-0.3-0.3-0.3-0.4
				c-0.1-0.1-0.1-0.2-0.1-0.3c0-0.1,0-0.1,0.1-0.2c0,0,0.1-0.1,0.1-0.1h0.7c0,0,0,0,0.1,0s0,0,0.1,0.1c0.1,0.1,0.1,0.1,0.2,0.2
				s0.2,0.1,0.3,0.2c0.1,0.1,0.3,0.1,0.4,0.1c0.2,0,0.4,0,0.5-0.1c0.1-0.1,0.2-0.2,0.2-0.4c0-0.1,0-0.2-0.1-0.3s-0.2-0.1-0.4-0.2
				c-0.2-0.1-0.4-0.1-0.7-0.2c-0.3-0.1-0.6-0.2-0.8-0.3s-0.4-0.3-0.5-0.5s-0.2-0.4-0.2-0.6c0-0.2,0.1-0.5,0.2-0.7
				c0.1-0.2,0.3-0.4,0.6-0.5s0.6-0.2,1-0.2c0.3,0,0.6,0,0.8,0.1c0.2,0.1,0.4,0.2,0.6,0.3c0.1,0.1,0.3,0.2,0.3,0.4s0.1,0.2,0.1,0.3
				c0,0.1,0,0.1-0.1,0.2s-0.1,0.1-0.1,0.1h-0.6c0,0-0.1,0-0.1,0c0,0,0,0-0.1,0c-0.1-0.1-0.1-0.1-0.2-0.2c-0.1-0.1-0.2-0.1-0.3-0.2
				c-0.1-0.1-0.2-0.1-0.4-0.1c-0.2,0-0.4,0-0.5,0.1c-0.1,0.1-0.2,0.2-0.2,0.4c0,0.1,0,0.2,0.1,0.3c0.1,0.1,0.2,0.1,0.3,0.2
				c0.2,0.1,0.4,0.1,0.7,0.2c0.4,0.1,0.7,0.2,0.9,0.3c0.2,0.1,0.4,0.3,0.5,0.5c0.1,0.2,0.1,0.4,0.1,0.6c0,0.3-0.1,0.5-0.2,0.7
				s-0.4,0.4-0.7,0.5C604.9,289.4,604.5,289.4,604.1,289.4z"/>
			<path fill="#FFFFFF" d="M608.8,289.4c-0.6,0-1.1-0.2-1.5-0.6c-0.4-0.4-0.6-0.9-0.6-1.6c0-0.1,0-0.1,0-0.2c0-0.1,0-0.2,0-0.2
				c0-0.5,0.1-0.8,0.3-1.2c0.2-0.3,0.4-0.6,0.7-0.8c0.3-0.2,0.7-0.3,1.1-0.3c0.5,0,0.8,0.1,1.1,0.3s0.5,0.5,0.7,0.8s0.2,0.8,0.2,1.2
				v0.2c0,0.1,0,0.1-0.1,0.2s-0.1,0.1-0.2,0.1h-2.8c0,0,0,0.1,0,0.1c0,0.2,0,0.4,0.1,0.6c0.1,0.2,0.2,0.3,0.3,0.4
				c0.1,0.1,0.3,0.2,0.5,0.2c0.2,0,0.3,0,0.4-0.1c0.1-0.1,0.2-0.1,0.3-0.2c0.1-0.1,0.1-0.1,0.1-0.2c0.1-0.1,0.1-0.1,0.1-0.1
				c0,0,0.1,0,0.1,0h0.7c0.1,0,0.1,0,0.1,0.1s0.1,0.1,0,0.1c0,0.1-0.1,0.2-0.1,0.4c-0.1,0.1-0.2,0.3-0.4,0.4
				c-0.2,0.1-0.4,0.2-0.6,0.3C609.4,289.4,609.1,289.4,608.8,289.4z M607.9,286.6h1.9v0c0-0.2,0-0.4-0.1-0.6
				c-0.1-0.2-0.2-0.3-0.3-0.4s-0.3-0.2-0.5-0.2c-0.2,0-0.4,0.1-0.5,0.2c-0.1,0.1-0.2,0.2-0.3,0.4S607.9,286.3,607.9,286.6
				L607.9,286.6z"/>
		</g>
	</g>
	<g>
		<path fill="#DAB429" d="M844.3,208.4c0-7.9,6.4-14.2,14.3-14.1c7.8,0.1,14.1,6.5,14.1,14.3c0,7.8-6.4,14.1-14.2,14.1
			C850.6,222.7,844.3,216.3,844.3,208.4z M871.8,208.4c0-7.4-6-13.3-13.4-13.3c-7.4,0-13.3,6-13.3,13.4c0,7.4,6,13.3,13.4,13.3
			C865.9,221.8,871.8,215.9,871.8,208.4z"/>
		<g>
			<g>
				<path fill="#DAB429" d="M858.5,215.7c-2.5,0-5.1,0-7.6,0c-1,0-1.9-0.7-2.1-1.7c0-0.1,0-0.3,0-0.4c0-3.2,0-6.3,0-9.5
					c0-1,0.8-1.9,1.8-2.1c0.1,0,0.3,0,0.4,0c5.1,0,10.2,0,15.3,0c1,0,1.9,0.7,2.1,1.7c0,0.1,0,0.3,0,0.4c0,3.2,0,6.3,0,9.5
					c0,1-0.8,1.9-1.8,2.1c-0.1,0-0.3,0-0.4,0C863.6,215.7,861.1,215.7,858.5,215.7z M858.5,214.9c2.6,0,5.1,0,7.7,0
					c0.7,0,1.3-0.6,1.3-1.3c0-3.1,0-6.3,0-9.4c0-0.7-0.6-1.3-1.3-1.3c-5.1,0-10.2,0-15.4,0c-0.7,0-1.3,0.6-1.3,1.3
					c0,3.1,0,6.3,0,9.4c0,0.1,0,0.2,0,0.3c0.1,0.6,0.6,1,1.3,1C853.4,214.9,855.9,214.9,858.5,214.9z"/>
				<path fill="#DAB429" d="M854.7,213.2c-0.9,0-1.7,0-2.6,0c0,0.1,0,0.1,0,0.2c0,0.1-0.1,0.2-0.2,0.2c-0.1,0-0.3,0-0.4,0
					c-0.1,0-0.2-0.1-0.2-0.2c0-0.6,0-1.3,0-1.9c0-0.1,0.1-0.2,0.1-0.3c0.1-0.3,0.2-0.5,0.2-0.7c0.1-0.4,0.4-0.6,0.8-0.6
					c0.6,0,1.3,0,1.9,0c0.4,0,0.7,0.2,0.8,0.6c0.1,0.3,0.2,0.7,0.3,1c0,0,0,0.1,0,0.1c0,0.6,0,1.3,0,1.9c0,0.2-0.1,0.2-0.3,0.2
					c-0.1,0-0.2,0-0.4,0c-0.1,0-0.2-0.1-0.2-0.2C854.7,213.3,854.7,213.3,854.7,213.2z M852.4,210.6c-0.1,0.3-0.2,0.6-0.3,0.9
					c0.8,0,1.7,0,2.5,0c-0.1-0.3-0.2-0.5-0.3-0.8c0,0,0,0-0.1,0C853.7,210.6,853,210.6,852.4,210.6z M852.5,212.3
					c0-0.2-0.2-0.4-0.4-0.4c-0.2,0-0.4,0.2-0.4,0.4c0,0.2,0.2,0.4,0.4,0.4C852.3,212.7,852.5,212.6,852.5,212.3z M854.7,212.7
					c0.2,0,0.4-0.2,0.4-0.4c0-0.2-0.2-0.4-0.4-0.4c-0.2,0-0.4,0.2-0.4,0.4C854.2,212.6,854.4,212.7,854.7,212.7z"/>
				<path fill="#DAB429" d="M851.2,208.9c0-0.4,0.2-0.6,0.5-0.8c0.2-0.1,0.4-0.2,0.5-0.3c0.1-0.1,0.3-0.2,0.4-0.2
					c0.1-0.1,0.1-0.2,0.1-0.3c0,0,0-0.1,0-0.1c0-0.2,0-0.3-0.1-0.4c-0.1-0.1-0.1-0.2-0.1-0.4c0,0,0-0.1-0.1-0.1
					c-0.1-0.1-0.2-0.4-0.1-0.5c0-0.1,0-0.1,0-0.1c-0.2-0.4-0.1-0.9,0.3-1.2c0.3-0.2,0.6-0.3,0.9-0.3c0,0,0.1,0,0.1,0
					c0,0.1,0.1,0.2,0.3,0.2c0.3,0.1,0.4,0.3,0.5,0.6c0.1,0.2,0.1,0.5-0.1,0.7c0.1,0.2,0.1,0.5-0.1,0.6c0,0,0,0,0,0.1
					c0,0.2-0.1,0.4-0.2,0.5c0,0,0,0.1,0,0.1c0,0.1,0,0.3,0,0.4c0,0.1,0.1,0.2,0.2,0.3c0.2,0.1,0.3,0.2,0.5,0.3
					c0.2,0.1,0.5,0.2,0.6,0.4c0.2,0.2,0.3,0.4,0.3,0.6C854.1,208.9,852.7,208.9,851.2,208.9z"/>
				<path fill="#DAB429" d="M862.5,205.9c0.9,0,1.9,0,2.8,0c0.2,0,0.3,0.1,0.4,0.2c0.1,0.2,0.1,0.3-0.1,0.5
					c-0.1,0.1-0.2,0.2-0.4,0.2c-0.8,0-1.6,0-2.4,0c-1,0-2.1,0-3.1,0c-0.2,0-0.4-0.2-0.4-0.4c0-0.2,0.1-0.4,0.3-0.5c0,0,0.1,0,0.1,0
					C860.7,205.9,861.6,205.9,862.5,205.9z"/>
				<path fill="#DAB429" d="M862.5,209.3c0.9,0,1.9,0,2.8,0c0.2,0,0.3,0.1,0.4,0.2c0.1,0.2,0.1,0.3-0.1,0.5
					c-0.1,0.1-0.2,0.2-0.4,0.2c-0.8,0-1.6,0-2.3,0c-1.1,0-2.1,0-3.2,0c-0.2,0-0.4-0.2-0.4-0.4c0-0.2,0.1-0.4,0.3-0.5
					c0,0,0.1,0,0.1,0C860.7,209.3,861.6,209.3,862.5,209.3z"/>
				<path fill="#DAB429" d="M861.9,208.5c-0.7,0-1.4,0-2.1,0c-0.2,0-0.4-0.2-0.4-0.4c0-0.2,0.1-0.4,0.3-0.5c0,0,0.1,0,0.1,0
					c1.4,0,2.8,0,4.3,0c0.3,0,0.5,0.2,0.5,0.4c0,0.3-0.2,0.4-0.5,0.4C863.3,208.5,862.6,208.5,861.9,208.5z"/>
				<path fill="#DAB429" d="M861.9,211c0.7,0,1.4,0,2.2,0c0.2,0,0.3,0.1,0.4,0.2c0.1,0.2,0.1,0.3-0.1,0.5c-0.1,0.1-0.2,0.2-0.4,0.2
					c-1.4,0-2.7,0-4.1,0c-0.1,0-0.1,0-0.2,0c-0.2,0-0.4-0.2-0.4-0.4c0-0.2,0.2-0.4,0.4-0.4C860.5,211,861.2,211,861.9,211z"/>
				<path fill="#DAB429" d="M857.7,204.2c-0.2,0-0.4-0.2-0.4-0.4c0-0.2,0.2-0.4,0.4-0.4c0.2,0,0.4,0.2,0.4,0.4
					C858.1,204,857.9,204.2,857.7,204.2z"/>
				<path fill="#DAB429" d="M857.7,205.5c-0.2,0-0.4-0.2-0.4-0.4c0-0.2,0.2-0.4,0.4-0.4c0.2,0,0.4,0.2,0.4,0.4
					C858.1,205.3,857.9,205.5,857.7,205.5z"/>
				<path fill="#DAB429" d="M858.1,206.3c0,0.2-0.2,0.4-0.4,0.4c-0.2,0-0.4-0.2-0.4-0.4c0-0.2,0.2-0.4,0.4-0.4
					C857.9,205.9,858.1,206.1,858.1,206.3z"/>
				<path fill="#DAB429" d="M858.1,207.6c0,0.2-0.2,0.4-0.4,0.4c-0.2,0-0.4-0.2-0.4-0.4c0-0.2,0.2-0.4,0.4-0.4
					C857.9,207.2,858.1,207.4,858.1,207.6z"/>
				<path fill="#DAB429" d="M857.7,208.5c0.2,0,0.4,0.2,0.4,0.4c0,0.2-0.2,0.4-0.4,0.4c-0.2,0-0.4-0.2-0.4-0.4
					C857.2,208.7,857.4,208.5,857.7,208.5z"/>
				<path fill="#DAB429" d="M857.6,209.8c0.2,0,0.4,0.2,0.4,0.4c0,0.2-0.2,0.4-0.4,0.4c-0.2,0-0.4-0.2-0.4-0.4
					C857.2,210,857.4,209.8,857.6,209.8z"/>
				<path fill="#DAB429" d="M857.2,211.5c0-0.2,0.2-0.4,0.4-0.4c0.2,0,0.4,0.2,0.4,0.4c0,0.2-0.2,0.4-0.4,0.4
					C857.4,211.9,857.2,211.7,857.2,211.5z"/>
				<path fill="#DAB429" d="M857.6,213.2c-0.2,0-0.4-0.2-0.4-0.4c0-0.2,0.2-0.4,0.4-0.4s0.4,0.2,0.4,0.4
					C858.1,213,857.9,213.2,857.6,213.2z"/>
				<path fill="#DAB429" d="M857.6,213.6c0.2,0,0.4,0.2,0.4,0.4c0,0.2-0.2,0.4-0.4,0.4c-0.2,0-0.4-0.2-0.4-0.4
					C857.2,213.8,857.4,213.6,857.6,213.6z"/>
			</g>
		</g>
	</g>
</g>
</svg>
