<?xml version="1.0" encoding="utf-8"?>
<!-- Generator: Adobe Illustrator 26.1.0, SVG Export Plug-In . SVG Version: 6.00 Build 0)  -->
<svg version="1.1" id="Layer_1" xmlns="http://www.w3.org/2000/svg" xmlns:xlink="http://www.w3.org/1999/xlink" x="0px" y="0px"
	 viewBox="0 0 24.7 24.7" enable-background="new 0 0 24.7 24.7" xml:space="preserve">
<g>
	<path d="M12.4,1.7C18.2,1.7,23,6.5,23,12.4C23,18.2,18.2,23,12.4,23C6.5,23,1.7,18.2,1.7,12.4C1.7,6.5,6.5,1.7,12.4,1.7 M12.4,0
		C5.5,0,0,5.5,0,12.4s5.5,12.4,12.4,12.4c6.8,0,12.4-5.5,12.4-12.4S19.2,0,12.4,0L12.4,0z"/>
	<path fill-rule="evenodd" clip-rule="evenodd" d="M5.8,18.9C5.9,18.6,6,18.4,6,18.1c0.2-0.8,0.5-1.6,0.7-2.5c0-0.1,0-0.3,0-0.4
		c-2.1-4,0.1-8.8,4.4-9.8c4-0.9,7.6,1.8,8.2,5.3c0.7,3.7-1.8,7.3-5.5,8c-1.5,0.3-2.9,0-4.2-0.6c-0.1-0.1-0.3-0.1-0.4,0
		C7.4,18.5,6.2,18.9,5.8,18.9z M7.4,17.4c0.7-0.2,1.3-0.3,1.9-0.5c0.2,0,0.3,0,0.5,0.1c1.2,0.7,2.4,0.9,3.8,0.7
		c3.1-0.5,5.2-3.4,4.7-6.4c-0.5-3.2-3.5-5.3-6.6-4.7c-3.8,0.7-5.8,5-3.9,8.3C8,15.3,8.1,15.6,7.9,16C7.7,16.3,7.6,16.8,7.4,17.4z"/>
	<path fill-rule="evenodd" clip-rule="evenodd" d="M14.4,15.3c-1.3,0-3.4-1.1-4.9-3.6C9,10.8,9.1,9.8,9.9,9.1
		c0.3-0.2,0.6-0.2,0.9-0.1c0.1,0,0.1,0.1,0.2,0.2c0.2,0.4,0.4,0.9,0.5,1.3c0.1,0.2-0.1,0.5-0.4,0.9c-0.1,0.1-0.1,0.2,0,0.4
		c0.6,0.9,1.3,1.6,2.4,2c0.2,0.1,0.3,0,0.4-0.1c0.5-0.7,0.6-0.9,0.9-0.7c1.4,0.7,1.5,0.7,1.5,0.8C16.1,14.9,15.1,15.3,14.4,15.3z"/>
</g>
</svg>
