<?xml version="1.0" encoding="utf-8"?>
<!-- Generator: Adobe Illustrator 26.1.0, SVG Export Plug-In . SVG Version: 6.00 Build 0)  -->
<svg version="1.1" id="svg3215" xmlns:svg="http://www.w3.org/2000/svg"
	 xmlns="http://www.w3.org/2000/svg" xmlns:xlink="http://www.w3.org/1999/xlink" x="0px" y="0px" viewBox="0 0 458.4 458.4"
	 enable-background="new 0 0 458.4 458.4" xml:space="preserve">
<g>
	<g>
		<g>
			<path d="M229.2,0C101.7,0,0,101.7,0,229.2c0,125.7,101.7,229.2,229.2,229.2c125.7,0,229.2-101.7,229.2-229.2
				C456.5,101.7,354.9,0,229.2,0z M229.2,425.1c-109,0-197.8-88.7-197.8-195.9c0-109,88.7-197.8,197.8-197.8
				c107.2,0,195.9,88.7,195.9,197.8C425.1,336.4,336.4,425.1,229.2,425.1z"/>
		</g>
	</g>
</g>
<g>
	<path d="M412.6,209.1c-0.7-8.7-2.2-18-6-25.8c-11.5-23.9-31.6-34.8-57.8-34.8c-39.8,0-79.6,0-119.3,0c-39.6,0-79.1,0.5-118.7-0.1
		c-38.7-0.6-65,27.6-65.3,62.1c-0.1,12.5-0.3,25,0,37.5c1,36.2,26.1,61.6,62.3,61.7c80.6,0.4,161.2,0.4,241.8,0
		c38.7-0.2,63.2-26.2,63.2-65C412.8,232.8,413.6,220.9,412.6,209.1z M162.8,269.9c-18.2,0.4-13.9,2.8-18.5-11.9
		c-4.6-14.6-8.6-29.4-13.4-46c-6,20.4-11.5,39.1-16.9,57.6c-0.9,0.3-1.3,0.4-1.7,0.5c-12.6,0.4-12.5,0.4-15.8-11.8
		c-5.9-22-11.8-44.1-17.7-66.1c-0.5-1.7-0.7-3.5-1.3-6.1c5.5,0,10.3-0.4,14.9,0.2c1.6,0.2,3.5,3,4,5c3.7,15.5,7.2,31.1,11.1,48.5
		c3.8-12.5,7-23.4,10.3-34.2c1.6-5.2,2.8-10.5,4.8-15.5c0.7-1.7,3.3-3.8,5.1-3.8c13.6,0,10.5-2.3,14.2,10
		c4.3,14.4,8.5,28.8,13.2,44.9c3.5-15.2,6.7-28.7,9.9-42.3c3.3-14.4,3.3-14.4,19.7-12.1C177.3,214.5,170.1,242.1,162.8,269.9z
		 M203.5,184.1c5.7,0.1,10.3,4.7,10.2,10.3c-0.1,5.5-4.4,9.9-9.9,10c-5.8,0.1-10.4-4.2-10.6-10C193,189,198,184,203.5,184.1z
		 M195.5,212.9c5.1,0,10.3,0,16.2,0c0,18.8,0,37.7,0,57c-5.3,0-10.5,0-16.2,0C195.5,251,195.5,232.3,195.5,212.9z M351.7,303.5
		c-50.8,0.1-101.6,0-152.4,0c-0.8,0-1.6-0.2-3.1-0.4c6.5-3.3,12.8-5.7,18.1-9.3c16.2-11,23.4-27,23.5-46.3c0.1-11.7,0.4-23.3,0-35
		c-1.2-32.3,23.3-57.2,52.9-57.4c22-0.2,44.2-1,66.1,0.4c29.5,1.9,49.6,24.7,49.8,54.3c0.1,12.3-0.3,24.6,0.1,36.9
		C407.5,277.7,384.3,303.5,351.7,303.5z"/>
	<path d="M129.3,136.6c66.7,0,133.2,0,200.6,0C271.3,72.5,173.8,83,129.3,136.6z"/>
	<path d="M329.8,322c-67.3,0-133.9,0-200.9,0C180.7,379.7,275.1,381.7,329.8,322z"/>
	<path d="M265.9,269.8c6.1,0,11.8,0,18.3,0c0-11.1,0-21.7,0-33.1c14.2,0,27.6,0,41.2,0c0-5.6,0-10.6,0-16.7c-13.9,0-27.4,0-40.9,0
		c0-6,0-11.3,0-17.2c14.6,0,28.9,0,43.4,0c0-5.8,0-11.1,0-16.4c-20.9,0-41.4,0-61.9,0C265.9,214.5,265.9,242.1,265.9,269.8z"/>
	<path d="M341.1,269.7c5.9,0,11.3,0,16.6,0c0-19.3,0-38.1,0-57c-5.8,0-11.1,0-16.6,0C341.1,232,341.1,250.7,341.1,269.7z"/>
	<path d="M349.5,184c-5.4,0-10.2,5-10,10.5c0.2,5.3,5.3,9.9,10.9,9.7c5.2-0.2,9.8-5.1,9.7-10.2C359.9,188.5,355.2,184,349.5,184z"/>
</g>
</svg>
