<?xml version="1.0" encoding="utf-8"?>
<!-- Generator: Adobe Illustrator 26.1.0, SVG Export Plug-In . SVG Version: 6.00 Build 0)  -->
<svg version="1.1" id="Layer_1" xmlns="http://www.w3.org/2000/svg" xmlns:xlink="http://www.w3.org/1999/xlink" x="0px" y="0px"
	 viewBox="0 0 24.8 24.8" enable-background="new 0 0 24.8 24.8" xml:space="preserve">
<g>
	<path d="M21.4,9.3L21.4,9.3c-0.1,0.1-0.3,0.3-0.4,0.4c-0.4,0.4-0.8,0.8-1.2,1.2c0,0,0,0,0,0C17.7,9,15.2,8,12.4,8.1
		c-2.8,0-5.3,1-7.3,3c-0.2-0.2-0.3-0.3-0.5-0.5c-0.3-0.3-0.7-0.7-1-1c0,0,0,0-0.1-0.1v0c0,0,0,0,0,0c2.2-2.1,4.9-3.3,8-3.6
		c0.2,0,0.3,0,0.5,0H13c0,0,0.1,0,0.1,0c0.4,0,0.8,0.1,1.2,0.1c1.5,0.2,2.9,0.6,4.2,1.3C19.5,7.8,20.5,8.5,21.4,9.3z"/>
	<path d="M14.7,18.5c-0.1,1.1-0.9,1.9-2,2.1c0,0,0,0-0.1,0h-0.4c-0.2-0.1-0.5-0.1-0.7-0.2c-0.9-0.4-1.5-1.3-1.4-2.3
		c0.1-1.1,0.9-1.9,1.9-2.1C13.5,15.8,14.8,17,14.7,18.5z"/>
	<path d="M18.9,11.8c-0.5,0.5-1.1,1.1-1.6,1.6c-1.4-1.3-3-1.9-4.9-1.9s-3.5,0.7-4.9,2c-0.5-0.5-1.1-1.1-1.6-1.7
		c1.7-1.6,3.7-2.5,6-2.6C15,9.1,17.5,10.4,18.9,11.8z"/>
	<path d="M16.4,14.2c-0.5,0.5-1,1-1.6,1.5c-0.7-0.6-1.5-1-2.5-1c-1,0-1.8,0.3-2.5,1c-0.5-0.5-1-1-1.5-1.6
		C10.4,12.2,14.1,12,16.4,14.2z"/>
</g>
<path d="M12.4,1.7C18.2,1.7,23,6.5,23,12.4C23,18.2,18.2,23,12.4,23C6.5,23,1.7,18.2,1.7,12.4C1.7,6.5,6.5,1.7,12.4,1.7 M12.4,0
	C5.5,0,0,5.5,0,12.4s5.5,12.4,12.4,12.4c6.8,0,12.4-5.5,12.4-12.4S19.2,0,12.4,0L12.4,0z"/>
</svg>
