<?xml version="1.0" encoding="utf-8"?>
<!-- Generator: Adobe Illustrator 26.1.0, SVG Export Plug-In . SVG Version: 6.00 Build 0)  -->
<svg version="1.1" id="Layer_1" xmlns="http://www.w3.org/2000/svg" xmlns:xlink="http://www.w3.org/1999/xlink" x="0px" y="0px"
	 viewBox="0 0 24.7 24.7" style="enable-background:new 0 0 24.7 24.7;" xml:space="preserve">
<style type="text/css">
	.st0{fill:#010101;}
</style>
<g>
	<g>
		<path class="st0" d="M12.4,1.7C18.2,1.7,23,6.5,23,12.4S18.2,23,12.4,23C6.5,23,1.7,18.2,1.7,12.4S6.5,1.7,12.4,1.7 M12.4,0
			C5.5,0,0,5.5,0,12.4s5.5,12.4,12.4,12.4c6.8,0,12.4-5.5,12.4-12.4S19.2,0,12.4,0L12.4,0z"/>
	</g>
	<path class="st0" d="M13.9,10.9L18.1,6h-1.3l-3.5,4.1L10.4,6H6.4l4.7,6.7l-4.8,5.6h1.3l4.1-4.8l3.4,4.8h4.1L13.9,10.9z M8.3,7h1.6
		l7.2,10.2h-1.6L8.3,7z"/>
</g>
</svg>
