<?xml version="1.0" encoding="utf-8"?>
<!-- Generator: Adobe Illustrator 26.1.0, SVG Export Plug-In . SVG Version: 6.00 Build 0)  -->
<svg version="1.1" id="Layer_1" xmlns="http://www.w3.org/2000/svg" xmlns:xlink="http://www.w3.org/1999/xlink" x="0px" y="0px"
	 viewBox="0 0 24.7 24.7" enable-background="new 0 0 24.7 24.7" xml:space="preserve">
<g>
	<path fill-rule="evenodd" clip-rule="evenodd" d="M12.4,0C5.5,0,0,5.5,0,12.4c0,6.9,5.5,12.4,12.4,12.4c6.9,0,12.4-5.5,12.4-12.4
		C24.8,5.5,19.2,0,12.4,0z M12.4,23C6.5,23,1.7,18.2,1.7,12.4c0-5.9,4.8-10.7,10.7-10.7C18.2,1.7,23,6.5,23,12.4
		C23,18.2,18.2,23,12.4,23z"/>
	<path fill-rule="evenodd" clip-rule="evenodd" d="M17.6,8.1C16.8,7.8,9.8,7.8,7.6,8C7.1,8,6.8,8.2,6.5,8.6
		c-0.9,0.9-0.7,5.9-0.3,7.1c0.2,0.5,0.5,0.8,1,1c1.1,0.3,9.7,0.3,10.6-0.1c0.3-0.2,0.6-0.4,0.7-0.7c0.6-1.2,0.6-5.7,0.1-6.9
		C18.4,8.6,18.1,8.3,17.6,8.1z M10.8,14.3c0-1.4,0-2.8,0-4.2c1.3,0.7,2.6,1.4,4,2.1C13.5,12.9,12.1,13.6,10.8,14.3z"/>
</g>
</svg>
